<svg width="132" height="133" viewBox="0 0 132 133" fill="none" xmlns="http://www.w3.org/2000/svg">
<g clip-path="url(#clip0_51_2315)">
<path d="M18.3819 27.0283L0 43.834L28.9094 62.6282L43.9111 34.9556L18.3819 27.0283Z" fill="url(#paint0_linear_51_2315)"/>
<path d="M113.454 26.9736L131.899 43.7092L103.107 62.4886L87.8926 34.8995L113.454 26.9736Z" fill="url(#paint1_linear_51_2315)"/>
<path d="M113.454 26.9717L110.98 27.7396L113.777 55.5295L131.899 43.7086L113.454 26.9717Z" fill="url(#paint2_linear_51_2315)"/>
<path d="M88.0273 34.8563L96.1405 49.7017L105.92 29.3838L88.0273 34.8563Z" fill="url(#paint3_linear_51_2315)"/>
<path d="M28.9102 62.6288L66.0243 62.5668L103.139 62.5048L95.5831 48.6806L88.0277 34.8564L65.9704 34.9063L43.9118 34.9561L36.4103 48.7925L28.9102 62.6288Z" fill="url(#paint4_radial_51_2315)"/>
<path d="M28.9102 62.6279L103.139 62.5039L66.0014 113.686L28.9102 62.6279Z" fill="url(#paint5_linear_51_2315)"/>
<path d="M28.9102 62.6279L103.139 62.5039L66.0014 113.686L28.9102 62.6279Z" fill="url(#paint6_radial_51_2315)"/>
<path d="M0 43.834L66.0006 113.686L28.9094 62.6282L0 43.834Z" fill="url(#paint7_linear_51_2315)"/>
<path d="M131.898 43.709L66.1641 113.812L103.106 62.4884L131.898 43.709Z" fill="url(#paint8_linear_51_2315)"/>
<path d="M89.8103 19.5L113.619 27.0285L88.0278 34.856L43.912 34.9557L18.3828 27.0285L42.1915 19.5H89.8103Z" fill="url(#paint9_linear_51_2315)"/>
<path d="M42.1915 19.5L18.3828 27.0285L33.2525 31.6455L48.8294 19.5H42.1915Z" fill="url(#paint10_linear_51_2315)"/>
<path d="M65.4193 19.5L54.2734 34.9328L75.3378 34.8843L78.5901 19.5H65.4193Z" fill="url(#paint11_linear_51_2315)"/>
<path d="M113.618 27.0285L89.8094 19.5H84.7168L87.379 34.8587L88.027 34.856L113.618 27.0285Z" fill="url(#paint12_linear_51_2315)"/>
<path style="mix-blend-mode:multiply" d="M43.9118 34.9561L66.0243 62.5667L28.9102 62.6287L43.9118 34.9561Z" fill="url(#paint13_linear_51_2315)"/>
<path style="mix-blend-mode:multiply" d="M88.0268 34.8564L66.0234 62.5668L103.138 62.5048L88.0268 34.8564Z" fill="url(#paint14_linear_51_2315)"/>
<path style="mix-blend-mode:multiply" d="M28.9102 62.6288L88.0277 34.8564L103.139 62.5048L28.9102 62.6288Z" fill="url(#paint15_linear_51_2315)"/>
<path style="mix-blend-mode:multiply" d="M18.382 27.0283L28.9094 62.6282L0 43.834L18.382 27.0283Z" fill="url(#paint16_linear_51_2315)"/>
<path d="M18.3828 27.0285L98.4893 22.2444L89.8103 19.5H42.1915L18.3828 27.0285Z" fill="url(#paint17_linear_51_2315)"/>
<path opacity="0.29" d="M66.1658 113.812L50.5579 62.5918L28.9102 62.6282L66.1658 113.812Z" fill="url(#paint18_linear_51_2315)"/>
<path opacity="0.52" d="M66.1641 113.811L103.137 62.5039L78.2786 62.5457L66.1641 113.811Z" fill="url(#paint19_linear_51_2315)"/>
<path d="M113.619 27.0273C111.508 27.7481 109.39 28.4406 107.273 29.1412C105.157 29.8418 103.035 30.5248 100.913 31.2079L94.547 33.257L88.1651 35.2537L88.1139 35.2698H88.0586C84.382 35.2766 80.7053 35.3184 77.0287 35.2968L66 35.251C64.1624 35.251 62.3234 35.22 60.4857 35.1984L54.9714 35.1297C53.1324 35.1136 51.2947 35.0705 49.4557 35.0341C47.6167 34.9977 45.7804 34.9613 43.9414 34.9061C45.7804 34.8509 47.6181 34.8131 49.4557 34.7714C51.2934 34.7296 53.1324 34.6905 54.9714 34.6744L60.4857 34.6057C62.3234 34.5841 64.1624 34.5545 66 34.5531L77.0287 34.5087C80.7053 34.4871 84.382 34.5289 88.0586 34.5356L87.9509 34.5518L94.3503 32.609L100.765 30.7229C102.903 30.0937 105.038 29.4564 107.184 28.8502C109.33 28.2439 111.469 27.6201 113.619 27.0273Z" fill="url(#paint20_linear_51_2315)"/>
<path d="M66.0002 113.686L63.5887 110.557L61.1973 107.415C59.5994 105.322 58.0106 103.222 56.4307 101.117L51.7045 94.785L47.0039 88.4421C45.4425 86.3229 43.877 84.2063 42.3303 82.0777L37.6755 75.6984C34.5957 71.429 31.4984 67.1716 28.4455 62.8833L28.2461 62.6031L28.4091 62.308C29.6782 60.0123 30.9536 57.7188 32.2353 55.4276L36.0939 48.5634C37.3809 46.2766 38.6833 43.9966 40.0009 41.7234L41.9612 38.3094L43.943 34.9062L42.1538 38.4172L40.3512 41.9201C39.1539 44.2553 37.945 46.5851 36.7244 48.9096L33.0612 55.8776C31.8379 58.1985 30.6024 60.514 29.3549 62.824L29.3172 62.2501C32.4495 66.4805 35.5388 70.7378 38.6442 74.9938L43.268 81.3946C44.8146 83.526 46.3424 85.6694 47.8729 87.8102L52.4536 94.242L57.006 100.695C58.5221 102.851 60.0261 105.012 61.5179 107.177L63.7651 110.424L66.0002 113.686Z" fill="url(#paint21_linear_51_2315)"/>
<path d="M124.702 48.3971C122.269 49.9177 119.844 51.4508 117.427 52.9966L110.163 57.615C107.841 59.0835 105.54 60.5789 103.228 62.0677L95.7753 48.6315L91.9288 41.7605L88.0568 34.9043L91.7133 41.8777L95.3926 48.8376L102.543 62.2226L84.5553 62.1727C81.4566 62.1566 78.3701 62.1727 75.2768 62.1822L66.0009 62.2091C62.9022 62.2226 59.8157 62.2091 56.7224 62.2468L47.4438 62.3236C44.3505 62.3461 41.2577 62.3793 38.1653 62.4233C35.0666 62.4664 31.98 62.5028 28.8867 62.5661C31.9854 62.6281 35.072 62.6658 38.1653 62.7076C41.2586 62.7494 44.3505 62.7857 47.4438 62.8073L56.7224 62.8854C59.8211 62.9178 62.9076 62.9083 66.0009 62.9232L75.2795 62.9488C78.3781 62.9488 81.4647 62.973 84.558 62.9568L102.423 62.9083L93.5159 75.1131L84.2751 87.9201C82.7311 90.0515 81.198 92.1909 79.6756 94.3384L75.0949 100.77C73.5626 102.911 72.0425 105.06 70.5344 107.218C69.0188 109.374 67.5018 111.521 66.0023 113.685C67.5947 111.589 69.1768 109.485 70.7486 107.373C72.3276 105.267 73.9066 103.16 75.464 101.041L80.1606 94.6928C81.7306 92.5794 83.2902 90.4588 84.8396 88.331L94.1559 75.5779L103.364 62.8288C105.745 61.2687 108.138 59.7302 110.505 58.1498L117.684 53.4021C120.08 51.8231 122.469 50.2343 124.852 48.6355C127.235 47.039 129.622 45.4466 131.992 43.8339C129.56 45.3428 127.133 46.872 124.702 48.3971Z" fill="url(#paint22_linear_51_2315)"/>
<path d="M0 43.834L3.66992 46.0839L7.32772 48.354L10.9842 50.6228C12.2061 51.3759 13.4092 52.1506 14.6285 52.9131L21.9037 57.5086L25.5413 59.799L29.1694 62.1135L28.8824 62.03L38.161 61.9788L47.4395 61.96L56.7181 61.9734L65.9966 62.0112C69.0953 62.0327 72.1819 62.0408 75.2751 62.0866L84.5537 62.1998L89.1936 62.2563L93.8322 62.348L98.4722 62.4409L103.111 62.5568L98.4722 62.6727L93.8322 62.7643L89.1936 62.8572L84.5537 62.9138L75.2751 63.0256C72.1765 63.0714 69.0899 63.0795 65.9966 63.1011L56.7181 63.1401L47.4395 63.1536L38.161 63.1334L28.8824 63.0836H28.7235L28.5887 63L24.9956 60.6316L21.4133 58.2469L14.2661 53.4844C13.0738 52.6868 11.8734 51.9013 10.6878 51.093L7.12293 48.6801L3.55945 46.2671L0 43.834Z" fill="url(#paint23_linear_51_2315)"/>
<path d="M82.5452 34.6382C80.7062 34.5709 78.8685 34.4954 77.0295 34.4483C75.1905 34.4011 73.3542 34.3405 71.5152 34.3068C69.6762 34.2731 67.8386 34.2233 66.0009 34.2071L60.4866 34.1397L54.9723 34.1155C53.1333 34.102 51.2956 34.1155 49.4566 34.1155L44.1538 34.1438L40.9743 33.1818C39.9086 32.8531 38.8362 32.5527 37.7665 32.2388L34.5573 31.3024L31.3374 30.3998C30.265 30.0953 29.1899 29.7989 28.1121 29.5106C27.0343 29.2236 25.9565 28.9232 24.8787 28.647C22.7231 28.0838 20.558 27.5301 18.3809 27.0303C20.4651 27.8386 22.5573 28.5971 24.6645 29.3476C25.7126 29.7288 26.7702 30.0845 27.8224 30.4536C28.8746 30.8228 29.9295 31.1825 30.9871 31.5314L34.1572 32.5971L37.3367 33.6318C38.3984 33.9727 39.4546 34.3284 40.5189 34.6571L42.7877 35.3684C42.3081 36.2388 41.8298 37.1077 41.3637 37.9848L39.5004 41.4526C38.8739 42.6045 38.2717 43.7713 37.6614 44.9326C37.0511 46.0939 36.4354 47.2539 35.8399 48.4233L34.0467 51.9262L32.2859 55.4506L30.56 58.9926C29.9942 60.1781 29.4297 61.3651 28.8868 62.5641C29.5995 61.458 30.2879 60.3385 30.9777 59.2202L33.0161 55.8521L35.0141 52.4584L36.9851 49.0498C37.6453 47.9141 38.2798 46.7595 38.9278 45.6251C39.5759 44.4907 40.2252 43.3428 40.8531 42.1896L42.7527 38.742C43.3199 37.7221 43.8709 36.6941 44.4233 35.6662L49.4526 35.6918C51.2916 35.7012 53.1292 35.7106 54.9682 35.6918L60.4826 35.6689L65.9969 35.6015C67.8345 35.584 69.6735 35.5395 71.5112 35.5018C73.3488 35.4641 75.1878 35.4169 77.0255 35.3671C78.8631 35.3172 80.7022 35.2445 82.5412 35.1758C84.3802 35.1071 86.2165 35.0141 88.0555 34.9063C86.2187 34.8003 84.382 34.711 82.5452 34.6382Z" fill="url(#paint24_linear_51_2315)"/>
<path style="mix-blend-mode:screen" d="M48.1233 39.9516C50.6072 37.4677 50.6072 33.4405 48.1233 30.9566C45.6394 28.4727 41.6122 28.4727 39.1283 30.9566C36.6445 33.4405 36.6444 37.4677 39.1283 39.9516C41.6122 42.4355 45.6394 42.4355 48.1233 39.9516Z" fill="url(#paint25_radial_51_2315)"/>
<path style="mix-blend-mode:screen" d="M43.7415 37.285C43.8182 36.9475 44.0122 36.6481 44.2891 36.4404C44.566 36.2326 44.9076 36.1299 45.2531 36.1507L52.2346 36.5643L45.4121 35.0217C45.0749 34.9451 44.7758 34.7515 44.5679 34.4752C44.3599 34.199 44.2567 33.8579 44.2764 33.5127L44.69 26.5312L43.1474 33.3511C43.0708 33.6885 42.877 33.9878 42.6004 34.1958C42.3239 34.4037 41.9825 34.5069 41.6371 34.4868L34.6543 34.0732L41.4808 35.6158C41.8183 35.6924 42.1176 35.8862 42.3255 36.1627C42.5335 36.4393 42.6366 36.7806 42.6166 37.1261L42.203 44.1089L43.7415 37.285Z" fill="url(#paint26_radial_51_2315)"/>
<path style="mix-blend-mode:screen" d="M32.9997 62.8152C33.1446 62.204 33.105 61.5636 32.8859 60.975C32.6667 60.3863 32.278 59.8758 31.7687 59.5082C31.2595 59.1405 30.6526 58.9321 30.0249 58.9093C29.3972 58.8866 28.7768 59.0505 28.2423 59.3803C27.7078 59.7102 27.283 60.1911 27.0219 60.7624C26.7607 61.3336 26.6748 61.9695 26.7751 62.5896C26.8753 63.2096 27.1572 63.786 27.5851 64.2459C28.013 64.7057 28.5676 65.0283 29.1789 65.1729C29.5846 65.2691 30.0052 65.2843 30.4168 65.2179C30.8284 65.1514 31.2229 65.0045 31.5777 64.7856C31.9325 64.5666 32.2407 64.2799 32.4847 63.9419C32.7287 63.6038 32.9037 63.2209 32.9997 62.8152Z" fill="url(#paint27_radial_51_2315)"/>
</g>
<defs>
<linearGradient id="paint0_linear_51_2315" x1="27.9569" y1="35.9485" x2="12.9889" y2="55.1078" gradientUnits="userSpaceOnUse">
<stop stop-color="#7CC4F4"/>
<stop offset="0.54" stop-color="#73B0F4"/>
<stop offset="1" stop-color="#699BF4"/>
</linearGradient>
<linearGradient id="paint1_linear_51_2315" x1="87.934" y1="44.8011" x2="131.907" y2="44.6323" gradientUnits="userSpaceOnUse">
<stop stop-color="#3872D6"/>
<stop offset="0.37" stop-color="#3268DD"/>
<stop offset="0.99" stop-color="#224FEF"/>
<stop offset="1" stop-color="#224EEF"/>
</linearGradient>
<linearGradient id="paint2_linear_51_2315" x1="130.747" y1="45.2721" x2="106.373" y2="39.5374" gradientUnits="userSpaceOnUse">
<stop stop-color="#3872D6"/>
<stop offset="0.37" stop-color="#3268DD"/>
<stop offset="0.99" stop-color="#224FEF"/>
<stop offset="1" stop-color="#224EEF"/>
</linearGradient>
<linearGradient id="paint3_linear_51_2315" x1="111.724" y1="51.3696" x2="94.1318" y2="31.9112" gradientUnits="userSpaceOnUse">
<stop stop-color="#3872D6"/>
<stop offset="0.37" stop-color="#3268DD"/>
<stop offset="0.99" stop-color="#224FEF"/>
<stop offset="1" stop-color="#224EEF"/>
</linearGradient>
<radialGradient id="paint4_radial_51_2315" cx="0" cy="0" r="1" gradientUnits="userSpaceOnUse" gradientTransform="translate(90.7411 60.4139) scale(52.2169 52.2169)">
<stop stop-color="#52F7FA"/>
<stop offset="1" stop-color="#456FFF"/>
</radialGradient>
<linearGradient id="paint5_linear_51_2315" x1="65.9839" y1="61.899" x2="69.1783" y2="114.348" gradientUnits="userSpaceOnUse">
<stop offset="0.01" stop-color="#0D61D1"/>
<stop offset="0.29" stop-color="#166DE2"/>
<stop offset="0.7" stop-color="#207AF4"/>
<stop offset="1" stop-color="#237FFA"/>
</linearGradient>
<radialGradient id="paint6_radial_51_2315" cx="0" cy="0" r="1" gradientUnits="userSpaceOnUse" gradientTransform="translate(66.7518 50.6171) scale(60.8932 60.8933)">
<stop stop-color="#52F7FA"/>
<stop offset="1" stop-color="#456FFF"/>
</radialGradient>
<linearGradient id="paint7_linear_51_2315" x1="11.6308" y1="49.9424" x2="47.6955" y2="91.9579" gradientUnits="userSpaceOnUse">
<stop offset="0.01" stop-color="#004294"/>
<stop offset="0.25" stop-color="#0048A2"/>
<stop offset="0.69" stop-color="#0050B4"/>
<stop offset="1" stop-color="#0053BA"/>
</linearGradient>
<linearGradient id="paint8_linear_51_2315" x1="120.106" y1="50.1419" x2="86.6384" y2="88.0854" gradientUnits="userSpaceOnUse">
<stop stop-color="#1837C7"/>
<stop offset="0.2" stop-color="#1634BF"/>
<stop offset="0.51" stop-color="#102CAA"/>
<stop offset="0.88" stop-color="#071E86"/>
<stop offset="1" stop-color="#04197A"/>
</linearGradient>
<linearGradient id="paint9_linear_51_2315" x1="18.3828" y1="27.2279" x2="113.619" y2="27.2279" gradientUnits="userSpaceOnUse">
<stop stop-color="#B8DEE1"/>
<stop offset="0.22" stop-color="#AED9E5"/>
<stop offset="0.58" stop-color="#94CCEF"/>
<stop offset="1" stop-color="#6EB9FF"/>
</linearGradient>
<linearGradient id="paint10_linear_51_2315" x1="38.7547" y1="25.5344" x2="117.921" y2="26.8668" gradientUnits="userSpaceOnUse">
<stop stop-color="#B8DEE1"/>
<stop offset="0.22" stop-color="#AED9E5"/>
<stop offset="0.58" stop-color="#94CCEF"/>
<stop offset="1" stop-color="#6EB9FF"/>
</linearGradient>
<linearGradient id="paint11_linear_51_2315" x1="38.7328" y1="26.7496" x2="117.899" y2="28.082" gradientUnits="userSpaceOnUse">
<stop stop-color="#B8DEE1"/>
<stop offset="0.22" stop-color="#AED9E5"/>
<stop offset="0.58" stop-color="#94CCEF"/>
<stop offset="1" stop-color="#6EB9FF"/>
</linearGradient>
<linearGradient id="paint12_linear_51_2315" x1="38.7404" y1="26.34" x2="117.906" y2="27.6725" gradientUnits="userSpaceOnUse">
<stop stop-color="#B8DEE1"/>
<stop offset="0.22" stop-color="#AED9E5"/>
<stop offset="0.58" stop-color="#94CCEF"/>
<stop offset="1" stop-color="#6EB9FF"/>
</linearGradient>
<linearGradient id="paint13_linear_51_2315" x1="59.0698" y1="69.1346" x2="35.6141" y2="48.077" gradientUnits="userSpaceOnUse">
<stop stop-color="white"/>
<stop offset="0.27" stop-color="#FCFCFF"/>
<stop offset="0.49" stop-color="#F1F4FF"/>
<stop offset="0.7" stop-color="#E0E7FF"/>
<stop offset="0.9" stop-color="#C8D4FF"/>
<stop offset="1" stop-color="#B8C8FF"/>
</linearGradient>
<linearGradient id="paint14_linear_51_2315" x1="84.0214" y1="64.3317" x2="92.5522" y2="36.8773" gradientUnits="userSpaceOnUse">
<stop stop-color="white"/>
<stop offset="0.27" stop-color="#FCFCFF"/>
<stop offset="0.49" stop-color="#F1F4FF"/>
<stop offset="0.7" stop-color="#E0E7FF"/>
<stop offset="0.9" stop-color="#C8D4FF"/>
<stop offset="1" stop-color="#B8C8FF"/>
</linearGradient>
<linearGradient id="paint15_linear_51_2315" x1="33.2079" y1="60.8571" x2="100.113" y2="47.7968" gradientUnits="userSpaceOnUse">
<stop stop-color="white"/>
<stop offset="0.27" stop-color="#FCFCFF"/>
<stop offset="0.49" stop-color="#F1F4FF"/>
<stop offset="0.7" stop-color="#E0E7FF"/>
<stop offset="0.9" stop-color="#C8D4FF"/>
<stop offset="1" stop-color="#B8C8FF"/>
</linearGradient>
<linearGradient id="paint16_linear_51_2315" x1="25.8363" y1="40.6127" x2="13.575" y2="54.2065" gradientUnits="userSpaceOnUse">
<stop stop-color="white"/>
<stop offset="0.27" stop-color="#FCFCFF"/>
<stop offset="0.49" stop-color="#F1F4FF"/>
<stop offset="0.7" stop-color="#E0E7FF"/>
<stop offset="0.9" stop-color="#C8D4FF"/>
<stop offset="1" stop-color="#B8C8FF"/>
</linearGradient>
<linearGradient id="paint17_linear_51_2315" x1="18.4569" y1="22.6634" x2="98.4596" y2="24.0106" gradientUnits="userSpaceOnUse">
<stop stop-color="#CDE0E1"/>
<stop offset="0.22" stop-color="#C3DCE5"/>
<stop offset="0.59" stop-color="#A9D2F0"/>
<stop offset="1" stop-color="#85C4FF"/>
</linearGradient>
<linearGradient id="paint18_linear_51_2315" x1="49.6175" y1="117.848" x2="44.8186" y2="49.4709" gradientUnits="userSpaceOnUse">
<stop offset="0.01" stop-color="#0D61D1"/>
<stop offset="0.29" stop-color="#166DE2"/>
<stop offset="0.7" stop-color="#207AF4"/>
<stop offset="1" stop-color="#237FFA"/>
</linearGradient>
<linearGradient id="paint19_linear_51_2315" x1="86.5521" y1="115.256" x2="81.7531" y2="46.8784" gradientUnits="userSpaceOnUse">
<stop stop-color="#0E67DE"/>
<stop offset="0.25" stop-color="#1C73E8"/>
<stop offset="0.69" stop-color="#2E83F5"/>
<stop offset="1" stop-color="#3489FA"/>
</linearGradient>
<linearGradient id="paint20_linear_51_2315" x1="87.2853" y1="29.2315" x2="113.407" y2="22.0344" gradientUnits="userSpaceOnUse">
<stop stop-color="#ADC3F0"/>
<stop offset="0.45" stop-color="#80A4F0"/>
<stop offset="0.8" stop-color="#6391F0"/>
<stop offset="1" stop-color="#598AF0"/>
</linearGradient>
<linearGradient id="paint21_linear_51_2315" x1="40.0481" y1="54.3566" x2="76.432" y2="105.935" gradientUnits="userSpaceOnUse">
<stop stop-color="#ADC3F0"/>
<stop offset="0.45" stop-color="#80A4F0"/>
<stop offset="0.8" stop-color="#6391F0"/>
<stop offset="1" stop-color="#598AF0"/>
</linearGradient>
<linearGradient id="paint22_linear_51_2315" x1="99.3684" y1="79.1401" x2="91.9046" y2="71.4095" gradientUnits="userSpaceOnUse">
<stop stop-color="#ADC3F0"/>
<stop offset="0.45" stop-color="#80A4F0"/>
<stop offset="0.8" stop-color="#6391F0"/>
<stop offset="1" stop-color="#598AF0"/>
</linearGradient>
<linearGradient id="paint23_linear_51_2315" x1="30.029" y1="53.6811" x2="96.9336" y2="54.6147" gradientUnits="userSpaceOnUse">
<stop stop-color="#ADC3F0"/>
<stop offset="0.45" stop-color="#80A4F0"/>
<stop offset="0.8" stop-color="#6391F0"/>
<stop offset="1" stop-color="#598AF0"/>
</linearGradient>
<linearGradient id="paint24_linear_51_2315" x1="34.5978" y1="29.4095" x2="68.1835" y2="56.5971" gradientUnits="userSpaceOnUse">
<stop stop-color="white"/>
<stop offset="0.44" stop-color="#D4DFF7"/>
<stop offset="0.79" stop-color="#B7CBF2"/>
<stop offset="1" stop-color="#ADC3F0"/>
</linearGradient>
<radialGradient id="paint25_radial_51_2315" cx="0" cy="0" r="1" gradientUnits="userSpaceOnUse" gradientTransform="translate(43.6249 35.4551) rotate(45) scale(6.36039 6.3604)">
<stop stop-color="white"/>
<stop offset="0.22" stop-color="#B4B4B4"/>
<stop offset="0.43" stop-color="#747474"/>
<stop offset="0.61" stop-color="#424242"/>
<stop offset="0.78" stop-color="#1E1E1E"/>
<stop offset="0.91" stop-color="#080808"/>
<stop offset="0.99"/>
</radialGradient>
<radialGradient id="paint26_radial_51_2315" cx="0" cy="0" r="1" gradientUnits="userSpaceOnUse" gradientTransform="translate(43.4453 35.3195) rotate(45) scale(7.09599)">
<stop stop-color="white"/>
<stop offset="0.09" stop-color="#F1F1F1"/>
<stop offset="0.26" stop-color="#CDCDCD"/>
<stop offset="0.49" stop-color="#939393"/>
<stop offset="0.78" stop-color="#434343"/>
<stop offset="0.99"/>
</radialGradient>
<radialGradient id="paint27_radial_51_2315" cx="0" cy="0" r="1" gradientUnits="userSpaceOnUse" gradientTransform="translate(29.9098 62.085) rotate(45) scale(3.17548)">
<stop stop-color="white"/>
<stop offset="0.22" stop-color="#B4B4B4"/>
<stop offset="0.43" stop-color="#747474"/>
<stop offset="0.61" stop-color="#424242"/>
<stop offset="0.78" stop-color="#1E1E1E"/>
<stop offset="0.91" stop-color="#080808"/>
<stop offset="0.99"/>
</radialGradient>
<clipPath id="clip0_51_2315">
<rect width="132" height="94.3119" fill="white" transform="translate(0 19.5)"/>
</clipPath>
</defs>
</svg>
