<svg width="21" height="20" viewBox="0 0 21 20" fill="none" xmlns="http://www.w3.org/2000/svg">
<g clip-path="url(#clip0_51_11803)">
<path d="M4.17264 2.43652L1.66602 5.64399L5.6082 9.23097L7.65389 3.94949L4.17264 2.43652Z" fill="url(#paint0_linear_51_11803)"/>
<path d="M17.136 2.42676L19.6513 5.62085L15.7251 9.20501L13.6504 3.93946L17.136 2.42676Z" fill="url(#paint1_linear_51_11803)"/>
<path d="M17.1361 2.42578L16.7988 2.57235L17.1802 7.87621L19.6514 5.62013L17.1361 2.42578Z" fill="url(#paint2_linear_51_11803)"/>
<path d="M13.6699 3.93119L14.7763 6.76452L16.1099 2.88672L13.6699 3.93119Z" fill="url(#paint3_linear_51_11803)"/>
<path d="M5.60742 9.23118L10.6684 9.21935L15.7295 9.20752L14.6992 6.56909L13.6689 3.93066L10.6611 3.94018L7.65311 3.94969L6.63017 6.59044L5.60742 9.23118Z" fill="url(#paint4_radial_51_11803)"/>
<path d="M5.60742 9.23166L15.7295 9.20801L10.6653 18.9765L5.60742 9.23166Z" fill="url(#paint5_linear_51_11803)"/>
<path d="M5.60742 9.23166L15.7295 9.20801L10.6653 18.9765L5.60742 9.23166Z" fill="url(#paint6_radial_51_11803)"/>
<path d="M1.66602 5.64453L10.6661 18.9763L5.6082 9.23152L1.66602 5.64453Z" fill="url(#paint7_linear_51_11803)"/>
<path d="M19.6532 5.62012L10.6895 18.9997L15.727 9.20428L19.6532 5.62012Z" fill="url(#paint8_linear_51_11803)"/>
<path d="M13.912 1L17.1586 2.43685L13.6689 3.93079L7.65312 3.94982L4.17188 2.43685L7.41852 1H13.912Z" fill="url(#paint9_linear_51_11803)"/>
<path d="M7.41852 1L4.17188 2.43685L6.19956 3.31804L8.32369 1H7.41852Z" fill="url(#paint10_linear_51_11803)"/>
<path d="M10.5863 1L9.06641 3.94544L11.9388 3.93619L12.3823 1H10.5863Z" fill="url(#paint11_linear_51_11803)"/>
<path d="M17.1598 2.43685L13.9132 1H13.2188L13.5818 3.9313L13.6701 3.93079L17.1598 2.43685Z" fill="url(#paint12_linear_51_11803)"/>
<path style="mix-blend-mode:multiply" d="M7.65311 3.9502L10.6684 9.21986L5.60742 9.23168L7.65311 3.9502Z" fill="url(#paint13_linear_51_11803)"/>
<path style="mix-blend-mode:multiply" d="M13.6704 3.93066L10.6699 9.21935L15.7309 9.20752L13.6704 3.93066Z" fill="url(#paint14_linear_51_11803)"/>
<path style="mix-blend-mode:multiply" d="M5.60742 9.23118L13.6689 3.93066L15.7295 9.20752L5.60742 9.23118Z" fill="url(#paint15_linear_51_11803)"/>
<path style="mix-blend-mode:multiply" d="M4.17265 2.43652L5.60821 9.23097L1.66602 5.64399L4.17265 2.43652Z" fill="url(#paint16_linear_51_11803)"/>
<path d="M4.17188 2.43685L15.0955 1.52378L13.912 1H7.41852L4.17188 2.43685Z" fill="url(#paint17_linear_51_11803)"/>
<path opacity="0.29" d="M10.6877 19.0003L8.55938 9.22461L5.60742 9.23155L10.6877 19.0003Z" fill="url(#paint18_linear_51_11803)"/>
<path opacity="0.52" d="M10.6895 19.0004L15.7312 9.20801L12.3414 9.21598L10.6895 19.0004Z" fill="url(#paint19_linear_51_11803)"/>
<path d="M17.1597 2.43652C16.8718 2.57409 16.583 2.70625 16.2944 2.83996C16.0057 2.97367 15.7164 3.10404 15.427 3.2344L14.559 3.6255L13.6887 4.00657L13.6817 4.00966H13.6742C13.1728 4.01094 12.6715 4.01891 12.1701 4.0148L10.6662 4.00606C10.4156 4.00606 10.1648 4.00014 9.91424 3.99603L9.16229 3.98291C8.91152 3.97983 8.66093 3.9716 8.41016 3.96466C8.15938 3.95772 7.90898 3.95077 7.6582 3.94023C7.90898 3.92969 8.15957 3.92249 8.41016 3.91452C8.66074 3.90655 8.91152 3.89909 9.16229 3.896L9.91424 3.88289C10.1648 3.87878 10.4156 3.87312 10.6662 3.87286L12.1701 3.86438C12.6715 3.86026 13.1728 3.86823 13.6742 3.86952L13.6595 3.87261L14.5321 3.50182L15.4068 3.14184C15.6984 3.02176 15.9896 2.90013 16.2822 2.78442C16.5749 2.66871 16.8664 2.54966 17.1597 2.43652Z" fill="url(#paint20_linear_51_11803)"/>
<path d="M10.6659 18.9759L10.337 18.3789L10.0109 17.7793C9.79303 17.3797 9.57637 16.979 9.36093 16.5772L8.71645 15.3686L8.07547 14.1581C7.86254 13.7536 7.64906 13.3496 7.43815 12.9434L6.80341 11.7259C6.38343 10.911 5.96107 10.0985 5.54477 9.28003L5.51758 9.22654L5.53981 9.17023C5.71287 8.73208 5.88679 8.29435 6.06156 7.85706L6.58773 6.54697C6.76324 6.11054 6.94083 5.67538 7.12051 5.24152L7.38781 4.58994L7.65806 3.94043L7.41409 4.61051L7.16827 5.27906C7.00501 5.72475 6.84015 6.16942 6.67371 6.61306L6.17418 7.94294C6.00737 8.38589 5.8389 8.82782 5.66878 9.26871L5.66363 9.15917C6.09077 9.96657 6.51204 10.7791 6.9355 11.5914L7.56602 12.813C7.77693 13.2198 7.98526 13.6289 8.19396 14.0375L8.8186 15.265L9.43938 16.4967C9.64612 16.9081 9.85121 17.3204 10.0546 17.7337L10.3611 18.3534L10.6659 18.9759Z" fill="url(#paint21_linear_51_11803)"/>
<path d="M18.6712 6.5156C18.3394 6.80582 18.0087 7.09844 17.6791 7.39345L16.6885 8.2749C16.372 8.55518 16.0582 8.84059 15.743 9.12472L14.7266 6.56034L14.2021 5.24897L13.6741 3.94043L14.1727 5.27134L14.6745 6.59969L15.6494 9.15429L13.1966 9.14478C12.7741 9.14169 12.3532 9.14478 11.9314 9.14658L10.6665 9.15172C10.2439 9.15429 9.82305 9.15172 9.40124 9.15892L8.13598 9.17358C7.71417 9.17786 7.29242 9.18421 6.87073 9.19261C6.44818 9.20083 6.02728 9.20778 5.60547 9.21986C6.02802 9.23169 6.44891 9.23889 6.87073 9.24686C7.29254 9.25483 7.71417 9.26177 8.13598 9.26589L9.40124 9.2808C9.82379 9.28697 10.2447 9.28517 10.6665 9.288L11.9318 9.29289C12.3543 9.29289 12.7752 9.29751 13.197 9.29443L15.6331 9.28517L14.4185 11.6145L13.1584 14.0588C12.9479 14.4656 12.7388 14.8739 12.5312 15.2838L11.9066 16.5113C11.6976 16.9198 11.4903 17.3301 11.2847 17.742C11.078 18.1534 10.8712 18.5633 10.6667 18.9762C10.8838 18.5761 11.0996 18.1746 11.3139 17.7716C11.5292 17.3697 11.7445 16.9675 11.9569 16.563L12.5974 15.3514C12.8114 14.9481 13.0241 14.5433 13.2354 14.1373L14.5058 11.7032L15.7615 9.27C16.0861 8.97224 16.4124 8.6786 16.7352 8.37698L17.7142 7.47085C18.0409 7.16949 18.3667 6.86625 18.6916 6.56112C19.0166 6.25642 19.3421 5.95249 19.6653 5.6447C19.3337 5.93269 19.0026 6.22453 18.6712 6.5156Z" fill="url(#paint22_linear_51_11803)"/>
<path d="M1.66602 5.64453L2.16646 6.07394L2.66525 6.50721L3.16386 6.94022C3.33049 7.08396 3.49455 7.23181 3.66081 7.37734L4.65288 8.25442L5.14891 8.69154L5.64366 9.1333L5.60453 9.11735L6.86979 9.10758L8.13504 9.10398L9.4003 9.10655L10.6656 9.11376C11.0881 9.11787 11.509 9.11941 11.9308 9.12815L13.1961 9.14975L13.8288 9.16055L14.4613 9.17804L15.094 9.19578L15.7266 9.21789L15.094 9.24001L14.4613 9.25749L13.8288 9.27523L13.1961 9.28603L11.9308 9.30737C11.5083 9.31612 11.0874 9.31766 10.6656 9.32177L9.4003 9.32923L8.13504 9.3318L6.86979 9.32794L5.60453 9.31843H5.58285L5.56448 9.30249L5.07451 8.85045L4.58601 8.39533L3.61139 7.48637C3.4488 7.33414 3.28511 7.18424 3.12344 7.02996L2.63732 6.56944L2.1514 6.10891L1.66602 5.64453Z" fill="url(#paint23_linear_51_11803)"/>
<path d="M12.9216 3.88952C12.6708 3.87667 12.4202 3.86227 12.1694 3.85327C11.9186 3.84427 11.6682 3.8327 11.4175 3.82627C11.1667 3.81984 10.9161 3.81033 10.6655 3.80724L9.91357 3.79439L9.16162 3.78976C8.91084 3.78718 8.66025 3.78976 8.40948 3.78976L7.68637 3.79516L7.2528 3.61156C7.10748 3.54882 6.96124 3.49148 6.81537 3.43157L6.37776 3.25287L5.93868 3.08059C5.79244 3.02248 5.64583 2.96591 5.49886 2.91088C5.35189 2.85611 5.20491 2.79877 5.05794 2.74606C4.76399 2.63858 4.46876 2.5329 4.17188 2.4375C4.45608 2.59178 4.7414 2.73654 5.02873 2.87977C5.17166 2.95254 5.31588 3.02042 5.45936 3.09087C5.60284 3.16133 5.74669 3.22998 5.89091 3.29658L6.3232 3.49997L6.75677 3.69745C6.90154 3.7625 7.04557 3.83038 7.1907 3.89312L7.50008 4.02889C7.43468 4.195 7.36946 4.36085 7.3059 4.52824L7.05182 5.1901C6.96639 5.40994 6.88427 5.63262 6.80104 5.85427C6.71782 6.07592 6.63386 6.29731 6.55266 6.5205L6.30813 7.18904L6.06801 7.8617L5.83267 8.5377C5.75551 8.76397 5.67853 8.99051 5.6045 9.21935C5.70168 9.00825 5.79556 8.79457 5.88962 8.58115L6.16759 7.93832L6.44004 7.29061L6.70882 6.64006C6.79884 6.4233 6.88537 6.20294 6.97374 5.98644C7.0621 5.76993 7.15066 5.55085 7.23627 5.33075L7.49531 4.67275C7.57265 4.4781 7.64779 4.28191 7.72312 4.08571L8.40893 4.0906C8.6597 4.0924 8.91029 4.0942 9.16106 4.0906L9.91302 4.08623L10.665 4.07337C10.9156 4.07003 11.1663 4.06155 11.4169 4.05435C11.6675 4.04715 11.9183 4.03815 12.1689 4.02863C12.4195 4.01912 12.6702 4.00523 12.921 3.99212C13.1718 3.97901 13.4222 3.96126 13.673 3.94069C13.4225 3.92047 13.172 3.90341 12.9216 3.88952Z" fill="url(#paint24_linear_51_11803)"/>
<path style="mix-blend-mode:screen" d="M8.22855 4.90329C8.56726 4.42923 8.56726 3.66061 8.22855 3.18655C7.88984 2.71248 7.34068 2.71248 7.00196 3.18655C6.66325 3.66062 6.66325 4.42923 7.00196 4.90329C7.34068 5.37736 7.88984 5.37736 8.22855 4.90329Z" fill="url(#paint25_radial_51_11803)"/>
<path style="mix-blend-mode:screen" d="M7.62979 4.39422C7.64025 4.3298 7.66671 4.27267 7.70446 4.23301C7.74222 4.19336 7.78881 4.17376 7.83592 4.17772L8.78794 4.25666L7.8576 3.96224C7.81162 3.94763 7.77083 3.91068 7.74247 3.85795C7.71412 3.80523 7.70004 3.74014 7.70273 3.67425L7.75913 2.3418L7.54877 3.6434C7.53833 3.7078 7.5119 3.76493 7.47419 3.80462C7.43648 3.84431 7.38993 3.86399 7.34283 3.86016L6.39062 3.78122L7.32152 4.07564C7.36753 4.09026 7.40835 4.12724 7.4367 4.18002C7.46506 4.2328 7.47913 4.29795 7.47639 4.36388L7.41999 5.6966L7.62979 4.39422Z" fill="url(#paint26_radial_51_11803)"/>
<path style="mix-blend-mode:screen" d="M6.16686 9.26735C6.18662 9.1507 6.18122 9.02847 6.15134 8.91612C6.12146 8.80377 6.06844 8.70635 5.999 8.63618C5.92956 8.566 5.8468 8.52623 5.76121 8.52188C5.67561 8.51754 5.59102 8.54882 5.51813 8.61178C5.44523 8.67473 5.38732 8.76653 5.35171 8.87555C5.31609 8.98458 5.30438 9.10594 5.31805 9.22428C5.33172 9.34262 5.37016 9.45263 5.42851 9.5404C5.48686 9.62816 5.56249 9.68973 5.64584 9.71733C5.70116 9.73568 5.75853 9.73859 5.81465 9.72591C5.87078 9.71323 5.92457 9.68519 5.97295 9.6434C6.02134 9.60162 6.06337 9.5469 6.09664 9.48237C6.12991 9.41785 6.15377 9.34478 6.16686 9.26735Z" fill="url(#paint27_radial_51_11803)"/>
</g>
<defs>
<linearGradient id="paint0_linear_51_11803" x1="5.47832" y1="4.13899" x2="2.54579" y2="6.82094" gradientUnits="userSpaceOnUse">
<stop stop-color="#7CC4F4"/>
<stop offset="0.54" stop-color="#73B0F4"/>
<stop offset="1" stop-color="#699BF4"/>
</linearGradient>
<linearGradient id="paint1_linear_51_11803" x1="13.656" y1="5.82925" x2="19.6524" y2="5.8128" gradientUnits="userSpaceOnUse">
<stop stop-color="#3872D6"/>
<stop offset="0.37" stop-color="#3268DD"/>
<stop offset="0.99" stop-color="#224FEF"/>
<stop offset="1" stop-color="#224EEF"/>
</linearGradient>
<linearGradient id="paint2_linear_51_11803" x1="19.4942" y1="5.91852" x2="16.0829" y2="5.34507" gradientUnits="userSpaceOnUse">
<stop stop-color="#3872D6"/>
<stop offset="0.37" stop-color="#3268DD"/>
<stop offset="0.99" stop-color="#224FEF"/>
<stop offset="1" stop-color="#224EEF"/>
</linearGradient>
<linearGradient id="paint3_linear_51_11803" x1="16.9013" y1="7.08285" x2="13.618" y2="4.48815" gradientUnits="userSpaceOnUse">
<stop stop-color="#3872D6"/>
<stop offset="0.37" stop-color="#3268DD"/>
<stop offset="0.99" stop-color="#224FEF"/>
<stop offset="1" stop-color="#224EEF"/>
</linearGradient>
<radialGradient id="paint4_radial_51_11803" cx="0" cy="0" r="1" gradientUnits="userSpaceOnUse" gradientTransform="translate(14.0389 8.80845) scale(7.12049 9.96592)">
<stop stop-color="#52F7FA"/>
<stop offset="1" stop-color="#456FFF"/>
</radialGradient>
<linearGradient id="paint5_linear_51_11803" x1="10.6629" y1="9.09256" x2="11.5132" y2="19.0674" gradientUnits="userSpaceOnUse">
<stop offset="0.01" stop-color="#0D61D1"/>
<stop offset="0.29" stop-color="#166DE2"/>
<stop offset="0.7" stop-color="#207AF4"/>
<stop offset="1" stop-color="#237FFA"/>
</linearGradient>
<radialGradient id="paint6_radial_51_11803" cx="0" cy="0" r="1" gradientUnits="userSpaceOnUse" gradientTransform="translate(10.7677 6.93933) scale(8.30362 11.6218)">
<stop stop-color="#52F7FA"/>
<stop offset="1" stop-color="#456FFF"/>
</radialGradient>
<linearGradient id="paint7_linear_51_11803" x1="3.25204" y1="6.81037" x2="10.1001" y2="12.5105" gradientUnits="userSpaceOnUse">
<stop offset="0.01" stop-color="#004294"/>
<stop offset="0.25" stop-color="#0048A2"/>
<stop offset="0.69" stop-color="#0050B4"/>
<stop offset="1" stop-color="#0053BA"/>
</linearGradient>
<linearGradient id="paint8_linear_51_11803" x1="18.0451" y1="6.84787" x2="11.7476" y2="11.9492" gradientUnits="userSpaceOnUse">
<stop stop-color="#1837C7"/>
<stop offset="0.2" stop-color="#1634BF"/>
<stop offset="0.51" stop-color="#102CAA"/>
<stop offset="0.88" stop-color="#071E86"/>
<stop offset="1" stop-color="#04197A"/>
</linearGradient>
<linearGradient id="paint9_linear_51_11803" x1="4.17188" y1="2.47491" x2="17.1586" y2="2.47491" gradientUnits="userSpaceOnUse">
<stop stop-color="#B8DEE1"/>
<stop offset="0.22" stop-color="#AED9E5"/>
<stop offset="0.58" stop-color="#94CCEF"/>
<stop offset="1" stop-color="#6EB9FF"/>
</linearGradient>
<linearGradient id="paint10_linear_51_11803" x1="6.94985" y1="2.15169" x2="17.7467" y2="2.28153" gradientUnits="userSpaceOnUse">
<stop stop-color="#B8DEE1"/>
<stop offset="0.22" stop-color="#AED9E5"/>
<stop offset="0.58" stop-color="#94CCEF"/>
<stop offset="1" stop-color="#6EB9FF"/>
</linearGradient>
<linearGradient id="paint11_linear_51_11803" x1="6.94723" y1="2.38363" x2="17.7441" y2="2.51346" gradientUnits="userSpaceOnUse">
<stop stop-color="#B8DEE1"/>
<stop offset="0.22" stop-color="#AED9E5"/>
<stop offset="0.58" stop-color="#94CCEF"/>
<stop offset="1" stop-color="#6EB9FF"/>
</linearGradient>
<linearGradient id="paint12_linear_51_11803" x1="6.94924" y1="2.30546" x2="17.7461" y2="2.4353" gradientUnits="userSpaceOnUse">
<stop stop-color="#B8DEE1"/>
<stop offset="0.22" stop-color="#AED9E5"/>
<stop offset="0.58" stop-color="#94CCEF"/>
<stop offset="1" stop-color="#6EB9FF"/>
</linearGradient>
<linearGradient id="paint13_linear_51_11803" x1="9.7201" y1="10.4734" x2="5.62753" y2="7.84826" gradientUnits="userSpaceOnUse">
<stop stop-color="white"/>
<stop offset="0.27" stop-color="#FCFCFF"/>
<stop offset="0.49" stop-color="#F1F4FF"/>
<stop offset="0.7" stop-color="#E0E7FF"/>
<stop offset="0.9" stop-color="#C8D4FF"/>
<stop offset="1" stop-color="#B8C8FF"/>
</linearGradient>
<linearGradient id="paint14_linear_51_11803" x1="13.1242" y1="9.55619" x2="15.2256" y2="4.72433" gradientUnits="userSpaceOnUse">
<stop stop-color="white"/>
<stop offset="0.27" stop-color="#FCFCFF"/>
<stop offset="0.49" stop-color="#F1F4FF"/>
<stop offset="0.7" stop-color="#E0E7FF"/>
<stop offset="0.9" stop-color="#C8D4FF"/>
<stop offset="1" stop-color="#B8C8FF"/>
</linearGradient>
<linearGradient id="paint15_linear_51_11803" x1="6.19348" y1="8.89305" x2="15.4838" y2="7.59731" gradientUnits="userSpaceOnUse">
<stop stop-color="white"/>
<stop offset="0.27" stop-color="#FCFCFF"/>
<stop offset="0.49" stop-color="#F1F4FF"/>
<stop offset="0.7" stop-color="#E0E7FF"/>
<stop offset="0.9" stop-color="#C8D4FF"/>
<stop offset="1" stop-color="#B8C8FF"/>
</linearGradient>
<linearGradient id="paint16_linear_51_11803" x1="5.18915" y1="5.02918" x2="2.89899" y2="6.84328" gradientUnits="userSpaceOnUse">
<stop stop-color="white"/>
<stop offset="0.27" stop-color="#FCFCFF"/>
<stop offset="0.49" stop-color="#F1F4FF"/>
<stop offset="0.7" stop-color="#E0E7FF"/>
<stop offset="0.9" stop-color="#C8D4FF"/>
<stop offset="1" stop-color="#B8C8FF"/>
</linearGradient>
<linearGradient id="paint17_linear_51_11803" x1="4.18198" y1="1.60375" x2="15.093" y2="1.73503" gradientUnits="userSpaceOnUse">
<stop stop-color="#CDE0E1"/>
<stop offset="0.22" stop-color="#C3DCE5"/>
<stop offset="0.59" stop-color="#A9D2F0"/>
<stop offset="1" stop-color="#85C4FF"/>
</linearGradient>
<linearGradient id="paint18_linear_51_11803" x1="8.43115" y1="19.7706" x2="7.15523" y2="6.78145" gradientUnits="userSpaceOnUse">
<stop offset="0.01" stop-color="#0D61D1"/>
<stop offset="0.29" stop-color="#166DE2"/>
<stop offset="0.7" stop-color="#207AF4"/>
<stop offset="1" stop-color="#237FFA"/>
</linearGradient>
<linearGradient id="paint19_linear_51_11803" x1="13.4696" y1="19.276" x2="12.1937" y2="6.28684" gradientUnits="userSpaceOnUse">
<stop stop-color="#0E67DE"/>
<stop offset="0.25" stop-color="#1C73E8"/>
<stop offset="0.69" stop-color="#2E83F5"/>
<stop offset="1" stop-color="#3489FA"/>
</linearGradient>
<linearGradient id="paint20_linear_51_11803" x1="13.5687" y1="2.85719" x2="17.2582" y2="2.1309" gradientUnits="userSpaceOnUse">
<stop stop-color="#ADC3F0"/>
<stop offset="0.45" stop-color="#80A4F0"/>
<stop offset="0.8" stop-color="#6391F0"/>
<stop offset="1" stop-color="#598AF0"/>
</linearGradient>
<linearGradient id="paint21_linear_51_11803" x1="7.12694" y1="7.65264" x2="14.4976" y2="15.1181" gradientUnits="userSpaceOnUse">
<stop stop-color="#ADC3F0"/>
<stop offset="0.45" stop-color="#80A4F0"/>
<stop offset="0.8" stop-color="#6391F0"/>
<stop offset="1" stop-color="#598AF0"/>
</linearGradient>
<linearGradient id="paint22_linear_51_11803" x1="15.2166" y1="12.3831" x2="13.8535" y2="11.3743" gradientUnits="userSpaceOnUse">
<stop stop-color="#ADC3F0"/>
<stop offset="0.45" stop-color="#80A4F0"/>
<stop offset="0.8" stop-color="#6391F0"/>
<stop offset="1" stop-color="#598AF0"/>
</linearGradient>
<linearGradient id="paint23_linear_51_11803" x1="5.76087" y1="7.52391" x2="14.8851" y2="7.61488" gradientUnits="userSpaceOnUse">
<stop stop-color="#ADC3F0"/>
<stop offset="0.45" stop-color="#80A4F0"/>
<stop offset="0.8" stop-color="#6391F0"/>
<stop offset="1" stop-color="#598AF0"/>
</linearGradient>
<linearGradient id="paint24_linear_51_11803" x1="6.38327" y1="2.8916" x2="12.064" y2="6.17717" gradientUnits="userSpaceOnUse">
<stop stop-color="white"/>
<stop offset="0.44" stop-color="#D4DFF7"/>
<stop offset="0.79" stop-color="#B7CBF2"/>
<stop offset="1" stop-color="#ADC3F0"/>
</linearGradient>
<radialGradient id="paint25_radial_51_11803" cx="0" cy="0" r="1" gradientUnits="userSpaceOnUse" gradientTransform="translate(7.61513 4.0451) rotate(54.4548) scale(1.05495 0.99802)">
<stop stop-color="white"/>
<stop offset="0.22" stop-color="#B4B4B4"/>
<stop offset="0.43" stop-color="#747474"/>
<stop offset="0.61" stop-color="#424242"/>
<stop offset="0.78" stop-color="#1E1E1E"/>
<stop offset="0.91" stop-color="#080808"/>
<stop offset="0.99"/>
</radialGradient>
<radialGradient id="paint26_radial_51_11803" cx="0" cy="0" r="1" gradientUnits="userSpaceOnUse" gradientTransform="translate(7.58939 4.01909) rotate(54.4548) scale(1.17696 1.11344)">
<stop stop-color="white"/>
<stop offset="0.09" stop-color="#F1F1F1"/>
<stop offset="0.26" stop-color="#CDCDCD"/>
<stop offset="0.49" stop-color="#939393"/>
<stop offset="0.78" stop-color="#434343"/>
<stop offset="0.99"/>
</radialGradient>
<radialGradient id="paint27_radial_51_11803" cx="0" cy="0" r="1" gradientUnits="userSpaceOnUse" gradientTransform="translate(5.74551 9.12797) rotate(54.4548) scale(0.526695 0.49827)">
<stop stop-color="white"/>
<stop offset="0.22" stop-color="#B4B4B4"/>
<stop offset="0.43" stop-color="#747474"/>
<stop offset="0.61" stop-color="#424242"/>
<stop offset="0.78" stop-color="#1E1E1E"/>
<stop offset="0.91" stop-color="#080808"/>
<stop offset="0.99"/>
</radialGradient>
<clipPath id="clip0_51_11803">
<rect width="18" height="18" fill="white" transform="translate(1.66602 1)"/>
</clipPath>
</defs>
</svg>
