<svg width="17" height="17" viewBox="0 0 17 17" fill="none" xmlns="http://www.w3.org/2000/svg">
<g clip-path="url(#clip0_51_2733)">
<path d="M15.6263 6.77887C14.5923 5.09486 12.2403 2.26953 8.11234 2.26953C3.98434 2.26953 1.63234 5.09486 0.598339 6.77887C0.278691 7.29587 0.109375 7.89169 0.109375 8.49953C0.109375 9.10737 0.278691 9.70319 0.598339 10.2202C1.63234 11.9042 3.98434 14.7295 8.11234 14.7295C12.2403 14.7295 14.5923 11.9042 15.6263 10.2202C15.946 9.70319 16.1153 9.10737 16.1153 8.49953C16.1153 7.89169 15.946 7.29587 15.6263 6.77887ZM14.4897 9.5222C13.6017 10.9662 11.5917 13.3962 8.11234 13.3962C4.63301 13.3962 2.62301 10.9662 1.73501 9.5222C1.5451 9.2149 1.44451 8.86078 1.44451 8.49953C1.44451 8.13828 1.5451 7.78417 1.73501 7.47687C2.62301 6.03287 4.63301 3.60286 8.11234 3.60286C11.5917 3.60286 13.6017 6.0302 14.4897 7.47687C14.6796 7.78417 14.7802 8.13828 14.7802 8.49953C14.7802 8.86078 14.6796 9.2149 14.4897 9.5222Z" fill="#1F1F26"/>
<path d="M8.11068 5.16699C7.45141 5.16699 6.80694 5.36249 6.25878 5.72876C5.71061 6.09503 5.28337 6.61563 5.03108 7.22471C4.77879 7.8338 4.71278 8.50402 4.84139 9.15063C4.97001 9.79723 5.28748 10.3912 5.75366 10.8573C6.21983 11.3235 6.81377 11.641 7.46038 11.7696C8.10698 11.8982 8.7772 11.8322 9.38629 11.5799C9.99538 11.3276 10.516 10.9004 10.8822 10.3522C11.2485 9.80406 11.444 9.1596 11.444 8.50033C11.443 7.6166 11.0914 6.76936 10.4665 6.14447C9.84164 5.51958 8.99441 5.16805 8.11068 5.16699ZM8.11068 10.5003C7.71512 10.5003 7.32844 10.383 6.99954 10.1633C6.67064 9.9435 6.41429 9.63115 6.26292 9.26569C6.11154 8.90024 6.07194 8.49811 6.14911 8.11015C6.22628 7.72218 6.41676 7.36582 6.69646 7.08611C6.97617 6.80641 7.33254 6.61593 7.7205 6.53875C8.10846 6.46158 8.51059 6.50119 8.87605 6.65257C9.2415 6.80394 9.55386 7.06029 9.77362 7.38919C9.99338 7.71808 10.1107 8.10476 10.1107 8.50033C10.1107 9.03076 9.89997 9.53947 9.52489 9.91454C9.14982 10.2896 8.64111 10.5003 8.11068 10.5003Z" fill="#1F1F26"/>
</g>
<defs>
<clipPath id="clip0_51_2733">
<rect width="16" height="16" fill="white" transform="translate(0.111328 0.5)"/>
</clipPath>
</defs>
</svg>
