<svg width="277" height="51" viewBox="0 0 277 51" fill="none" xmlns="http://www.w3.org/2000/svg">
<path d="M43.2677 21.9587L41.8827 19.4512C41.6375 19.0121 41.3201 18.6296 40.9161 18.3321L39.358 17.1279L39.661 14.6912C39.7331 14.1671 39.6177 13.6146 39.358 13.1612L38.8386 12.2262C38.5501 11.7162 38.0596 11.3479 37.468 11.2487L35.8811 10.9512L35.3617 9.01039C35.203 8.40123 34.7846 7.89123 34.222 7.60789L31.8415 6.43206C30.6585 5.85123 29.2879 5.90789 28.1626 6.60206L25.7533 8.07539C25.2772 8.35873 24.9309 8.81206 24.7578 9.33623C24.4548 10.2429 24.3105 11.1921 24.3105 12.1554V40.8712L26.0562 43.5062C26.6766 44.4412 27.7009 44.9937 28.8118 44.9937H30.2545C30.8604 44.9937 31.452 44.8379 31.9713 44.5262L33.9046 43.4071C34.3374 43.1521 34.698 42.7979 34.9433 42.3587L35.4627 41.4521L37.3526 41.0271C38.1028 40.8571 38.7809 40.4179 39.2426 39.7946L41.7817 36.3521C42.3155 35.6296 42.6185 34.7229 42.6185 33.8162V31.4362C42.6185 30.8696 42.4742 30.3029 42.2001 29.8071L41.6663 28.8154L42.4742 27.9512C42.8638 27.5262 43.1523 27.0162 43.2822 26.4496L43.6573 24.9337C43.917 23.9279 43.7727 22.8654 43.2677 21.9587ZM35.4483 11.5462L37.3526 11.9146C37.7277 11.9854 38.0451 12.2262 38.2327 12.5521L38.7521 13.4871C38.9396 13.8271 39.0262 14.2237 38.9685 14.6062L38.6222 17.4254L38.6511 17.4537L35.3761 23.7154L35.1164 23.5879L30.3844 14.3512L38.4347 17.4679L38.5934 17.0571L30.4709 13.9121L35.4483 11.5462ZM25.003 19.4087L34.4961 23.7862L28.8839 27.5971L25.003 28.4612V19.4087ZM28.9272 28.0362L36.6168 34.0996L30.6729 34.5529L25.0896 28.9004L28.9272 28.0362ZM29.3456 27.8237L34.8567 24.0837L35.0587 24.4662L36.8477 33.7454L29.3456 27.8237ZM25.4214 9.53456C25.5513 9.16623 25.7965 8.84039 26.1284 8.64206L28.5377 7.16873C29.461 6.61623 30.5719 6.55956 31.5385 7.02706L33.919 8.20289C34.3085 8.38706 34.5826 8.74123 34.698 9.15206L35.2318 11.1637L29.9083 13.6996L25.0608 11.1779C25.1329 10.6112 25.2483 10.0729 25.4214 9.53456ZM25.003 12.1412C25.003 11.9712 25.003 11.8154 25.0175 11.6454L29.7351 14.1104L34.4528 23.2904L25.003 18.9271V12.1412ZM35.0154 40.8429L34.3518 42.0046C34.1642 42.3304 33.8901 42.5996 33.5727 42.7979L31.6395 43.9171C31.2211 44.1579 30.745 44.2854 30.2689 44.2854H28.8262C27.9462 44.2854 27.1383 43.8462 26.6477 43.1096L25.1473 40.8287L30.3266 35.8704L30.0237 35.5587L25.0319 40.3329V29.4387L30.4421 34.9212L35.1597 40.8287L35.0154 40.8429ZM41.926 31.4362V33.8162C41.926 34.5812 41.6808 35.3462 41.2191 35.9554L38.6799 39.3979C38.3192 39.8937 37.7999 40.2337 37.2084 40.3612L35.6214 40.7154L31.048 34.9921L31.0768 34.9637L31.0624 34.9496L37.1074 34.4962L37.5113 34.8079L35.5204 24.4804L40.8296 28.7162L41.5942 30.1329C41.8106 30.5296 41.926 30.9829 41.926 31.4362ZM42.9936 24.7921L42.6185 26.3079C42.5031 26.7612 42.2867 27.1721 41.9693 27.4979L41.1325 28.4046L35.6935 24.0696L39.0117 17.7229L40.4977 18.8704C40.8151 19.1254 41.0748 19.4229 41.2768 19.7771L42.6618 22.2846C43.0802 23.0496 43.1956 23.9421 42.9936 24.7921Z" fill="white"/>
<path d="M24.6558 12.254C25.2693 12.254 25.7667 11.7529 25.7667 11.1348C25.7667 10.5167 25.2693 10.0156 24.6558 10.0156C24.0423 10.0156 23.5449 10.5167 23.5449 11.1348C23.5449 11.7529 24.0423 12.254 24.6558 12.254Z" fill="white"/>
<path d="M35.6929 12.1993C36.3064 12.1993 36.8038 11.6982 36.8038 11.0801C36.8038 10.462 36.3064 9.96094 35.6929 9.96094C35.0794 9.96094 34.582 10.462 34.582 11.0801C34.582 11.6982 35.0794 12.1993 35.6929 12.1993Z" fill="white"/>
<path d="M41.2476 29.7929C41.8611 29.7929 42.3585 29.2918 42.3585 28.6737C42.3585 28.0556 41.8611 27.5546 41.2476 27.5546C40.6341 27.5546 40.1367 28.0556 40.1367 28.6737C40.1367 29.2918 40.6341 29.7929 41.2476 29.7929Z" fill="white"/>
<path d="M36.8042 34.9649C37.4178 34.9649 37.9151 34.4638 37.9151 33.8457C37.9151 33.2276 37.4178 32.7266 36.8042 32.7266C36.1907 32.7266 35.6934 33.2276 35.6934 33.8457C35.6934 34.4638 36.1907 34.9649 36.8042 34.9649Z" fill="white"/>
<path d="M24.6569 20.6546C25.4059 20.6546 26.0131 20.0393 26.0131 19.2804C26.0131 18.5215 25.4059 17.9062 24.6569 17.9062C23.9079 17.9062 23.3008 18.5215 23.3008 19.2804C23.3008 20.0393 23.9079 20.6546 24.6569 20.6546Z" fill="white"/>
<path d="M38.4772 18.8577C39.2262 18.8577 39.8334 18.2425 39.8334 17.4835C39.8334 16.7246 39.2262 16.1094 38.4772 16.1094C37.7283 16.1094 37.1211 16.7246 37.1211 17.4835C37.1211 18.2425 37.7283 18.8577 38.4772 18.8577Z" fill="white"/>
<path d="M24.6558 29.9219C25.2693 29.9219 25.7667 29.4209 25.7667 28.8028C25.7667 28.1847 25.2693 27.6836 24.6558 27.6836C24.0423 27.6836 23.5449 28.1847 23.5449 28.8028C23.5449 29.4209 24.0423 29.9219 24.6558 29.9219Z" fill="white"/>
<path d="M24.6567 41.7353C25.342 41.7353 25.8975 41.1771 25.8975 40.4886C25.8975 39.8001 25.342 39.2419 24.6567 39.2419C23.9715 39.2419 23.416 39.8001 23.416 40.4886C23.416 41.1771 23.9715 41.7353 24.6567 41.7353Z" fill="white"/>
<path d="M29.0992 29.1145C29.8163 29.1145 30.3977 28.531 30.3977 27.8111C30.3977 27.0913 29.8163 26.5078 29.0992 26.5078C28.3821 26.5078 27.8008 27.0913 27.8008 27.8111C27.8008 28.531 28.3821 29.1145 29.0992 29.1145Z" fill="white"/>
<path d="M30.8896 36.649C31.8059 36.649 32.5487 35.8942 32.5487 34.9632C32.5487 34.0321 31.8059 33.2773 30.8896 33.2773C29.9733 33.2773 29.2305 34.0321 29.2305 34.9632C29.2305 35.8942 29.9733 36.649 30.8896 36.649Z" fill="white"/>
<path d="M30.1533 15.6256C31.0696 15.6256 31.8124 14.8708 31.8124 13.9397C31.8124 13.0087 31.0696 12.2539 30.1533 12.2539C29.237 12.2539 28.4941 13.0087 28.4941 13.9397C28.4941 14.8708 29.237 15.6256 30.1533 15.6256Z" fill="white"/>
<path d="M35.6357 42.7428C36.552 42.7428 37.2948 41.988 37.2948 41.0569C37.2948 40.1259 36.552 39.3711 35.6357 39.3711C34.7194 39.3711 33.9766 40.1259 33.9766 41.0569C33.9766 41.988 34.7194 42.7428 35.6357 42.7428Z" fill="white"/>
<path d="M35.2607 25.7554C36.2806 25.7554 37.1074 24.9182 37.1074 23.8854C37.1074 22.8526 36.2806 22.0154 35.2607 22.0154C34.2408 22.0154 33.4141 22.8526 33.4141 23.8854C33.4141 24.9182 34.2408 25.7554 35.2607 25.7554Z" fill="white"/>
<path d="M20.9198 9.33496C20.7467 8.81079 20.4005 8.37162 19.9388 8.08829L17.5295 6.61496C16.4186 5.93496 15.048 5.87829 13.8794 6.44496L11.4989 7.62079C10.9363 7.88996 10.5323 8.39996 10.3736 8.99496L9.85426 10.9641L8.23842 11.2758C7.67577 11.3891 7.18525 11.7433 6.8967 12.2391L6.3629 13.1741C6.10321 13.6275 6.00222 14.1658 6.05993 14.69L6.3629 17.1408L4.79035 18.345C4.40082 18.6425 4.08342 19.025 3.83816 19.4641L2.45316 21.9716C1.94821 22.8783 1.81837 23.9408 2.06363 24.9466L2.43874 26.4625C2.58301 27.015 2.85712 27.525 3.24665 27.95L3.93915 28.6866L4.069 28.8283L3.98243 28.9983L3.53519 29.8341C3.26108 30.33 3.13124 30.8825 3.13124 31.4491V33.8291C3.13124 34.7358 3.41978 35.6283 3.95358 36.3508L6.49275 39.7791C6.95441 40.4025 7.61806 40.8275 8.36827 40.9975L10.2726 41.4225L10.792 42.3433C11.0373 42.7683 11.398 43.1225 11.8163 43.3775L13.764 44.4966C14.2834 44.7941 14.8749 44.95 15.4664 44.95H16.9091C18.0056 44.95 19.0299 44.3975 19.6358 43.4766L20.6601 41.9183C21.1218 41.21 21.3671 40.4025 21.3671 39.5525V12.14C21.3671 11.1766 21.2084 10.2416 20.9198 9.33496ZM6.92556 13.4716L7.44493 12.5366C7.63248 12.1966 7.96431 11.9558 8.35384 11.885L10.1428 11.545L16.0723 16.1491L6.99769 17.0416L6.69472 14.6191C6.65144 14.2225 6.72358 13.8116 6.92556 13.4716ZM3.72275 27.525C3.40535 27.185 3.17452 26.76 3.0591 26.3208L2.684 24.7908C2.46759 23.9266 2.58301 23.0341 3.01582 22.2691L4.40082 19.7616C4.6028 19.4075 4.86249 19.0958 5.19431 18.8408L6.96884 17.4666L15.9713 16.5883L8.85879 22.7933L17.1544 26.2641C17.0101 26.3208 16.8225 26.3916 16.635 26.4625C16.0868 26.675 15.3077 26.9583 14.3411 27.3266C12.8262 27.9075 11.3258 28.4741 11.0661 28.5733H4.68936L3.72275 27.525ZM15.0769 37.6116L4.63165 29.1116L4.70379 28.9841H11.0517L11.4412 29.1825L15.0769 37.6116ZM12.0616 29.5083L20.6601 33.8858L15.7261 37.9941L12.0616 29.5083ZM10.5612 40.8558L8.49811 40.4025C7.9066 40.275 7.3728 39.9208 6.99769 39.425L4.45853 35.9825C3.99686 35.3591 3.7516 34.5941 3.7516 33.8291V31.4491C3.7516 30.9958 3.86702 30.5283 4.08342 30.1316L4.41525 29.5225L15.2356 38.3341L10.5612 40.8558ZM20.7323 39.5525C20.7323 40.275 20.5159 40.9691 20.1263 41.5783L19.102 43.1366C18.6115 43.8875 17.7892 44.3266 16.9091 44.3266H15.4664C14.9759 44.3266 14.4998 44.1991 14.0814 43.9583L12.1482 42.8391C11.8163 42.655 11.5422 42.3716 11.3547 42.0458L10.8786 41.1958L15.6395 38.6316L15.7694 38.5608L15.7838 38.5466L15.9281 38.4333L20.7611 34.41L20.7323 39.5525ZM20.7323 33.4325L11.7875 28.8708L11.7442 28.7575C14.1247 27.8508 17.2409 26.6608 17.7603 26.4908L17.818 26.5191L20.7467 23.7L20.7323 33.4325ZM20.7323 23.0908L17.7026 26.0091L9.68113 22.6516L16.7504 16.4891L20.7323 15.2425V23.0908ZM20.7323 14.7891L16.6783 16.0641L10.4313 11.205L10.9796 9.15079C11.095 8.72579 11.3835 8.37162 11.7731 8.17329L14.1391 7.01162C14.5863 6.79912 15.0624 6.68579 15.5385 6.68579C16.1012 6.68579 16.6783 6.84162 17.1832 7.15329L19.5925 8.62662C19.9244 8.83912 20.184 9.15079 20.3139 9.53329C20.588 10.3833 20.7323 11.2616 20.7323 12.14V14.7891Z" fill="white"/>
<path d="M6.76714 18.3477C7.38066 18.3477 7.87802 17.8466 7.87802 17.2285C7.87802 16.6104 7.38066 16.1094 6.76714 16.1094C6.15361 16.1094 5.65625 16.6104 5.65625 17.2285C5.65625 17.8466 6.15361 18.3477 6.76714 18.3477Z" fill="white"/>
<path d="M10.3453 42.3008C10.9588 42.3008 11.4561 41.7998 11.4561 41.1817C11.4561 40.5636 10.9588 40.0625 10.3453 40.0625C9.73173 40.0625 9.23438 40.5636 9.23438 41.1817C9.23438 41.7998 9.73173 42.3008 10.3453 42.3008Z" fill="white"/>
<path d="M21.021 24.3243C21.6346 24.3243 22.1319 23.8232 22.1319 23.2051C22.1319 22.587 21.6346 22.0859 21.021 22.0859C20.4075 22.0859 19.9102 22.587 19.9102 23.2051C19.9102 23.8232 20.4075 24.3243 21.021 24.3243Z" fill="white"/>
<path d="M21.021 15.9219C21.6346 15.9219 22.1319 15.4209 22.1319 14.8028C22.1319 14.1847 21.6346 13.6836 21.021 13.6836C20.4075 13.6836 19.9102 14.1847 19.9102 14.8028C19.9102 15.4209 20.4075 15.9219 21.021 15.9219Z" fill="white"/>
<path d="M21.0202 35.0921C21.7692 35.0921 22.3764 34.4768 22.3764 33.7179C22.3764 32.959 21.7692 32.3438 21.0202 32.3438C20.2712 32.3438 19.6641 32.959 19.6641 33.7179C19.6641 34.4768 20.2712 35.0921 21.0202 35.0921Z" fill="white"/>
<path d="M10.1003 12.5804C10.8493 12.5804 11.4564 11.9651 11.4564 11.2062C11.4564 10.4473 10.8493 9.83203 10.1003 9.83203C9.35131 9.83203 8.74414 10.4473 8.74414 11.2062C8.74414 11.9651 9.35131 12.5804 10.1003 12.5804Z" fill="white"/>
<path d="M11.4566 29.7928C12.0701 29.7928 12.5675 29.2917 12.5675 28.6736C12.5675 28.0555 12.0701 27.5544 11.4566 27.5544C10.8431 27.5544 10.3457 28.0555 10.3457 28.6736C10.3457 29.2917 10.8431 29.7928 11.4566 29.7928Z" fill="white"/>
<path d="M17.4421 27.4397C18.1911 27.4397 18.7982 26.8245 18.7982 26.0656C18.7982 25.3066 18.1911 24.6914 17.4421 24.6914C16.6931 24.6914 16.0859 25.3066 16.0859 26.0656C16.0859 26.8245 16.6931 27.4397 17.4421 27.4397Z" fill="white"/>
<path d="M15.7685 39.8795C16.6848 39.8795 17.4276 39.1247 17.4276 38.1936C17.4276 37.2626 16.6848 36.5078 15.7685 36.5078C14.8522 36.5078 14.1094 37.2626 14.1094 38.1936C14.1094 39.1247 14.8522 39.8795 15.7685 39.8795Z" fill="white"/>
<path d="M3.93841 30.4889C4.85472 30.4889 5.59753 29.7341 5.59753 28.803C5.59753 27.872 4.85472 27.1172 3.93841 27.1172C3.02211 27.1172 2.2793 27.872 2.2793 28.803C2.2793 29.7341 3.02211 30.4889 3.93841 30.4889Z" fill="white"/>
<path d="M15.7685 17.7938C16.6848 17.7938 17.4276 17.039 17.4276 16.108C17.4276 15.1769 16.6848 14.4221 15.7685 14.4221C14.8522 14.4221 14.1094 15.1769 14.1094 16.108C14.1094 17.039 14.8522 17.7938 15.7685 17.7938Z" fill="white"/>
<path d="M10.1006 24.3962C11.1205 24.3962 11.9472 23.559 11.9472 22.5262C11.9472 21.4935 11.1205 20.6562 10.1006 20.6562C9.08069 20.6562 8.25391 21.4935 8.25391 22.5262C8.25391 23.559 9.08069 24.3962 10.1006 24.3962Z" fill="white"/>
<path d="M65.9472 20.3281V23.6431C65.9472 26.8873 64.1294 32.8798 61.1719 35.274L60.6525 35.699L60.1331 35.274C57.089 32.7948 55.401 26.8165 55.401 23.6431V20.3281H52.5156V23.6431C52.5156 28.7715 55.1414 34.4098 57.6805 36.889C58.7337 37.8948 59.7147 38.3765 60.6525 38.3765C63.1051 38.3765 65.1826 35.1606 66.1925 33.234C67.8372 30.1456 68.775 26.6465 68.775 23.6431V20.3281H65.9472Z" fill="white"/>
<path d="M77.5471 23.1478H88.5406V20.3711H77.5471C74.6473 20.3711 72.2812 22.6661 72.2812 25.4994C72.2812 26.6894 72.6708 27.7944 73.4498 28.7578L73.8538 29.2678L73.4354 29.7636C72.6996 30.6561 72.2812 31.7894 72.2812 32.9653C72.2812 35.8128 74.6473 38.1361 77.5471 38.1361H88.5406V35.3169H77.5471C76.2054 35.3169 75.1522 34.2828 75.1522 32.9653C75.1522 31.7753 76.0179 30.7978 77.2153 30.6703H77.3019H85.1214V27.8511H77.2153C76.0179 27.7094 75.1522 26.7319 75.1522 25.4994C75.1522 24.1819 76.2054 23.1478 77.5471 23.1478Z" fill="white"/>
<path d="M102.88 31.3499L102.389 30.8682L102.952 30.4716C104.467 29.4091 105.375 27.6666 105.375 25.8249C105.375 22.6657 102.779 20.1016 99.5902 20.1016H91.7852V38.3907H95.1322V31.5057H95.7237C99.3738 31.5057 102.259 35.0899 102.562 38.3907H105.909C105.751 35.8691 104.495 32.9366 102.88 31.3499ZM99.6046 28.4882H94.9014V23.1474H99.6046C101.105 23.1474 102.317 24.3374 102.317 25.8107C102.317 27.2841 101.105 28.4882 99.6046 28.4882Z" fill="white"/>
<path d="M109.199 20.3281V23.1473H115.1V38.1498H117.971V23.1473H123.886V20.3281H109.199Z" fill="white"/>
<path d="M127.391 20.3281V38.1498H130.262V20.3281H127.391Z" fill="white"/>
<path d="M142.815 23.1473H149.149V20.3281H142.815C137.824 20.3281 133.77 24.3373 133.77 29.2673C133.77 34.1973 137.838 38.164 142.815 38.164H149.149V35.3448H142.815C139.411 35.3448 136.641 32.6248 136.641 29.2815C136.626 25.8956 139.396 23.1473 142.815 23.1473Z" fill="white"/>
<path d="M160.17 20.1016C155.885 20.1016 152.408 23.5441 152.408 27.7657V38.3907H155.755V31.5907H160.17C162.637 31.5907 164.628 33.5599 164.628 35.9682V38.3766H167.975V27.7657C167.975 23.5441 164.469 20.1016 160.17 20.1016ZM164.859 30.0041L163.661 29.3949C162.608 28.8566 161.425 28.5732 160.17 28.5732H155.51V27.7657C155.51 25.1732 157.559 23.1474 160.17 23.1474C162.767 23.1474 164.873 25.2157 164.873 27.7657L164.859 30.0041Z" fill="white"/>
<path d="M177.151 35.3306C175.449 35.3306 174.064 33.999 174.064 32.3415V20.3281H171.236V32.3415C171.236 35.5431 173.891 38.1498 177.151 38.1498H182.792V35.3306H177.151Z" fill="white"/>
<path d="M207.202 20.3281C205.817 20.3281 204.417 20.8523 203.364 21.759L202.816 22.2265L202.268 21.759C201.215 20.8523 199.815 20.3281 198.43 20.3281C195.213 20.3281 192.602 22.8923 192.602 26.0373V38.1498H195.473V26.0373C195.473 24.4365 196.8 23.1473 198.416 23.1473C200.046 23.1473 201.359 24.4506 201.359 26.0373V38.1498H204.23V26.0373C204.23 24.4648 205.586 23.1473 207.173 23.1473C208.818 23.1473 210.174 24.4506 210.174 26.0373V38.1498H213.001V26.0373C213.016 22.8923 210.405 20.3281 207.202 20.3281Z" fill="white"/>
<path d="M216.521 20.3281V38.1498H219.392V20.3281H216.521Z" fill="white"/>
<path d="M230.416 20.3281C226.261 20.3281 222.885 23.6715 222.885 27.7656V38.1498H225.756V27.7656C225.756 25.1731 227.804 23.1473 230.416 23.1473C233.013 23.1473 235.119 25.2156 235.119 27.7656V38.1498H237.99V27.7656C237.99 23.6715 234.585 20.3281 230.416 20.3281Z" fill="white"/>
<path d="M247.772 20.3281H241.496V23.1473H247.772C251.206 23.1473 253.99 25.8956 253.99 29.2531C253.99 32.5965 251.206 35.3165 247.772 35.3165H244.367V25.839H241.496V38.1498H247.772C252.792 38.1498 256.875 34.1548 256.875 29.2531C256.875 24.3515 252.792 20.3281 247.772 20.3281Z" fill="white"/>
<path d="M265.588 23.1486H275.052V20.3719H265.631C264.232 20.3436 262.904 20.8678 261.923 21.8311C260.913 22.8086 260.365 24.1119 260.365 25.5003C260.365 28.3336 262.702 30.6286 265.588 30.6286H269.786C271.085 30.6286 272.181 31.7053 272.181 32.9803V33.0228C272.181 34.2978 271.113 35.3319 269.786 35.3319H260.365V38.1511H269.786C272.686 38.1511 275.052 35.8561 275.052 33.0228V32.9803C275.052 30.1469 272.686 27.8519 269.786 27.8519H265.588C264.289 27.8519 263.236 26.8036 263.236 25.5003C263.236 24.2111 264.289 23.1486 265.588 23.1486Z" fill="white"/>
</svg>
