<svg width="20" height="20" viewBox="0 0 20 20" fill="none" xmlns="http://www.w3.org/2000/svg">
<path fill-rule="evenodd" clip-rule="evenodd" d="M10.389 0.5C5.06292 0.5 0.778015 4.76444 0.778015 10.0651C0.778015 14.2897 3.54118 17.8766 7.34554 19.152C7.82609 19.2317 7.98627 18.9527 7.98627 18.6737C7.98627 18.4346 7.98627 17.8368 7.98627 17.0397C5.3032 17.6375 4.74256 15.7643 4.74256 15.7643C4.30205 14.6484 3.66132 14.3694 3.66132 14.3694C2.78031 13.7716 3.74141 13.7716 3.74141 13.7716C4.70251 13.8513 5.22311 14.768 5.22311 14.768C6.06407 16.2426 7.46567 15.8042 8.02632 15.565C8.10641 14.9274 8.34668 14.5288 8.62701 14.2897C6.50457 14.0506 4.26201 13.2136 4.26201 9.547C4.26201 8.51078 4.62242 7.63397 5.26315 6.9963C5.18306 6.75717 4.82265 5.80066 5.34324 4.44561C5.34324 4.44561 6.14416 4.20648 7.98627 5.44197C8.74714 5.2427 9.58811 5.12313 10.389 5.12313C11.1899 5.12313 12.0309 5.2427 12.7918 5.44197C14.6339 4.20648 15.4348 4.44561 15.4348 4.44561C15.9554 5.76081 15.635 6.71732 15.5149 6.9963C16.1156 7.67383 16.516 8.51078 16.516 9.547C16.516 13.2136 14.2735 14.0107 12.111 14.2498C12.4714 14.5288 12.7517 15.1266 12.7517 16.0034C12.7517 17.2788 12.7517 18.315 12.7517 18.6338C12.7517 18.873 12.9119 19.1918 13.4325 19.1121C17.2369 17.8766 20 14.2897 20 10.0651C20 4.76444 15.7151 0.5 10.389 0.5Z" fill="#F0F0F0"/>
</svg>
