<svg width="21" height="20" viewBox="0 0 21 20" fill="none" xmlns="http://www.w3.org/2000/svg">
<g clip-path="url(#clip0_20_851)">
<path d="M10.3875 19.9998C15.373 19.9998 19.4145 15.9908 19.4145 11.0454C19.4145 6.10007 15.373 2.09106 10.3875 2.09106C5.40204 2.09106 1.36053 6.10007 1.36053 11.0454C1.36053 15.9908 5.40204 19.9998 10.3875 19.9998Z" fill="#8A6E00"/>
<path d="M10.3334 19.8392C15.8562 19.8392 20.3334 15.398 20.3334 9.91958C20.3334 4.44115 15.8562 0 10.3334 0C4.81053 0 0.333374 4.44115 0.333374 9.91958C0.333374 15.398 4.81053 19.8392 10.3334 19.8392Z" fill="url(#paint0_linear_20_851)"/>
<path d="M10.3334 19.6245C15.7368 19.6245 20.1171 15.2794 20.1171 9.91943C20.1171 4.55946 15.7368 0.214355 10.3334 0.214355C4.92996 0.214355 0.549622 4.55946 0.549622 9.91943C0.549622 15.2794 4.92996 19.6245 10.3334 19.6245Z" fill="url(#paint1_linear_20_851)"/>
<path d="M10.3334 19.3029C15.5577 19.3029 19.7928 15.1018 19.7928 9.91952C19.7928 4.73722 15.5577 0.536133 10.3334 0.536133C5.10905 0.536133 0.873901 4.73722 0.873901 9.91952C0.873901 15.1018 5.10905 19.3029 10.3334 19.3029Z" fill="url(#paint2_linear_20_851)"/>
<path d="M10.3334 19.3029C15.5577 19.3029 19.7928 15.1018 19.7928 9.91952C19.7928 4.73722 15.5577 0.536133 10.3334 0.536133C5.10905 0.536133 0.873901 4.73722 0.873901 9.91952C0.873901 15.1018 5.10905 19.3029 10.3334 19.3029Z" fill="url(#paint3_linear_20_851)"/>
<path d="M10.3333 18.1233C14.9009 18.1233 18.6037 14.4503 18.6037 9.91942C18.6037 5.38856 14.9009 1.71558 10.3333 1.71558C5.76575 1.71558 2.06299 5.38856 2.06299 9.91942C2.06299 14.4503 5.76575 18.1233 10.3333 18.1233Z" fill="url(#paint4_linear_20_851)"/>
<path d="M10.3333 17.8016C14.7217 17.8016 18.2792 14.2727 18.2792 9.91959C18.2792 5.56649 14.7217 2.0376 10.3333 2.0376C5.94495 2.0376 2.38745 5.56649 2.38745 9.91959C2.38745 14.2727 5.94495 17.8016 10.3333 17.8016Z" fill="url(#paint5_linear_20_851)"/>
<path d="M5.98991 13.8902L5.02106 7.72732L8.4508 9.3842L10.311 6.1001L12.1693 9.3842L15.599 7.72732L14.634 13.9001L5.98991 13.8902Z" fill="#E4BF5A"/>
<path d="M15.4692 7.90521L12.1267 9.51859L10.311 6.30566L8.49154 9.51859L5.15094 7.90521L6.07716 13.7873L14.5469 13.7952L15.4692 7.90521Z" fill="url(#paint6_linear_20_851)"/>
<path d="M6.68395 13.0598L6.0697 9.15293L8.78055 10.4638L10.3094 7.76099L11.8383 10.4638L14.551 9.15293L13.9387 13.0678L6.68395 13.0598Z" fill="url(#paint7_linear_20_851)"/>
<path d="M6.68396 13.0596L6.07745 13.7872L14.5472 13.7951L13.9387 13.0675L6.68396 13.0596Z" fill="url(#paint8_linear_20_851)"/>
<path d="M8.49152 9.51859L8.78023 10.4637L10.3091 7.76087L10.311 6.30566L8.49152 9.51859Z" fill="#E8F983"/>
<path d="M10.3113 6.30566L10.3093 7.76087L11.8382 10.4637L12.1269 9.51859L10.3113 6.30566Z" fill="url(#paint9_linear_20_851)"/>
<path d="M15.4689 7.90527L14.5504 9.15288L13.9381 13.0677L14.5466 13.7953L15.4689 7.90527Z" fill="url(#paint10_linear_20_851)"/>
<g opacity="0.9">
<path d="M14.5512 9.15283C14.5512 9.15283 14.5279 9.39998 14.4814 9.76971C14.4562 9.95359 14.433 10.1691 14.3981 10.3985C14.3651 10.6278 14.3283 10.873 14.2915 11.1182C14.2508 11.3633 14.2101 11.6065 14.1733 11.8359C14.1365 12.0652 14.0939 12.2768 14.0609 12.4607C13.9912 12.8264 13.9388 13.0677 13.9388 13.0677C13.9388 13.0677 13.9621 12.8205 14.0067 12.4508C14.0319 12.2669 14.0551 12.0514 14.09 11.822C14.1229 11.5927 14.1597 11.3475 14.1966 11.1023C14.2372 10.8572 14.2779 10.614 14.3148 10.3846C14.3535 10.1553 14.3942 9.94371 14.4271 9.75983C14.4988 9.39405 14.5512 9.15283 14.5512 9.15283Z" fill="white"/>
</g>
<path d="M5.15094 7.90527L6.06941 9.15288L8.78026 10.4638L8.49154 9.51866L5.15094 7.90527Z" fill="url(#paint11_linear_20_851)"/>
<path d="M14.8548 11.2525C14.6494 12.3835 14.2096 13.2514 13.8724 13.1882C13.5353 13.1249 13.4287 12.1541 13.636 11.0212C13.8414 9.88825 14.2813 9.02422 14.6184 9.08749C14.9556 9.15076 15.0602 10.1196 14.8548 11.2525Z" fill="url(#paint12_radial_20_851)"/>
</g>
<defs>
<linearGradient id="paint0_linear_20_851" x1="17.214" y1="3.0943" x2="3.01308" y2="17.4104" gradientUnits="userSpaceOnUse">
<stop stop-color="#FFFFA0"/>
<stop offset="0.1684" stop-color="#FDF17E"/>
<stop offset="0.236" stop-color="#F8E977"/>
<stop offset="0.344" stop-color="#EAD164"/>
<stop offset="0.4779" stop-color="#D3AC45"/>
<stop offset="0.5606" stop-color="#C3912F"/>
<stop offset="0.6963" stop-color="#99600D"/>
<stop offset="0.7444" stop-color="#894E00"/>
<stop offset="0.8271" stop-color="#8B5002"/>
<stop offset="0.8658" stop-color="#915807"/>
<stop offset="0.8953" stop-color="#9C6410"/>
<stop offset="0.92" stop-color="#AC771C"/>
<stop offset="0.9417" stop-color="#C08E2D"/>
<stop offset="0.944" stop-color="#C3912F"/>
<stop offset="0.9734" stop-color="#E0C257"/>
<stop offset="1" stop-color="#FDF17E"/>
</linearGradient>
<linearGradient id="paint1_linear_20_851" x1="3.6013" y1="3.24149" x2="16.923" y2="16.6712" gradientUnits="userSpaceOnUse">
<stop stop-color="#FFFFA0"/>
<stop offset="0.1684" stop-color="#FDF17E"/>
<stop offset="0.236" stop-color="#F8E977"/>
<stop offset="0.344" stop-color="#EAD164"/>
<stop offset="0.4779" stop-color="#D3AC45"/>
<stop offset="0.5606" stop-color="#C3912F"/>
<stop offset="0.6963" stop-color="#99600D"/>
<stop offset="0.7444" stop-color="#894E00"/>
<stop offset="0.8271" stop-color="#8B5002"/>
<stop offset="0.8658" stop-color="#915807"/>
<stop offset="0.8953" stop-color="#9C6410"/>
<stop offset="0.92" stop-color="#AC771C"/>
<stop offset="0.9417" stop-color="#C08E2D"/>
<stop offset="0.944" stop-color="#C3912F"/>
<stop offset="0.9734" stop-color="#E0C257"/>
<stop offset="1" stop-color="#FDF17E"/>
</linearGradient>
<linearGradient id="paint2_linear_20_851" x1="10.3334" y1="0.37906" x2="10.3334" y2="19.2911" gradientUnits="userSpaceOnUse">
<stop stop-color="#FFFFA0"/>
<stop offset="0.1684" stop-color="#FDF17E"/>
<stop offset="0.236" stop-color="#F8E977"/>
<stop offset="0.344" stop-color="#EAD164"/>
<stop offset="0.4779" stop-color="#D3AC45"/>
<stop offset="0.5606" stop-color="#C3912F"/>
<stop offset="0.6963" stop-color="#99600D"/>
<stop offset="0.7444" stop-color="#894E00"/>
<stop offset="0.8271" stop-color="#8B5002"/>
<stop offset="0.8658" stop-color="#915807"/>
<stop offset="0.8953" stop-color="#9C6410"/>
<stop offset="0.92" stop-color="#AC771C"/>
<stop offset="0.9417" stop-color="#C08E2D"/>
<stop offset="0.944" stop-color="#C3912F"/>
<stop offset="0.9734" stop-color="#E0C257"/>
<stop offset="1" stop-color="#FDF17E"/>
</linearGradient>
<linearGradient id="paint3_linear_20_851" x1="-0.637622" y1="9.91902" x2="18.2803" y2="9.91902" gradientUnits="userSpaceOnUse">
<stop stop-color="#BB862A"/>
<stop offset="0.0641" stop-color="#C48E24"/>
<stop offset="0.1667" stop-color="#DBA414"/>
<stop offset="0.2405" stop-color="#F0B706"/>
<stop offset="0.6784" stop-color="#FEF387"/>
<stop offset="0.8432" stop-color="#ECCB64"/>
<stop offset="1" stop-color="#BB862A"/>
</linearGradient>
<linearGradient id="paint4_linear_20_851" x1="4.70937" y1="4.34067" x2="15.9225" y2="15.6447" gradientUnits="userSpaceOnUse">
<stop stop-color="#FFFFA0"/>
<stop offset="0.1684" stop-color="#FDF17E"/>
<stop offset="0.236" stop-color="#F8E977"/>
<stop offset="0.344" stop-color="#EAD164"/>
<stop offset="0.4779" stop-color="#D3AC45"/>
<stop offset="0.5606" stop-color="#C3912F"/>
<stop offset="0.6963" stop-color="#99600D"/>
<stop offset="0.7444" stop-color="#894E00"/>
<stop offset="0.8271" stop-color="#8B5002"/>
<stop offset="0.8658" stop-color="#915807"/>
<stop offset="0.8953" stop-color="#9C6410"/>
<stop offset="0.92" stop-color="#AC771C"/>
<stop offset="0.9417" stop-color="#C08E2D"/>
<stop offset="0.944" stop-color="#C3912F"/>
<stop offset="0.9734" stop-color="#E0C257"/>
<stop offset="1" stop-color="#FDF17E"/>
</linearGradient>
<linearGradient id="paint5_linear_20_851" x1="1.11778" y1="9.91916" x2="17.0087" y2="9.91916" gradientUnits="userSpaceOnUse">
<stop stop-color="#BB862A"/>
<stop offset="0.0641" stop-color="#C48E24"/>
<stop offset="0.1667" stop-color="#DBA414"/>
<stop offset="0.2405" stop-color="#F0B706"/>
<stop offset="0.6784" stop-color="#FEF387"/>
<stop offset="0.8432" stop-color="#ECCB64"/>
<stop offset="1" stop-color="#BB862A"/>
</linearGradient>
<linearGradient id="paint6_linear_20_851" x1="4.57668" y1="9.35387" x2="18.7889" y2="11.9684" gradientUnits="userSpaceOnUse">
<stop stop-color="#AF6517"/>
<stop offset="0.257" stop-color="#E0A03B"/>
<stop offset="0.48" stop-color="#E9FF88"/>
<stop offset="0.6391" stop-color="#E0A03B"/>
<stop offset="1" stop-color="#88390B"/>
</linearGradient>
<linearGradient id="paint7_linear_20_851" x1="3.52234" y1="5.65884" x2="17.9411" y2="16.2916" gradientUnits="userSpaceOnUse">
<stop stop-color="#AF6517"/>
<stop offset="0.257" stop-color="#E0A03B"/>
<stop offset="0.48" stop-color="#E9FF88"/>
<stop offset="0.6391" stop-color="#E0A03B"/>
<stop offset="1" stop-color="#88390B"/>
</linearGradient>
<linearGradient id="paint8_linear_20_851" x1="-4.58845" y1="-4.75192" x2="9.22873" y2="11.7628" gradientUnits="userSpaceOnUse">
<stop stop-color="#AF6517"/>
<stop offset="0.257" stop-color="#E0A03B"/>
<stop offset="0.48" stop-color="#E9FF88"/>
<stop offset="0.6391" stop-color="#E0A03B"/>
<stop offset="1" stop-color="#88390B"/>
</linearGradient>
<linearGradient id="paint9_linear_20_851" x1="10.795" y1="7.61239" x2="13.801" y2="14.6128" gradientUnits="userSpaceOnUse">
<stop stop-color="#E0A03B"/>
<stop offset="1" stop-color="#88390B"/>
</linearGradient>
<linearGradient id="paint10_linear_20_851" x1="11.0912" y1="9.15195" x2="18.0116" y2="12.0337" gradientUnits="userSpaceOnUse">
<stop stop-color="#AF6517"/>
<stop offset="0.257" stop-color="#E0A03B"/>
<stop offset="0.48" stop-color="#E9FF88"/>
<stop offset="0.6391" stop-color="#E0A03B"/>
<stop offset="1" stop-color="#88390B"/>
</linearGradient>
<linearGradient id="paint11_linear_20_851" x1="3.44475" y1="7.20033" x2="8.67078" y2="9.99465" gradientUnits="userSpaceOnUse">
<stop stop-color="#AF6517"/>
<stop offset="0.257" stop-color="#E0A03B"/>
<stop offset="0.48" stop-color="#E9FF88"/>
<stop offset="0.6391" stop-color="#E0A03B"/>
<stop offset="1" stop-color="#88390B"/>
</linearGradient>
<radialGradient id="paint12_radial_20_851" cx="0" cy="0" r="1" gradientUnits="userSpaceOnUse" gradientTransform="translate(14.2445 11.1665) rotate(10.7424) scale(0.544274 1.91693)">
<stop stop-color="white"/>
<stop offset="1" stop-color="white" stop-opacity="0"/>
</radialGradient>
<clipPath id="clip0_20_851">
<rect width="20" height="20" fill="white" transform="translate(0.333374)"/>
</clipPath>
</defs>
</svg>
