<svg width="132" height="133" viewBox="0 0 132 133" fill="none" xmlns="http://www.w3.org/2000/svg">
<g clip-path="url(#clip0_51_2353)">
<path d="M66.3547 132.5C98.9941 132.5 125.454 106.041 125.454 73.4016C125.454 40.7622 98.9941 14.3027 66.3547 14.3027C33.7153 14.3027 7.25586 40.7622 7.25586 73.4016C7.25586 106.041 33.7153 132.5 66.3547 132.5Z" fill="#8A6E00"/>
<path d="M66.0005 131.438C102.158 131.438 131.47 102.127 131.47 65.9692C131.47 29.8116 102.158 0.5 66.0005 0.5C29.8428 0.5 0.53125 29.8116 0.53125 65.9692C0.53125 102.127 29.8428 131.438 66.0005 131.438Z" fill="url(#paint0_linear_51_2353)"/>
<path d="M66.0007 130.023C101.376 130.023 130.054 101.345 130.054 65.9695C130.054 30.5937 101.376 1.91602 66.0007 1.91602C30.625 1.91602 1.94727 30.5937 1.94727 65.9695C1.94727 101.345 30.625 130.023 66.0007 130.023Z" fill="url(#paint1_linear_51_2353)"/>
<path d="M66.0007 127.9C100.204 127.9 127.931 100.173 127.931 65.9694C127.931 31.7662 100.204 4.03906 66.0007 4.03906C31.7975 4.03906 4.07031 31.7662 4.07031 65.9694C4.07031 100.173 31.7975 127.9 66.0007 127.9Z" fill="url(#paint2_linear_51_2353)"/>
<path d="M66.0007 127.9C100.204 127.9 127.931 100.173 127.931 65.9694C127.931 31.7662 100.204 4.03906 66.0007 4.03906C31.7975 4.03906 4.07031 31.7662 4.07031 65.9694C4.07031 100.173 31.7975 127.9 66.0007 127.9Z" fill="url(#paint3_linear_51_2353)"/>
<path d="M66.0009 120.115C95.9045 120.115 120.146 95.8733 120.146 65.9696C120.146 36.0659 95.9045 11.8242 66.0009 11.8242C36.0972 11.8242 11.8555 36.0659 11.8555 65.9696C11.8555 95.8733 36.0972 120.115 66.0009 120.115Z" fill="url(#paint4_linear_51_2353)"/>
<path d="M66.0016 117.991C94.7321 117.991 118.023 94.6999 118.023 65.9694C118.023 37.2389 94.7321 13.9482 66.0016 13.9482C37.2711 13.9482 13.9805 37.2389 13.9805 65.9694C13.9805 94.6999 37.2711 117.991 66.0016 117.991Z" fill="url(#paint5_linear_51_2353)"/>
<path d="M37.5657 92.1745L31.2227 51.4994L53.6769 62.4349L65.8555 40.7598L78.0213 62.4349L100.476 51.4994L94.1579 92.2398L37.5657 92.1745Z" fill="#E4BF5A"/>
<path d="M99.6253 52.6742L77.7419 63.3225L65.8551 42.1172L53.9429 63.3225L32.0723 52.6742L38.1362 91.4962L93.5867 91.5484L99.6253 52.6742Z" fill="url(#paint6_linear_51_2353)"/>
<path d="M42.1094 86.6932L38.0879 60.9075L55.8356 69.5593L65.8449 51.7207L75.8541 69.5593L93.6145 60.9075L89.6058 86.7454L42.1094 86.6932Z" fill="url(#paint7_linear_51_2353)"/>
<path d="M42.1094 86.6943L38.1387 91.4965L93.5892 91.5487L89.6058 86.7465L42.1094 86.6943Z" fill="url(#paint8_linear_51_2353)"/>
<path d="M53.9434 63.3225L55.8336 69.5601L65.8428 51.7216L65.8555 42.1172L53.9434 63.3225Z" fill="#E8F983"/>
<path d="M65.8564 42.1172L65.8438 51.7216L75.853 69.5601L77.7432 63.3225L65.8564 42.1172Z" fill="url(#paint9_linear_51_2353)"/>
<path d="M99.6235 52.6738L93.6103 60.908L89.6016 86.7459L93.585 91.5481L99.6235 52.6738Z" fill="url(#paint10_linear_51_2353)"/>
<g opacity="0.9">
<path d="M93.6142 60.9082C93.6142 60.9082 93.462 62.5394 93.1576 64.9796C92.9926 66.1932 92.8404 67.6156 92.6121 69.1293C92.3964 70.6431 92.1554 72.2612 91.9143 73.8793C91.6479 75.4975 91.3815 77.1025 91.1405 78.6163C90.8994 80.13 90.6204 81.5263 90.4047 82.7399C89.948 85.154 89.6055 86.7461 89.6055 86.7461C89.6055 86.7461 89.7577 85.1149 90.0495 82.6746C90.2144 81.4611 90.3666 80.0387 90.595 78.5249C90.8106 77.0112 91.0517 75.3931 91.2927 73.7749C91.5591 72.1568 91.8255 70.5517 92.0666 69.038C92.3203 67.5243 92.5867 66.128 92.8023 64.9144C93.2717 62.5002 93.6142 60.9082 93.6142 60.9082Z" fill="white"/>
</g>
<path d="M32.0723 52.6738L38.0854 60.908L55.8331 69.5598L53.9429 63.3222L32.0723 52.6738Z" fill="url(#paint11_linear_51_2353)"/>
<path d="M95.6027 74.7667C94.258 82.231 91.3782 87.9597 89.1709 87.5421C86.9635 87.1245 86.2658 80.7173 87.6232 73.2399C88.9679 65.7626 91.8476 60.06 94.055 60.4776C96.2623 60.8952 96.9474 67.2894 95.6027 74.7667Z" fill="url(#paint12_radial_51_2353)"/>
</g>
<defs>
<linearGradient id="paint0_linear_51_2353" x1="111.048" y1="20.9224" x2="17.3183" y2="114.652" gradientUnits="userSpaceOnUse">
<stop stop-color="#FFFFA0"/>
<stop offset="0.1684" stop-color="#FDF17E"/>
<stop offset="0.236" stop-color="#F8E977"/>
<stop offset="0.344" stop-color="#EAD164"/>
<stop offset="0.4779" stop-color="#D3AC45"/>
<stop offset="0.5606" stop-color="#C3912F"/>
<stop offset="0.6963" stop-color="#99600D"/>
<stop offset="0.7444" stop-color="#894E00"/>
<stop offset="0.8271" stop-color="#8B5002"/>
<stop offset="0.8658" stop-color="#915807"/>
<stop offset="0.8953" stop-color="#9C6410"/>
<stop offset="0.92" stop-color="#AC771C"/>
<stop offset="0.9417" stop-color="#C08E2D"/>
<stop offset="0.944" stop-color="#C3912F"/>
<stop offset="0.9734" stop-color="#E0C257"/>
<stop offset="1" stop-color="#FDF17E"/>
</linearGradient>
<linearGradient id="paint1_linear_51_2353" x1="21.9264" y1="21.8951" x2="109.853" y2="109.821" gradientUnits="userSpaceOnUse">
<stop stop-color="#FFFFA0"/>
<stop offset="0.1684" stop-color="#FDF17E"/>
<stop offset="0.236" stop-color="#F8E977"/>
<stop offset="0.344" stop-color="#EAD164"/>
<stop offset="0.4779" stop-color="#D3AC45"/>
<stop offset="0.5606" stop-color="#C3912F"/>
<stop offset="0.6963" stop-color="#99600D"/>
<stop offset="0.7444" stop-color="#894E00"/>
<stop offset="0.8271" stop-color="#8B5002"/>
<stop offset="0.8658" stop-color="#915807"/>
<stop offset="0.8953" stop-color="#9C6410"/>
<stop offset="0.92" stop-color="#AC771C"/>
<stop offset="0.9417" stop-color="#C08E2D"/>
<stop offset="0.944" stop-color="#C3912F"/>
<stop offset="0.9734" stop-color="#E0C257"/>
<stop offset="1" stop-color="#FDF17E"/>
</linearGradient>
<linearGradient id="paint2_linear_51_2353" x1="66.0008" y1="3.00238" x2="66.0008" y2="127.822" gradientUnits="userSpaceOnUse">
<stop stop-color="#FFFFA0"/>
<stop offset="0.1684" stop-color="#FDF17E"/>
<stop offset="0.236" stop-color="#F8E977"/>
<stop offset="0.344" stop-color="#EAD164"/>
<stop offset="0.4779" stop-color="#D3AC45"/>
<stop offset="0.5606" stop-color="#C3912F"/>
<stop offset="0.6963" stop-color="#99600D"/>
<stop offset="0.7444" stop-color="#894E00"/>
<stop offset="0.8271" stop-color="#8B5002"/>
<stop offset="0.8658" stop-color="#915807"/>
<stop offset="0.8953" stop-color="#9C6410"/>
<stop offset="0.92" stop-color="#AC771C"/>
<stop offset="0.9417" stop-color="#C08E2D"/>
<stop offset="0.944" stop-color="#C3912F"/>
<stop offset="0.9734" stop-color="#E0C257"/>
<stop offset="1" stop-color="#FDF17E"/>
</linearGradient>
<linearGradient id="paint3_linear_51_2353" x1="-5.82551" y1="65.9661" x2="118.029" y2="65.9661" gradientUnits="userSpaceOnUse">
<stop stop-color="#BB862A"/>
<stop offset="0.0641" stop-color="#C48E24"/>
<stop offset="0.1667" stop-color="#DBA414"/>
<stop offset="0.2405" stop-color="#F0B706"/>
<stop offset="0.6784" stop-color="#FEF387"/>
<stop offset="0.8432" stop-color="#ECCB64"/>
<stop offset="1" stop-color="#BB862A"/>
</linearGradient>
<linearGradient id="paint4_linear_51_2353" x1="29.1811" y1="29.1499" x2="103.19" y2="103.159" gradientUnits="userSpaceOnUse">
<stop stop-color="#FFFFA0"/>
<stop offset="0.1684" stop-color="#FDF17E"/>
<stop offset="0.236" stop-color="#F8E977"/>
<stop offset="0.344" stop-color="#EAD164"/>
<stop offset="0.4779" stop-color="#D3AC45"/>
<stop offset="0.5606" stop-color="#C3912F"/>
<stop offset="0.6963" stop-color="#99600D"/>
<stop offset="0.7444" stop-color="#894E00"/>
<stop offset="0.8271" stop-color="#8B5002"/>
<stop offset="0.8658" stop-color="#915807"/>
<stop offset="0.8953" stop-color="#9C6410"/>
<stop offset="0.92" stop-color="#AC771C"/>
<stop offset="0.9417" stop-color="#C08E2D"/>
<stop offset="0.944" stop-color="#C3912F"/>
<stop offset="0.9734" stop-color="#E0C257"/>
<stop offset="1" stop-color="#FDF17E"/>
</linearGradient>
<linearGradient id="paint5_linear_51_2353" x1="5.66804" y1="65.9666" x2="109.705" y2="65.9666" gradientUnits="userSpaceOnUse">
<stop stop-color="#BB862A"/>
<stop offset="0.0641" stop-color="#C48E24"/>
<stop offset="0.1667" stop-color="#DBA414"/>
<stop offset="0.2405" stop-color="#F0B706"/>
<stop offset="0.6784" stop-color="#FEF387"/>
<stop offset="0.8432" stop-color="#ECCB64"/>
<stop offset="1" stop-color="#BB862A"/>
</linearGradient>
<linearGradient id="paint6_linear_51_2353" x1="28.3126" y1="62.2354" x2="121.408" y2="79.224" gradientUnits="userSpaceOnUse">
<stop stop-color="#AF6517"/>
<stop offset="0.257" stop-color="#E0A03B"/>
<stop offset="0.48" stop-color="#E9FF88"/>
<stop offset="0.6391" stop-color="#E0A03B"/>
<stop offset="1" stop-color="#88390B"/>
</linearGradient>
<linearGradient id="paint7_linear_51_2353" x1="21.4105" y1="37.8466" x2="116.345" y2="107.29" gradientUnits="userSpaceOnUse">
<stop stop-color="#AF6517"/>
<stop offset="0.257" stop-color="#E0A03B"/>
<stop offset="0.48" stop-color="#E9FF88"/>
<stop offset="0.6391" stop-color="#E0A03B"/>
<stop offset="1" stop-color="#88390B"/>
</linearGradient>
<linearGradient id="paint8_linear_51_2353" x1="-31.6902" y1="-30.8615" x2="59.6303" y2="77.4097" gradientUnits="userSpaceOnUse">
<stop stop-color="#AF6517"/>
<stop offset="0.257" stop-color="#E0A03B"/>
<stop offset="0.48" stop-color="#E9FF88"/>
<stop offset="0.6391" stop-color="#E0A03B"/>
<stop offset="1" stop-color="#88390B"/>
</linearGradient>
<linearGradient id="paint9_linear_51_2353" x1="69.0234" y1="50.7416" x2="88.9735" y2="96.8274" gradientUnits="userSpaceOnUse">
<stop stop-color="#E0A03B"/>
<stop offset="1" stop-color="#88390B"/>
</linearGradient>
<linearGradient id="paint10_linear_51_2353" x1="70.9628" y1="60.9019" x2="116.378" y2="79.6612" gradientUnits="userSpaceOnUse">
<stop stop-color="#AF6517"/>
<stop offset="0.257" stop-color="#E0A03B"/>
<stop offset="0.48" stop-color="#E9FF88"/>
<stop offset="0.6391" stop-color="#E0A03B"/>
<stop offset="1" stop-color="#88390B"/>
</linearGradient>
<linearGradient id="paint11_linear_51_2353" x1="20.902" y1="48.0212" x2="55.2387" y2="66.2332" gradientUnits="userSpaceOnUse">
<stop stop-color="#AF6517"/>
<stop offset="0.257" stop-color="#E0A03B"/>
<stop offset="0.48" stop-color="#E9FF88"/>
<stop offset="0.6391" stop-color="#E0A03B"/>
<stop offset="1" stop-color="#88390B"/>
</linearGradient>
<radialGradient id="paint12_radial_51_2353" cx="0" cy="0" r="1" gradientUnits="userSpaceOnUse" gradientTransform="translate(91.6068 74.199) rotate(10.8274) scale(3.56433 12.6481)">
<stop stop-color="white"/>
<stop offset="1" stop-color="white" stop-opacity="0"/>
</radialGradient>
<clipPath id="clip0_51_2353">
<rect width="130.938" height="132" fill="white" transform="translate(0.53125 0.5)"/>
</clipPath>
</defs>
</svg>
