<svg width="80" height="80" viewBox="0 0 80 80" fill="none" xmlns="http://www.w3.org/2000/svg">
<circle cx="40" cy="40" r="40" fill="#9259FF"/>
<g clip-path="url(#clip0_20_664)">
<path fill-rule="evenodd" clip-rule="evenodd" d="M38.8818 40.9725H51.93V42.2344C51.93 46.0888 50.4423 49.714 47.7422 52.4395C45.042 55.165 41.4503 56.6666 37.6317 56.6666C33.8131 56.6666 30.2214 55.165 27.5213 52.4395C24.8211 49.714 23.3334 46.0888 23.3334 42.2344C23.3334 38.38 24.8211 34.7547 27.5213 32.0293C30.2214 29.3038 33.8131 27.8022 37.6317 27.8022H38.8818V40.9725ZM49.364 43.4962H36.3816V30.3922C30.4618 31.0243 25.8337 36.0946 25.8337 42.2344C25.8337 48.8005 31.1265 54.1429 37.6317 54.1429C43.7146 54.1429 48.7378 49.4714 49.364 43.4962ZM41.1182 23.3333H42.3684C46.187 23.3333 49.7786 24.8349 52.4788 27.5603C55.179 30.2858 56.6667 33.9111 56.6667 37.7655V39.0273H41.1182V23.3333ZM43.6185 25.9233V36.5036H54.1007C53.5179 30.9433 49.1272 26.5115 43.6185 25.9233Z" fill="white"/>
</g>
<defs>
<clipPath id="clip0_20_664">
<rect width="40" height="40" fill="white" transform="translate(20 20)"/>
</clipPath>
</defs>
</svg>
