<svg width="81" height="80" viewBox="0 0 81 80" fill="none" xmlns="http://www.w3.org/2000/svg">
<circle cx="40.98" cy="40" r="40" fill="#4CCBA3"/>
<g clip-path="url(#clip0_20_674)">
<path d="M40.9806 56.6654C50.1854 56.6654 57.6473 49.2034 57.6473 39.9987C57.6473 30.794 50.1854 23.332 40.9806 23.332C31.7759 23.332 24.314 30.794 24.314 39.9987C24.314 49.2034 31.7759 56.6654 40.9806 56.6654Z" stroke="white" stroke-width="1.5" stroke-linecap="round" stroke-linejoin="round"/>
<path d="M45.6466 35.0006C45.3447 34.4769 44.9061 34.0451 44.3776 33.7515C43.8492 33.4579 43.2508 33.3136 42.6466 33.3339H39.3133C38.4293 33.3339 37.5814 33.6851 36.9563 34.3102C36.3312 34.9354 35.98 35.7832 35.98 36.6673C35.98 37.5513 36.3312 38.3992 36.9563 39.0243C37.5814 39.6494 38.4293 40.0006 39.3133 40.0006H42.6466C43.5307 40.0006 44.3785 40.3518 45.0037 40.9769C45.6288 41.602 45.98 42.4499 45.98 43.3339C45.98 44.218 45.6288 45.0658 45.0037 45.6909C44.3785 46.3161 43.5307 46.6673 42.6466 46.6673H39.3133C38.7091 46.6876 38.1108 46.5432 37.5823 46.2497C37.0539 45.9561 36.6152 45.5243 36.3133 45.0006" stroke="white" stroke-width="1.5" stroke-linecap="round" stroke-linejoin="round"/>
<path d="M40.98 30V33.3333M40.98 46.6667V50" stroke="white" stroke-width="1.5" stroke-linecap="round" stroke-linejoin="round"/>
</g>
<defs>
<clipPath id="clip0_20_674">
<rect width="40" height="40" fill="white" transform="translate(20.98 20)"/>
</clipPath>
</defs>
</svg>
