<svg width="21" height="21" viewBox="0 0 21 21" fill="none" xmlns="http://www.w3.org/2000/svg">
<path d="M10.1593 2.30182C12.842 2.30182 13.1596 2.31182 14.2194 2.35991C14.8566 2.36767 15.4877 2.48412 16.0854 2.70418C16.5188 2.87053 16.9124 3.12535 17.2408 3.45224C17.5693 3.77913 17.8254 4.17085 17.9925 4.60219C18.2136 5.19697 18.3306 5.82509 18.3384 6.45924C18.3863 7.51395 18.3968 7.83013 18.3968 10.5C18.3968 13.1699 18.3867 13.486 18.3384 14.5408C18.3306 15.1749 18.2136 15.803 17.9925 16.3978C17.8254 16.8291 17.5693 17.2209 17.2408 17.5478C16.9124 17.8747 16.5188 18.1295 16.0854 18.2958C15.4877 18.5159 14.8566 18.6323 14.2194 18.6401C13.1601 18.6877 12.8424 18.6982 10.1593 18.6982C7.4761 18.6982 7.15841 18.6882 6.09912 18.6401C5.46193 18.6323 4.83079 18.5159 4.23315 18.2958C3.79975 18.1295 3.40615 17.8747 3.07769 17.5478C2.74922 17.2209 2.49318 16.8291 2.32604 16.3978C2.10491 15.803 1.98791 15.1749 1.98011 14.5408C1.93227 13.486 1.92174 13.1699 1.92174 10.5C1.92174 7.83013 1.93179 7.51395 1.98011 6.45924C1.98791 5.82509 2.10491 5.19697 2.32604 4.60219C2.49318 4.17085 2.74922 3.77913 3.07769 3.45224C3.40615 3.12535 3.79975 2.87053 4.23315 2.70418C4.83079 2.48412 5.46193 2.36767 6.09912 2.35991C7.15889 2.31229 7.47658 2.30182 10.1593 2.30182V2.30182ZM10.1593 0.5C7.43209 0.5 7.08856 0.511428 6.01682 0.559997C5.1829 0.576505 4.35783 0.733646 3.57671 1.02474C2.90664 1.27599 2.29972 1.66974 1.7983 2.17849C1.28664 2.67769 0.890674 3.28206 0.638054 3.94936C0.345566 4.72675 0.187671 5.54788 0.171084 6.37782C0.123238 7.44348 0.111755 7.78537 0.111755 10.4995C0.111755 13.2137 0.123238 13.5556 0.17204 14.6222C0.188627 15.4521 0.346523 16.2733 0.639011 17.0506C0.891351 17.7179 1.28699 18.3222 1.7983 18.8215C2.29999 19.3304 2.90725 19.7241 3.57767 19.9753C4.35879 20.2664 5.18386 20.4235 6.01778 20.44C7.08951 20.4876 7.43161 20.5 10.1602 20.5C12.8888 20.5 13.2309 20.4886 14.3027 20.44C15.1366 20.4235 15.9617 20.2664 16.7428 19.9753C17.41 19.7179 18.0159 19.3247 18.5218 18.8209C19.0276 18.3172 19.4223 17.7139 19.6805 17.0497C19.973 16.2723 20.1309 15.4512 20.1475 14.6212C20.1953 13.5556 20.2068 13.2137 20.2068 10.4995C20.2068 7.78537 20.1953 7.44348 20.1465 6.37686C20.1299 5.54693 19.972 4.7258 19.6795 3.94841C19.4272 3.28119 19.0315 2.67684 18.5202 2.17754C18.0185 1.66867 17.4113 1.27492 16.7409 1.02378C15.9597 0.732694 15.1347 0.575553 14.3008 0.559045C13.23 0.511428 12.8864 0.5 10.1593 0.5Z" fill="#F0F0F0"/>
<path d="M10.1575 5.36487C9.13702 5.36487 8.13946 5.66603 7.29096 6.23027C6.44246 6.79451 5.78114 7.59649 5.39062 8.53479C5.0001 9.47308 4.89792 10.5056 5.09701 11.5016C5.29609 12.4977 5.7875 13.4127 6.50909 14.1309C7.23068 14.849 8.15004 15.3381 9.15091 15.5362C10.1518 15.7343 11.1892 15.6326 12.132 15.244C13.0748 14.8553 13.8806 14.1972 14.4476 13.3527C15.0145 12.5083 15.3171 11.5155 15.3171 10.4999C15.3171 9.13798 14.7735 7.83187 13.8059 6.86887C12.8383 5.90588 11.5259 5.36487 10.1575 5.36487ZM10.1575 13.833C9.4951 13.833 8.84757 13.6375 8.2968 13.2713C7.74603 12.905 7.31676 12.3845 7.06327 11.7754C6.80978 11.1664 6.74346 10.4962 6.87269 9.84959C7.00191 9.20302 7.32089 8.6091 7.78928 8.14295C8.25767 7.6768 8.85444 7.35934 9.50411 7.23073C10.1538 7.10212 10.8272 7.16813 11.4392 7.42041C12.0512 7.67269 12.5742 8.09991 12.9422 8.64805C13.3102 9.19619 13.5067 9.84062 13.5067 10.4999C13.5067 11.3839 13.1538 12.2317 12.5257 12.8568C11.8976 13.4819 11.0458 13.833 10.1575 13.833V13.833Z" fill="#F0F0F0"/>
<path d="M15.5225 6.36156C16.1884 6.36156 16.7282 5.82432 16.7282 5.16161C16.7282 4.4989 16.1884 3.96167 15.5225 3.96167C14.8566 3.96167 14.3168 4.4989 14.3168 5.16161C14.3168 5.82432 14.8566 6.36156 15.5225 6.36156Z" fill="#F0F0F0"/>
</svg>
