<svg width="19" height="19" viewBox="0 0 19 19" fill="none" xmlns="http://www.w3.org/2000/svg">
<path d="M15.3333 8.33333H10.6667V3.66667C10.6667 3.35725 10.5437 3.0605 10.325 2.84171C10.1062 2.62292 9.80942 2.5 9.5 2.5C9.19058 2.5 8.89383 2.62292 8.67504 2.84171C8.45625 3.0605 8.33333 3.35725 8.33333 3.66667V8.33333H3.66667C3.35725 8.33333 3.0605 8.45625 2.84171 8.67504C2.62292 8.89383 2.5 9.19058 2.5 9.5C2.5 9.80942 2.62292 10.1062 2.84171 10.325C3.0605 10.5437 3.35725 10.6667 3.66667 10.6667H8.33333V15.3333C8.33333 15.6428 8.45625 15.9395 8.67504 16.1583C8.89383 16.3771 9.19058 16.5 9.5 16.5C9.80942 16.5 10.1062 16.3771 10.325 16.1583C10.5437 15.9395 10.6667 15.6428 10.6667 15.3333V10.6667H15.3333C15.6428 10.6667 15.9395 10.5437 16.1583 10.325C16.3771 10.1062 16.5 9.80942 16.5 9.5C16.5 9.19058 16.3771 8.89383 16.1583 8.67504C15.9395 8.45625 15.6428 8.33333 15.3333 8.33333Z" fill="white"/>
</svg>
