<svg width="22" height="22" viewBox="0 0 22 22" fill="none" xmlns="http://www.w3.org/2000/svg">
<g clip-path="url(#clip0_51_3363)">
<path fill-rule="evenodd" clip-rule="evenodd" d="M18.8537 4.1851C18.9219 4.11692 18.976 4.03597 19.0129 3.94689C19.0498 3.8578 19.0688 3.76232 19.0688 3.6659C19.0688 3.56948 19.0498 3.474 19.0129 3.38491C18.976 3.29583 18.9219 3.21488 18.8537 3.1467C18.7855 3.07852 18.7046 3.02443 18.6155 2.98753C18.5264 2.95063 18.4309 2.93164 18.3345 2.93164C18.2381 2.93164 18.1426 2.95063 18.0535 2.98753C17.9644 3.02443 17.8835 3.07852 17.8153 3.1467L11.0012 9.9623L4.18705 3.1467C4.11887 3.07852 4.03793 3.02443 3.94884 2.98753C3.85976 2.95063 3.76428 2.93164 3.66785 2.93164C3.57143 2.93164 3.47595 2.95063 3.38686 2.98753C3.29778 3.02443 3.21684 3.07852 3.14865 3.1467C3.08047 3.21488 3.02639 3.29583 2.98949 3.38491C2.95259 3.474 2.93359 3.56948 2.93359 3.6659C2.93359 3.76232 2.95259 3.8578 2.98949 3.94689C3.02639 4.03597 3.08047 4.11692 3.14865 4.1851L9.96425 10.9992L3.14865 17.8134C3.01095 17.9511 2.93359 18.1378 2.93359 18.3326C2.93359 18.5273 3.01095 18.7141 3.14865 18.8518C3.28635 18.9895 3.47312 19.0668 3.66785 19.0668C3.86259 19.0668 4.04935 18.9895 4.18705 18.8518L11.0012 12.0362L17.8153 18.8518C17.953 18.9895 18.1398 19.0668 18.3345 19.0668C18.5293 19.0668 18.716 18.9895 18.8537 18.8518C18.9914 18.7141 19.0688 18.5273 19.0688 18.3326C19.0688 18.1378 18.9914 17.9511 18.8537 17.8134L12.0381 10.9992L18.8537 4.1851Z" fill="#6A6A6A"/>
</g>
<defs>
<clipPath id="clip0_51_3363">
<rect width="22" height="22" fill="white"/>
</clipPath>
</defs>
</svg>
