<svg width="20" height="21" viewBox="0 0 20 21" fill="none" xmlns="http://www.w3.org/2000/svg">
<path d="M20 19.3232L14.7886 14.1119C16.1423 12.4562 16.8079 10.3436 16.6477 8.21102C16.4874 6.07843 15.5137 4.089 13.9278 2.65423C12.3418 1.21947 10.2651 0.449152 8.1272 0.502607C5.98926 0.556062 3.95365 1.4292 2.44143 2.94143C0.929204 4.45365 0.0560622 6.48926 0.00260702 8.6272C-0.0508482 10.7651 0.719473 12.8418 2.15423 14.4278C3.589 16.0137 5.57843 16.9874 7.71102 17.1477C9.84362 17.3079 11.9562 16.6423 13.6119 15.2886L18.8232 20.5L20 19.3232ZM8.34887 15.5067C7.03209 15.5067 5.74487 15.1162 4.65 14.3846C3.55514 13.6531 2.70179 12.6132 2.19788 11.3967C1.69397 10.1801 1.56212 8.84149 1.81901 7.55C2.0759 6.25852 2.71 5.07221 3.64111 4.14111C4.57221 3.21 5.75852 2.5759 7.05 2.31901C8.34149 2.06212 9.68015 2.19397 10.8967 2.69788C12.1132 3.20179 13.1531 4.05514 13.8846 5.15C14.6162 6.24487 15.0067 7.53209 15.0067 8.84887C15.0047 10.614 14.3026 12.3063 13.0544 13.5544C11.8063 14.8026 10.114 15.5047 8.34887 15.5067Z" fill="#1F1F26" fill-opacity="0.7"/>
</svg>
