<svg width="20" height="20" viewBox="0 0 20 20" fill="none" xmlns="http://www.w3.org/2000/svg">
<g clip-path="url(#clip0_20_825)">
<path d="M17.0712 17.0925C20.9764 13.2163 20.9764 6.93165 17.0712 3.05541C13.1659 -0.820839 6.83436 -0.820839 2.92915 3.05541C-0.976051 6.93165 -0.976051 13.2163 2.92915 17.0925C6.83436 20.9688 13.1659 20.9688 17.0712 17.0925Z" fill="#7F7F7F"/>
<path d="M17.0709 16.9443C20.9761 13.0681 20.9761 6.78346 17.0709 2.90721C13.1657 -0.969033 6.83411 -0.969032 2.92891 2.90721C-0.976295 6.78346 -0.976295 13.0681 2.92891 16.9443C6.83411 20.8206 13.1657 20.8206 17.0709 16.9443Z" fill="white"/>
<path d="M10 19.911C15.5228 19.911 20 15.4671 20 9.98518C20 4.50328 15.5228 0.0593262 10 0.0593262C4.47715 0.0593262 0 4.50328 0 9.98518C0 15.4671 4.47715 19.911 10 19.911Z" fill="url(#paint0_linear_20_825)"/>
<path d="M10 19.6333C15.3683 19.6333 19.7202 15.3137 19.7202 9.98522C19.7202 4.65674 15.3683 0.337158 10 0.337158C4.63176 0.337158 0.279907 4.65674 0.279907 9.98522C0.279907 15.3137 4.63176 19.6333 10 19.6333Z" fill="url(#paint1_linear_20_825)"/>
<path d="M10 18.4147C14.6902 18.4147 18.4923 14.6408 18.4923 9.98541C18.4923 5.33006 14.6902 1.55615 10 1.55615C5.30991 1.55615 1.50781 5.33006 1.50781 9.98541C1.50781 14.6408 5.30991 18.4147 10 18.4147Z" fill="url(#paint2_linear_20_825)"/>
<path d="M8.88591 8.66176L6.41492 9.02236L8.20255 10.7734L7.78086 13.2456L9.99095 12.078L12.201 13.2456L11.7786 10.7734L13.5662 9.02236L11.096 8.66176L9.99095 6.41235L8.88591 8.66176Z" fill="url(#paint3_linear_20_825)"/>
<path d="M8.4346 15.7059C8.20782 15.486 8.04628 15.1653 8.06903 14.8868C8.37165 14.8702 8.74252 15.0223 8.9291 15.2037C9.12629 15.395 9.24537 15.6584 9.21958 15.9084C8.99963 15.6095 8.72205 15.3618 8.39819 15.1796C8.47176 15.2293 8.54381 15.2805 8.61131 15.3385C8.82747 15.5222 9.00494 15.739 9.15056 15.9776C8.94806 15.9934 8.61511 15.8813 8.4346 15.7059ZM7.61928 15.4552C7.54495 15.1955 7.43498 14.9493 7.28101 14.7227C7.23247 14.6519 7.17862 14.5857 7.12326 14.5209C7.37885 14.7731 7.57301 15.0743 7.70195 15.4085C7.79068 15.1827 7.74745 14.9064 7.61245 14.6783C7.48503 14.4622 7.17863 14.2266 6.89194 14.1649C6.79865 14.4193 6.86691 14.7596 7.02163 15.0216C7.14525 15.2308 7.42739 15.4198 7.61928 15.4552ZM5.99243 13.1275C5.83316 13.336 5.79903 13.6687 5.86653 13.9541C5.92038 14.1814 6.12591 14.4359 6.29277 14.5232C6.29884 14.2627 6.2685 14.0045 6.19114 13.7516C6.16687 13.6725 6.13577 13.5965 6.10316 13.5204C6.26622 13.8261 6.35951 14.1581 6.38151 14.5029C6.52864 14.3192 6.56808 14.0527 6.50892 13.8035C6.45356 13.5694 6.23892 13.2645 5.99243 13.1275ZM5.7065 12.8316C5.69512 12.599 5.54419 12.273 5.3341 12.1006C5.14677 12.2708 5.05652 12.5809 5.07017 12.8632C5.08154 13.0883 5.23247 13.3646 5.37582 13.476C5.42663 13.2299 5.44332 12.9799 5.41374 12.727C5.40464 12.6479 5.38871 12.5704 5.37051 12.4929C5.47214 12.8105 5.50248 13.1418 5.4638 13.473C5.6352 13.324 5.71863 13.0778 5.7065 12.8316ZM4.77059 12.2233C4.95944 12.1134 5.08382 11.8959 5.11719 11.6602C5.14829 11.4382 5.06562 11.1032 4.898 10.9014C4.69019 11.0286 4.5476 11.3057 4.50968 11.5752C4.47935 11.7905 4.57187 12.0788 4.68716 12.2098C4.78045 11.9862 4.84112 11.7521 4.85932 11.5082C4.86539 11.4321 4.86387 11.3554 4.8616 11.2793C4.89952 11.5985 4.86767 11.9177 4.77059 12.2233ZM4.898 10.537C4.96778 10.333 4.94882 10.001 4.82747 9.78122C4.60752 9.86478 4.42398 10.1012 4.33979 10.3496C4.27229 10.5476 4.30794 10.8367 4.39364 10.9805C4.52182 10.7855 4.62117 10.5754 4.68261 10.3473C4.70157 10.2766 4.71446 10.2035 4.72584 10.1313C4.7046 10.4392 4.61738 10.735 4.471 11.0068C4.6682 10.9375 4.82443 10.7531 4.898 10.537ZM4.25561 9.71497C4.42019 9.56215 4.56126 9.38976 4.67123 9.19101C4.70536 9.12928 4.73418 9.06454 4.76148 8.99905C4.67047 9.28135 4.52106 9.53731 4.32159 9.75713C4.52258 9.7368 4.71143 9.6013 4.82974 9.4161C4.94199 9.24145 5.00115 8.92828 4.9382 8.69566C4.71446 8.72352 4.48769 8.90193 4.35193 9.11423C4.24347 9.28361 4.20934 9.56064 4.25561 9.71497ZM4.46569 8.60608C4.65682 8.63995 4.86615 8.56392 5.02466 8.42465C5.17407 8.29291 5.31211 8.02039 5.3159 7.78927C5.10202 7.75615 4.84643 7.86154 4.6644 8.02189C4.51954 8.14912 4.41488 8.39604 4.4164 8.55037C4.60828 8.4525 4.78424 8.33055 4.9382 8.17622C4.98598 8.12804 5.02997 8.0761 5.07169 8.0234C4.91393 8.25828 4.70764 8.45476 4.46569 8.60608ZM5.12553 7.04173C4.96626 7.13583 4.82368 7.34888 4.79713 7.49417C4.99508 7.43696 5.18242 7.35264 5.35534 7.2352C5.40919 7.19832 5.45925 7.15766 5.50855 7.11551C5.31666 7.30898 5.08761 7.45728 4.83354 7.5559C5.00646 7.6214 5.21731 7.58752 5.39099 7.48438C5.55557 7.38727 5.7338 7.1554 5.77931 6.93935C5.58439 6.87009 5.325 6.92354 5.12553 7.04173ZM6.21086 6.19783C6.03035 6.11803 5.77931 6.14889 5.5806 6.24676C5.42208 6.3243 5.26964 6.51627 5.23399 6.65253C5.42663 6.61263 5.61169 6.54713 5.78462 6.44776C5.83847 6.41689 5.88928 6.38151 5.93934 6.34538C5.74214 6.51551 5.5131 6.63897 5.26357 6.71426C5.4236 6.78954 5.6261 6.77298 5.79979 6.68791C5.96437 6.60736 6.1517 6.40033 6.21086 6.19783ZM8.03414 16.6175C8.12136 16.6017 8.20858 16.5844 8.29429 16.5588C8.56732 16.4782 8.81685 16.351 9.04741 16.1899C8.86918 16.0905 8.51727 16.0567 8.28063 16.144C7.98409 16.2539 7.70574 16.4843 7.61473 16.753C7.88625 16.8946 8.28822 16.9066 8.53319 16.8163C8.79182 16.7207 9.00722 16.5257 9.08382 16.2825C8.76073 16.4685 8.40654 16.5829 8.03414 16.6175ZM6.2776 15.73C6.3633 15.736 6.44901 15.7397 6.53471 15.736C6.81002 15.7247 7.07472 15.666 7.32955 15.5711C7.18621 15.4386 6.86539 15.3264 6.62345 15.352C6.31932 15.3844 6.00305 15.532 5.85212 15.7578C6.07206 15.9505 6.44522 16.0544 6.69626 16.0273C6.96171 15.9995 7.21048 15.87 7.34093 15.6645C6.99357 15.7601 6.63482 15.7842 6.2776 15.73ZM4.90862 14.5044C4.9875 14.5292 5.06713 14.5526 5.14905 14.5684C5.40995 14.6203 5.67161 14.6241 5.93251 14.5932C5.82861 14.4366 5.55329 14.2582 5.31969 14.2281C5.02694 14.1897 4.69626 14.2567 4.50286 14.4344C4.66516 14.6647 4.99129 14.8469 5.23247 14.8785C5.48807 14.9124 5.75125 14.8469 5.92114 14.6835C5.57377 14.6948 5.23096 14.6361 4.90862 14.5044ZM5.00343 13.5822C4.68337 13.4828 4.38985 13.3209 4.13881 13.1004C4.20327 13.1478 4.26774 13.1937 4.33676 13.2344C4.55746 13.3639 4.79486 13.4504 5.04211 13.5039C4.99736 13.3285 4.80396 13.08 4.60145 12.9784C4.34738 12.8512 4.02504 12.8075 3.7922 12.9084C3.86653 13.1689 4.10544 13.4376 4.31476 13.543C4.53623 13.6537 4.79713 13.6778 5.00343 13.5822ZM4.36937 12.3408C4.07813 12.2015 3.82254 12.0058 3.61473 11.7596C3.66933 11.8138 3.72394 11.8673 3.78386 11.9154C3.97574 12.0698 4.18886 12.1857 4.41715 12.2715C4.39971 12.0984 4.25106 11.8341 4.07282 11.7084C3.84908 11.5511 3.54798 11.4645 3.31211 11.5277C3.34548 11.7867 3.53433 12.0765 3.71863 12.206C3.91431 12.343 4.15853 12.4025 4.36937 12.3408ZM3.95147 11.0482C3.71484 10.848 3.52447 10.6048 3.39175 10.3255C3.42891 10.3887 3.46759 10.452 3.51158 10.5107C3.65265 10.7004 3.82254 10.86 4.01366 10.9948C4.04021 10.8291 3.96664 10.5476 3.83088 10.388C3.66099 10.1877 3.40236 10.0342 3.16725 10.0364C3.13464 10.2849 3.2393 10.6003 3.37961 10.7651C3.52751 10.9398 3.74063 11.0542 3.95147 11.0482ZM3.82254 9.68335C3.63824 9.45073 3.50551 9.18574 3.43346 8.89817C3.45621 8.96517 3.48048 9.03142 3.51082 9.09541C3.60714 9.30017 3.73684 9.48235 3.8908 9.64496C3.94692 9.4944 3.93175 9.2151 3.83467 9.0397C3.71257 8.81912 3.49869 8.6264 3.27722 8.58424C3.1991 8.81235 3.23778 9.12853 3.33866 9.30996C3.44408 9.50192 3.62307 9.64948 3.82254 9.68335ZM4.03566 8.38626C3.8908 8.14159 3.79979 7.87284 3.76869 7.59053C3.78158 7.65678 3.79599 7.72303 3.81647 7.78777C3.88094 7.99479 3.98029 8.1845 4.10544 8.35915C4.17825 8.22365 4.20024 7.9564 4.13122 7.77723C4.04476 7.55214 3.86653 7.34135 3.66175 7.27284C3.55784 7.47911 3.55329 7.78476 3.62459 7.96995C3.70043 8.16568 3.8506 8.32829 4.03566 8.38626ZM4.43687 7.29392C4.3542 7.03495 4.3269 6.76545 4.35875 6.49519C4.35648 6.55993 4.35572 6.62467 4.36103 6.68866C4.37696 6.89568 4.42929 7.09292 4.50817 7.28263C4.60525 7.17121 4.68337 6.9273 4.65682 6.74512C4.62421 6.51702 4.50362 6.28289 4.3269 6.17524C4.18583 6.34613 4.11605 6.62919 4.1426 6.81739C4.17142 7.01689 4.27684 7.20133 4.43687 7.29392ZM5.06486 5.65505C5.04969 5.71452 5.03528 5.77474 5.02694 5.83648C4.99888 6.03221 5.00646 6.22719 5.04135 6.41991C5.15511 6.33634 5.27798 6.12405 5.29087 5.9494C5.30756 5.73033 5.24309 5.48717 5.10126 5.35091C4.93441 5.48115 4.81078 5.73183 4.79713 5.91251C4.78272 6.10372 4.84264 6.2972 4.97309 6.41614C4.94958 6.15793 4.97916 5.90046 5.06486 5.65505ZM5.97953 5.50072C6.01594 5.4548 6.04779 5.40587 6.07889 5.35618C5.96664 5.5745 5.8104 5.7627 5.61852 5.91552C5.78538 5.92531 5.95678 5.84024 6.07889 5.70473C6.19341 5.57751 6.28443 5.32983 6.26471 5.13184C6.07813 5.12507 5.86956 5.24025 5.73077 5.39533C5.62004 5.51879 5.55481 5.74012 5.5715 5.87186C5.72546 5.76947 5.86349 5.64752 5.97953 5.50072ZM13.9651 14.5413C14.1972 14.3244 14.4126 14.0911 14.6098 13.8426C14.8062 13.5935 14.9814 13.3292 15.1354 13.0529C15.4441 12.4996 15.6504 11.8951 15.774 11.2778C15.8354 10.9684 15.8764 10.6552 15.8938 10.3413C15.9105 10.0266 15.9052 9.71121 15.8771 9.39804C15.8491 9.08487 15.7952 8.7732 15.7201 8.46831C15.6443 8.16342 15.5457 7.86305 15.4221 7.57397C15.1763 6.9943 14.8388 6.45454 14.4285 5.97725C14.8343 6.45905 15.1657 7.00108 15.4054 7.5815C15.526 7.87133 15.6208 8.17095 15.6936 8.47584C15.7657 8.78073 15.8165 9.09014 15.8407 9.40255C15.8658 9.71422 15.868 10.0281 15.8483 10.3406C15.8278 10.653 15.7839 10.9631 15.7201 11.2688C15.5912 11.8801 15.3811 12.477 15.0709 13.0198C14.9162 13.2916 14.7402 13.5506 14.5446 13.7945C14.3481 14.0376 14.1327 14.2657 13.9022 14.4773C13.6701 14.6873 13.4244 14.8815 13.165 15.0569C12.9048 15.2308 12.6341 15.3897 12.3519 15.5252C12.2116 15.5944 12.0675 15.6562 11.9227 15.7149C11.777 15.7714 11.6299 15.8263 11.4805 15.8722C11.4062 15.8971 11.3303 15.9166 11.2552 15.9392C11.1786 15.9603 11.102 15.9829 11.0262 16.0062C10.8737 16.0529 10.7228 16.1056 10.5741 16.1651C10.3747 16.2449 10.1798 16.3382 9.9947 16.4496C9.80964 16.3382 9.61397 16.2441 9.41526 16.1651C9.2666 16.1056 9.11567 16.0537 8.96323 16.0062C8.88738 15.9829 8.81078 15.9611 8.73418 15.9392C8.6591 15.9166 8.58325 15.8971 8.50892 15.8722C8.35951 15.8263 8.21238 15.7714 8.06676 15.7149C7.92189 15.6562 7.77779 15.5937 7.63748 15.5252C7.35534 15.3897 7.08458 15.2308 6.82443 15.0569C6.56505 14.8815 6.31856 14.6873 6.08723 14.4773C5.85667 14.2657 5.64203 14.0376 5.44484 13.7945C5.24916 13.5506 5.0732 13.2916 4.91848 13.0198C4.60828 12.477 4.39819 11.8808 4.26926 11.2688C4.20555 10.9624 4.16156 10.6522 4.14108 10.3406C4.12136 10.0281 4.12364 9.71497 4.14867 9.40255C4.17294 9.09089 4.22375 8.78073 4.2958 8.47584C4.36861 8.17095 4.46342 7.87133 4.58401 7.5815C4.82368 7.00183 5.15511 6.45905 5.56088 5.97725C5.15056 6.45454 4.81306 6.99506 4.56732 7.57397C4.4437 7.86305 4.34586 8.16342 4.26926 8.46831C4.19417 8.77395 4.13957 9.08487 4.11226 9.39804C4.0842 9.71121 4.07889 10.0274 4.09558 10.3413C4.11302 10.656 4.15398 10.9692 4.21541 11.2778C4.33903 11.8951 4.54533 12.5004 4.85401 13.0529C5.00798 13.3292 5.18393 13.5942 5.37961 13.8426C5.5768 14.0911 5.7922 14.3244 6.02428 14.5413C6.25712 14.7566 6.50513 14.9561 6.76679 15.1367C7.02921 15.3159 7.30301 15.4793 7.58818 15.62C7.73077 15.6916 7.87639 15.7563 8.02277 15.8173C8.17066 15.8768 8.31931 15.934 8.47176 15.9821C8.54685 16.0077 8.62421 16.0288 8.70005 16.0529C8.77514 16.0747 8.85022 16.0973 8.92531 16.1207C9.07472 16.1681 9.22186 16.2208 9.36596 16.2803C9.53964 16.3518 9.70801 16.4331 9.8688 16.5272C9.82178 16.5588 9.77552 16.5904 9.73077 16.6243C9.60183 16.7207 9.48124 16.8291 9.36975 16.945C9.25826 17.0609 9.15587 17.1836 9.05727 17.3078L9.17256 17.3967C9.26812 17.2732 9.36596 17.1528 9.47214 17.0414C9.57756 16.9292 9.69133 16.8253 9.81419 16.7319C9.87259 16.6868 9.93327 16.6446 9.9947 16.604C10.0561 16.6446 10.1168 16.6868 10.1752 16.7319C10.2973 16.8253 10.4111 16.9292 10.5173 17.0414C10.6234 17.1535 10.7213 17.2732 10.8168 17.3967L10.9321 17.3078C10.8335 17.1836 10.7311 17.0602 10.6197 16.945C10.5082 16.8291 10.3876 16.7207 10.2586 16.6243C10.2139 16.5904 10.1669 16.558 10.1206 16.5272C10.2806 16.4331 10.4498 16.351 10.6234 16.2803C10.7676 16.2208 10.9147 16.1681 11.0641 16.1207C11.1384 16.0973 11.2135 16.0747 11.2894 16.0529C11.366 16.0296 11.4426 16.0085 11.5176 15.9821C11.6693 15.934 11.8187 15.8768 11.9666 15.8173C12.1138 15.7555 12.2594 15.6916 12.4012 15.62C12.6872 15.4793 12.9602 15.3159 13.2226 15.1367C13.4835 14.9561 13.7315 14.7566 13.9651 14.5413ZM11.5912 15.1789C11.5176 15.2286 11.4456 15.2798 11.3781 15.3377C11.1619 15.5214 10.9845 15.7382 10.8388 15.9769C11.0406 15.9934 11.3735 15.8813 11.5541 15.7066C11.7808 15.4868 11.9424 15.1661 11.9196 14.8876C11.617 14.871 11.2461 15.0231 11.0596 15.2045C10.8624 15.3957 10.7433 15.6592 10.7691 15.9091C10.9898 15.6095 11.2666 15.3618 11.5912 15.1789ZM12.8654 14.5209C12.81 14.5857 12.7554 14.6519 12.7076 14.7227C12.5529 14.9493 12.4437 15.1955 12.3694 15.4552C12.5613 15.4198 12.8434 15.2308 12.967 15.0216C13.1217 14.7596 13.19 14.4193 13.0967 14.1649C12.81 14.2258 12.5036 14.4622 12.3762 14.6783C12.2412 14.9071 12.198 15.1827 12.2867 15.4085C12.4156 15.0743 12.6098 14.7739 12.8654 14.5209ZM13.8855 13.5212C13.8529 13.5972 13.8218 13.6733 13.7975 13.7523C13.7201 14.0053 13.6898 14.2635 13.6959 14.5239C13.8627 14.4366 14.069 14.1822 14.1221 13.9548C14.1896 13.6695 14.1547 13.336 13.9962 13.1282C13.7497 13.266 13.5351 13.5701 13.479 13.8058C13.4198 14.0549 13.4592 14.3214 13.6064 14.5051C13.6291 14.1588 13.7217 13.8261 13.8855 13.5212ZM14.6128 13.476C14.7562 13.3646 14.9071 13.0883 14.9185 12.8632C14.9329 12.5809 14.8419 12.2708 14.6545 12.1006C14.4445 12.2738 14.2935 12.599 14.2822 12.8316C14.27 13.0778 14.3534 13.324 14.5249 13.473C14.4862 13.1418 14.5165 12.8105 14.6181 12.4929C14.6007 12.5704 14.584 12.6479 14.5749 12.727C14.5453 12.9799 14.562 13.2299 14.6128 13.476ZM15.1293 11.5089C15.1475 11.7536 15.209 11.987 15.3015 12.2105C15.4168 12.0796 15.5093 11.7905 15.479 11.5759C15.441 11.3064 15.2985 11.0294 15.0906 10.9022C14.9238 11.1032 14.8404 11.4382 14.8715 11.661C14.9048 11.8959 15.0292 12.1142 15.2181 12.2241C15.121 11.9185 15.0891 11.5993 15.1278 11.2801C15.1248 11.3561 15.124 11.4329 15.1293 11.5089ZM15.5958 10.9812C15.6815 10.8367 15.7164 10.5476 15.6496 10.3503C15.5654 10.1019 15.3811 9.86553 15.1619 9.78197C15.0398 10.0018 15.0216 10.333 15.0914 10.5378C15.165 10.7539 15.3212 10.9383 15.5199 11.0083C15.3735 10.7365 15.2863 10.4407 15.2651 10.1328C15.2765 10.2058 15.2894 10.2781 15.3083 10.3488C15.3682 10.5762 15.4676 10.7862 15.5958 10.9812ZM15.733 9.71497C15.7793 9.5614 15.7452 9.28361 15.6367 9.11423C15.501 8.90193 15.2742 8.72352 15.0504 8.69566C14.9875 8.92828 15.0474 9.24145 15.1589 9.4161C15.2772 9.6013 15.4661 9.7368 15.6671 9.75713C15.4676 9.53731 15.3174 9.28135 15.2272 8.99905C15.2545 9.06454 15.2833 9.12853 15.3174 9.19101C15.4266 9.389 15.5685 9.56215 15.733 9.71497ZM15.5715 8.54962C15.573 8.39604 15.4683 8.14912 15.3235 8.02114C15.1422 7.86154 14.8859 7.75615 14.672 7.78852C14.6758 8.01888 14.8138 8.29215 14.9632 8.4239C15.1217 8.56317 15.3311 8.6392 15.5222 8.60532C15.2803 8.45476 15.074 8.25828 14.9154 8.02189C14.9579 8.07459 15.0012 8.12653 15.0489 8.17471C15.2037 8.32979 15.3796 8.45175 15.5715 8.54962ZM15.1915 7.49417C15.1657 7.34888 15.0224 7.13583 14.8631 7.04173C14.6636 6.92354 14.4043 6.87009 14.2093 6.93935C14.2548 7.1554 14.4331 7.38727 14.5977 7.48438C14.7713 7.58752 14.9822 7.6214 15.1551 7.5559C14.9003 7.45728 14.6712 7.30898 14.4801 7.11551C14.5294 7.15766 14.5795 7.19907 14.6333 7.2352C14.8055 7.35264 14.9936 7.4362 15.1915 7.49417ZM14.7539 6.65253C14.7183 6.51627 14.5658 6.3243 14.4073 6.24676C14.2086 6.14965 13.9575 6.11803 13.777 6.19783C13.8362 6.40033 14.0243 6.60736 14.1881 6.68715C14.3618 6.77222 14.5643 6.78878 14.7243 6.7135C14.4748 6.63897 14.245 6.51476 14.0486 6.34462C14.0986 6.38076 14.1494 6.41614 14.2033 6.44701C14.3762 6.54638 14.5613 6.61263 14.7539 6.65253ZM11.708 16.144C11.4714 16.0567 11.1202 16.0905 10.9412 16.1899C11.1718 16.351 11.4213 16.4782 11.6944 16.5588C11.7793 16.5844 11.8665 16.6017 11.9545 16.6175C11.5829 16.5829 11.2279 16.4685 10.9056 16.2825C10.9822 16.5249 11.1976 16.7207 11.4562 16.8163C11.7004 16.9066 12.1032 16.8946 12.3747 16.753C12.2829 16.4835 12.0046 16.2539 11.708 16.144ZM13.3652 15.352C13.1225 15.3264 12.8017 15.4386 12.6591 15.5711C12.9139 15.666 13.1786 15.7247 13.4539 15.736C13.5396 15.7397 13.6253 15.7352 13.711 15.73C13.3546 15.7842 12.9951 15.7601 12.6477 15.6645C12.7782 15.87 13.0269 15.9995 13.2924 16.0273C13.5427 16.0537 13.9166 15.9498 14.1365 15.7578C13.9856 15.5312 13.6693 15.3844 13.3652 15.352ZM14.669 14.2281C14.4354 14.259 14.16 14.4366 14.0561 14.5932C14.317 14.6248 14.5787 14.6203 14.8396 14.5684C14.9208 14.5526 15.0004 14.5292 15.08 14.5044C14.7577 14.6354 14.4149 14.6948 14.0675 14.6828C14.2366 14.8461 14.5006 14.9109 14.7562 14.8778C14.9974 14.8461 15.3242 14.664 15.4858 14.4336C15.2924 14.2559 14.9617 14.1897 14.669 14.2281ZM15.3872 12.9784C15.1847 13.08 14.9913 13.3292 14.9465 13.5039C15.1938 13.4504 15.4312 13.3639 15.6519 13.2344C15.7209 13.1937 15.7861 13.1478 15.8498 13.1004C15.5988 13.3217 15.3053 13.4836 14.9852 13.5822C15.1915 13.677 15.4524 13.6537 15.6739 13.5423C15.8832 13.4376 16.1221 13.1689 16.1964 12.9077C15.9636 12.8075 15.6413 12.8504 15.3872 12.9784ZM15.9158 11.7084C15.7376 11.8341 15.5889 12.0984 15.5715 12.2715C15.799 12.1857 16.0129 12.0698 16.2048 11.9154C16.2647 11.8673 16.3201 11.8146 16.3739 11.7596C16.1661 12.0058 15.9105 12.2015 15.6193 12.3408C15.8294 12.4025 16.0743 12.343 16.27 12.2053C16.4543 12.0758 16.6432 11.786 16.6765 11.527C16.4407 11.4645 16.1396 11.5511 15.9158 11.7084ZM16.1578 10.388C16.022 10.5476 15.9492 10.8291 15.975 10.9948C16.1661 10.86 16.336 10.7004 16.4771 10.5107C16.5211 10.4512 16.5597 10.3887 16.5969 10.3255C16.4642 10.6048 16.2738 10.848 16.0372 11.0482C16.248 11.055 16.4611 10.9406 16.609 10.7651C16.7493 10.6003 16.854 10.2849 16.8214 10.0364C16.5863 10.0342 16.3277 10.1877 16.1578 10.388ZM16.154 9.0397C16.0569 9.2151 16.041 9.4944 16.0979 9.64496C16.2518 9.48235 16.3815 9.30017 16.4778 9.09541C16.5082 9.03142 16.5324 8.96517 16.5552 8.89817C16.4831 9.18574 16.3504 9.45073 16.1661 9.68335C16.3656 9.65023 16.5446 9.50268 16.6508 9.30996C16.7509 9.12853 16.7903 8.81235 16.7122 8.58424C16.49 8.6264 16.2761 8.81912 16.154 9.0397ZM15.8832 8.3584C16.0084 8.18375 16.1077 7.99479 16.1722 7.78702C16.1927 7.72227 16.2071 7.65603 16.22 7.58978C16.1889 7.87208 16.0979 8.14084 15.953 8.3855C16.138 8.32829 16.289 8.16493 16.3641 7.96844C16.4354 7.78325 16.4308 7.47761 16.3269 7.27134C16.1221 7.33984 15.9439 7.55063 15.8574 7.77572C15.7877 7.95565 15.8096 8.22289 15.8832 8.3584ZM15.6276 6.68941C15.6329 6.62467 15.6314 6.55993 15.6299 6.49594C15.6617 6.76545 15.6344 7.03571 15.5518 7.29468C15.7118 7.20208 15.8172 7.01764 15.846 6.8189C15.8726 6.63069 15.8028 6.34764 15.6617 6.17675C15.4858 6.2844 15.3644 6.51852 15.3318 6.74663C15.306 6.92881 15.3834 7.17272 15.4805 7.28414C15.5601 7.09367 15.6117 6.89644 15.6276 6.68941ZM14.9473 6.41991C14.9822 6.22719 14.9898 6.03296 14.9617 5.83648C14.9526 5.7755 14.939 5.71527 14.9238 5.65505C15.0095 5.89971 15.0391 6.15717 15.0156 6.41539C15.146 6.29644 15.2059 6.10372 15.1915 5.91176C15.1779 5.73108 15.0542 5.48039 14.8874 5.35016C14.7448 5.48642 14.6811 5.72882 14.6978 5.94864C14.7107 6.12405 14.8335 6.33634 14.9473 6.41991ZM14.3701 5.91552C14.1782 5.7627 14.0212 5.57374 13.9098 5.35618C13.9409 5.40587 13.9727 5.4548 14.0091 5.50072C14.1252 5.64827 14.2639 5.77023 14.4187 5.87261C14.4354 5.74087 14.3709 5.51954 14.2594 5.39608C14.1198 5.241 13.9113 5.12582 13.7255 5.13259C13.7057 5.33058 13.796 5.57751 13.9113 5.70549C14.0319 5.84024 14.2033 5.92606 14.3701 5.91552ZM9.67768 3.71279L8.9693 3.81592L9.482 4.31805L9.36141 5.0272L9.9947 4.6922L10.628 5.0272L10.5066 4.31805L11.0194 3.81592L10.311 3.71279L9.99395 3.06763L9.67768 3.71279ZM7.55405 4.32859L7.10733 4.39408L7.43043 4.71102L7.35382 5.15819L7.75352 4.9474L8.15322 5.15819L8.07661 4.71102L8.39971 4.39408L7.95299 4.32859L7.75352 3.92207L7.55405 4.32859ZM12.0349 4.32859L11.5882 4.39408L11.9113 4.71102L11.8347 5.15819L12.2344 4.9474L12.6341 5.15819L12.5575 4.71102L12.8806 4.39408L12.4338 4.32859L12.2344 3.92207L12.0349 4.32859Z" fill="#EBEAE7"/>
<path d="M8.4346 15.6277C8.20782 15.4079 8.04628 15.0872 8.06903 14.8087C8.37165 14.7921 8.74252 14.9449 8.9291 15.1256C9.12629 15.3168 9.24537 15.5803 9.21958 15.8302C8.99963 15.5314 8.72205 15.2837 8.39819 15.1015C8.47176 15.1512 8.54381 15.2024 8.61131 15.2604C8.82747 15.4441 9.00494 15.6609 9.15056 15.8995C8.94806 15.9146 8.61511 15.8024 8.4346 15.6277ZM7.61928 15.377C7.54495 15.1173 7.43498 14.8712 7.28101 14.6446C7.23247 14.5738 7.17862 14.5076 7.12326 14.4428C7.37885 14.695 7.57301 14.9961 7.70195 15.3304C7.79068 15.1045 7.74745 14.8282 7.61245 14.6001C7.48503 14.3841 7.17863 14.1485 6.89194 14.0867C6.79865 14.3412 6.86691 14.6815 7.02163 14.9434C7.14525 15.152 7.42739 15.3417 7.61928 15.377ZM5.99243 13.0494C5.83316 13.2579 5.79903 13.5906 5.86653 13.8759C5.92038 14.1033 6.12591 14.3577 6.29277 14.4451C6.29884 14.1846 6.2685 13.9264 6.19114 13.6734C6.16687 13.5944 6.13577 13.5184 6.10316 13.4423C6.26622 13.748 6.35951 14.08 6.38151 14.4247C6.52864 14.2411 6.56808 13.9746 6.50892 13.7254C6.45356 13.4913 6.23892 13.1864 5.99243 13.0494ZM5.7065 12.7535C5.69512 12.5209 5.54419 12.1949 5.3341 12.0225C5.14677 12.1926 5.05652 12.5028 5.07017 12.7851C5.08154 13.0102 5.23247 13.2865 5.37582 13.3979C5.42663 13.1517 5.44332 12.9018 5.41374 12.6489C5.40464 12.5698 5.38871 12.4923 5.37051 12.4147C5.47214 12.7324 5.50248 13.0637 5.4638 13.3949C5.6352 13.2458 5.71863 12.9997 5.7065 12.7535ZM4.77059 12.1452C4.95944 12.0353 5.08382 11.8177 5.11719 11.5821C5.14829 11.36 5.06562 11.025 4.898 10.8233C4.69019 10.9505 4.5476 11.2275 4.50968 11.497C4.47935 11.7124 4.57187 12.0007 4.68716 12.1317C4.78045 11.9081 4.84112 11.674 4.85932 11.43C4.86539 11.354 4.86387 11.2772 4.8616 11.2012C4.89952 11.5204 4.86767 11.8396 4.77059 12.1452ZM4.898 10.4589C4.96778 10.2549 4.94882 9.92291 4.82747 9.70385C4.60752 9.78741 4.42398 10.0238 4.33979 10.2722C4.27229 10.4702 4.30794 10.7593 4.39364 10.9031C4.52182 10.7081 4.62117 10.4981 4.68261 10.27C4.70157 10.1992 4.71446 10.1262 4.72584 10.0539C4.7046 10.3618 4.61738 10.6577 4.471 10.9294C4.6682 10.8587 4.82443 10.675 4.898 10.4589ZM4.25561 9.63609C4.42019 9.48327 4.56126 9.31088 4.67123 9.11214C4.70536 9.0504 4.73418 8.98566 4.76148 8.92017C4.67047 9.20247 4.52106 9.45843 4.32159 9.67825C4.52258 9.65792 4.71143 9.52242 4.82974 9.33723C4.94199 9.16257 5.00115 8.8494 4.9382 8.61678C4.71446 8.64464 4.48769 8.82305 4.35193 9.03535C4.24347 9.20473 4.20934 9.48252 4.25561 9.63609ZM4.46569 8.5272C4.65682 8.56108 4.86615 8.48504 5.02466 8.34577C5.17407 8.21403 5.31211 7.94151 5.3159 7.7104C5.10202 7.67727 4.84643 7.78267 4.6644 7.94302C4.51954 8.07024 4.41488 8.31716 4.4164 8.47149C4.60828 8.37362 4.78424 8.25167 4.9382 8.09734C4.98598 8.04916 5.02997 7.99722 5.07169 7.94452C4.91393 8.18015 4.70764 8.37664 4.46569 8.5272ZM5.12553 6.9636C4.96626 7.05771 4.82368 7.27075 4.79713 7.41605C4.99508 7.35883 5.18242 7.27452 5.35534 7.15708C5.40919 7.12019 5.45925 7.07954 5.50855 7.03738C5.31666 7.23085 5.08761 7.37916 4.83354 7.47778C5.00646 7.54327 5.21731 7.50939 5.39099 7.40626C5.55557 7.30915 5.7338 7.07728 5.77931 6.86122C5.58439 6.79196 5.325 6.84541 5.12553 6.9636ZM6.21086 6.1197C6.03035 6.0399 5.77931 6.07077 5.5806 6.16863C5.42208 6.24617 5.26964 6.43814 5.23399 6.5744C5.42663 6.5345 5.61169 6.46901 5.78462 6.36964C5.83847 6.33877 5.88928 6.30339 5.93934 6.26725C5.74214 6.43739 5.5131 6.56085 5.26357 6.63613C5.4236 6.71141 5.6261 6.69485 5.79979 6.60978C5.96437 6.52923 6.1517 6.32221 6.21086 6.1197ZM8.03414 16.5394C8.12136 16.5236 8.20858 16.5063 8.29429 16.4807C8.56732 16.4001 8.81685 16.2729 9.04741 16.1118C8.86918 16.0124 8.51727 15.9785 8.28063 16.0659C7.98409 16.1758 7.70574 16.4061 7.61473 16.6749C7.88625 16.8164 8.28822 16.8285 8.53319 16.7381C8.79182 16.6425 9.00722 16.4476 9.08382 16.2044C8.76073 16.3896 8.40654 16.5048 8.03414 16.5394ZM6.2776 15.6518C6.3633 15.6579 6.44901 15.6616 6.53471 15.6578C6.81002 15.6466 7.07472 15.5878 7.32955 15.493C7.18621 15.3605 6.86539 15.2483 6.62345 15.2739C6.31932 15.3063 6.00305 15.4538 5.85212 15.6797C6.07206 15.8724 6.44522 15.9763 6.69626 15.9492C6.96171 15.9213 7.21048 15.7918 7.34093 15.5863C6.99357 15.6819 6.63482 15.706 6.2776 15.6518ZM4.90862 14.4262C4.9875 14.4511 5.06713 14.4744 5.14905 14.4902C5.40995 14.5422 5.67161 14.5459 5.93251 14.5151C5.82861 14.3585 5.55329 14.1801 5.31969 14.15C5.02694 14.1116 4.69626 14.1786 4.50286 14.3562C4.66516 14.5866 4.99129 14.7688 5.23247 14.8004C5.48807 14.8343 5.75125 14.7688 5.92114 14.6054C5.57377 14.6167 5.23096 14.5572 4.90862 14.4262ZM5.00343 13.5041C4.68337 13.4047 4.38985 13.2428 4.13881 13.0222C4.20327 13.0697 4.26774 13.1156 4.33676 13.1562C4.55746 13.2857 4.79486 13.3723 5.04211 13.4258C4.99736 13.2504 4.80396 13.0019 4.60145 12.9003C4.34738 12.7731 4.02504 12.7294 3.7922 12.8303C3.86653 13.0908 4.10544 13.3595 4.31476 13.4649C4.53623 13.5756 4.79713 13.5989 5.00343 13.5041ZM4.36937 12.2627C4.07813 12.1234 3.82254 11.9277 3.61473 11.6815C3.66933 11.7357 3.72394 11.7891 3.78386 11.8373C3.97574 11.9916 4.18886 12.1076 4.41715 12.1934C4.39971 12.0203 4.25106 11.756 4.07282 11.6303C3.84908 11.473 3.54798 11.3864 3.31211 11.4496C3.34548 11.7086 3.53433 11.9984 3.71863 12.1279C3.91431 12.2649 4.15853 12.3244 4.36937 12.2627ZM3.95147 10.9693C3.71484 10.7691 3.52447 10.5259 3.39175 10.2466C3.42891 10.3099 3.46759 10.3731 3.51158 10.4318C3.65265 10.6215 3.82254 10.7811 4.01366 10.9159C4.04021 10.7503 3.96664 10.4687 3.83088 10.3091C3.66099 10.1089 3.40236 9.95529 3.16725 9.95754C3.13464 10.206 3.2393 10.5214 3.37961 10.6863C3.52751 10.8617 3.74063 10.9761 3.95147 10.9693ZM3.82254 9.60523C3.63824 9.37261 3.50551 9.10762 3.43346 8.82004C3.45621 8.88704 3.48048 8.95329 3.51082 9.01728C3.60714 9.22205 3.73684 9.40423 3.8908 9.56683C3.94692 9.41627 3.93175 9.13698 3.83467 8.96157C3.71257 8.741 3.49869 8.54828 3.27722 8.50612C3.1991 8.73422 3.23778 9.0504 3.33866 9.23183C3.44408 9.4238 3.62307 9.57135 3.82254 9.60523ZM4.03566 8.30813C3.8908 8.06347 3.79979 7.79471 3.76869 7.51241C3.78158 7.57865 3.79599 7.6449 3.81647 7.70964C3.88094 7.91667 3.98029 8.10638 4.10544 8.28103C4.17825 8.14552 4.20024 7.87827 4.13122 7.6991C4.04476 7.47401 3.86653 7.26322 3.66175 7.19472C3.55784 7.40099 3.55329 7.70663 3.62459 7.89182C3.70043 8.0868 3.8506 8.25016 4.03566 8.30813ZM4.43687 7.2158C4.3542 6.95683 4.3269 6.68732 4.35875 6.41706C4.35648 6.4818 4.35572 6.54655 4.36103 6.61054C4.37696 6.81756 4.42929 7.0148 4.50817 7.20451C4.60525 7.09309 4.68337 6.84918 4.65682 6.667C4.62421 6.43889 4.50362 6.20477 4.3269 6.09712C4.18583 6.26801 4.11605 6.55106 4.1426 6.73927C4.17142 6.93876 4.27684 7.1232 4.43687 7.2158ZM5.06486 5.57692C5.04969 5.63639 5.03528 5.69662 5.02694 5.75835C4.99888 5.95408 5.00646 6.14906 5.04135 6.34178C5.15511 6.25822 5.27798 6.04593 5.29087 5.87127C5.30756 5.6522 5.24309 5.40904 5.10126 5.27279C4.93441 5.40302 4.81078 5.65371 4.79713 5.83438C4.78272 6.0256 4.84264 6.21907 4.97309 6.33802C4.94958 6.07905 4.97916 5.82234 5.06486 5.57692ZM5.97953 5.42184C6.01594 5.37592 6.04779 5.32699 6.07889 5.2773C5.96664 5.49562 5.8104 5.68382 5.61852 5.83664C5.78538 5.84643 5.95678 5.76136 6.07889 5.62586C6.19341 5.49863 6.28443 5.25095 6.26471 5.05296C6.07813 5.04619 5.86956 5.16137 5.73077 5.31645C5.62004 5.43991 5.55481 5.66124 5.5715 5.79298C5.72546 5.69135 5.86349 5.56939 5.97953 5.42184ZM13.9651 14.4631C14.1972 14.2463 14.4126 14.013 14.6098 13.7645C14.8062 13.5153 14.9814 13.2511 15.1354 12.9748C15.4441 12.4215 15.6504 11.817 15.774 11.1997C15.8354 10.8903 15.8764 10.5771 15.8938 10.2632C15.9105 9.94851 15.9052 9.63308 15.8771 9.31991C15.8491 9.00674 15.7952 8.69508 15.7201 8.39019C15.6443 8.0853 15.5457 7.78492 15.4221 7.49584C15.1763 6.91618 14.8388 6.37641 14.4285 5.89913C14.8343 6.38093 15.1657 6.92295 15.4054 7.50337C15.526 7.79321 15.6208 8.09283 15.6936 8.39772C15.7657 8.7026 15.8165 9.01201 15.8407 9.32443C15.8658 9.63609 15.868 9.95002 15.8483 10.2624C15.8278 10.5749 15.7839 10.885 15.7201 11.1907C15.5912 11.8019 15.3811 12.3989 15.0709 12.9417C14.9162 13.2135 14.7402 13.4724 14.5446 13.7163C14.3481 13.9595 14.1327 14.1876 13.9022 14.3991C13.6701 14.6092 13.4244 14.8034 13.165 14.9788C12.9048 15.1527 12.6341 15.3116 12.3519 15.4471C12.2116 15.5163 12.0675 15.5781 11.9227 15.6368C11.777 15.6932 11.6299 15.7482 11.4805 15.7941C11.4062 15.819 11.3303 15.8385 11.2552 15.8611C11.1786 15.8822 11.102 15.9048 11.0262 15.9281C10.8737 15.9748 10.7228 16.0275 10.5741 16.087C10.3747 16.1668 10.1798 16.2601 9.9947 16.3715C9.80964 16.2601 9.61397 16.166 9.41526 16.087C9.2666 16.0275 9.11567 15.9755 8.96323 15.9281C8.88738 15.9048 8.81078 15.8829 8.73418 15.8611C8.6591 15.8385 8.58325 15.819 8.50892 15.7941C8.35951 15.7482 8.21238 15.6932 8.06676 15.6368C7.92189 15.5781 7.77779 15.5156 7.63748 15.4471C7.35534 15.3116 7.08458 15.1527 6.82443 14.9788C6.56505 14.8034 6.31856 14.6092 6.08723 14.3991C5.85667 14.1876 5.64203 13.9595 5.44484 13.7163C5.24916 13.4724 5.0732 13.2135 4.91848 12.9417C4.60828 12.3989 4.39819 11.8027 4.26926 11.1907C4.20555 10.8843 4.16156 10.5741 4.14108 10.2624C4.12136 9.95002 4.12364 9.63685 4.14867 9.32443C4.17294 9.01276 4.22375 8.7026 4.2958 8.39772C4.36861 8.09283 4.46342 7.79321 4.58401 7.50337C4.82368 6.92371 5.15511 6.38093 5.56088 5.89913C5.15056 6.37641 4.81306 6.91693 4.56732 7.49584C4.4437 7.78492 4.34586 8.0853 4.26926 8.39019C4.19417 8.69583 4.13957 9.00674 4.11226 9.31991C4.0842 9.63308 4.07889 9.94926 4.09558 10.2632C4.11302 10.5779 4.15398 10.891 4.21541 11.1997C4.33903 11.817 4.54533 12.4223 4.85401 12.9748C5.00798 13.2511 5.18393 13.5161 5.37961 13.7645C5.5768 14.013 5.7922 14.2463 6.02428 14.4631C6.25712 14.6784 6.50513 14.8779 6.76679 15.0586C7.02921 15.2378 7.30301 15.4011 7.58818 15.5419C7.73077 15.6134 7.87639 15.6782 8.02277 15.7392C8.17066 15.7986 8.31931 15.8558 8.47176 15.904C8.54685 15.9296 8.62421 15.9507 8.70005 15.9748C8.77514 15.9966 8.85022 16.0192 8.92531 16.0425C9.07472 16.09 9.22186 16.1427 9.36596 16.2021C9.53964 16.2737 9.70801 16.355 9.8688 16.4491C9.82178 16.4807 9.77552 16.5123 9.73077 16.5462C9.60183 16.6425 9.48124 16.7509 9.36975 16.8669C9.25826 16.9828 9.15587 17.1055 9.05727 17.2297L9.17256 17.3186C9.26812 17.1951 9.36596 17.0746 9.47214 16.9632C9.57756 16.8511 9.69133 16.7472 9.81419 16.6538C9.87259 16.6087 9.93327 16.5665 9.9947 16.5258C10.0561 16.5665 10.1168 16.6087 10.1752 16.6538C10.2973 16.7472 10.4111 16.8511 10.5173 16.9632C10.6234 17.0754 10.7213 17.1951 10.8168 17.3186L10.9321 17.2297C10.8335 17.1055 10.7311 16.982 10.6197 16.8669C10.5082 16.7509 10.3876 16.6425 10.2586 16.5462C10.2139 16.5123 10.1669 16.4799 10.1206 16.4491C10.2806 16.355 10.4498 16.2729 10.6234 16.2021C10.7676 16.1427 10.9147 16.09 11.0641 16.0425C11.1384 16.0192 11.2135 15.9966 11.2894 15.9748C11.366 15.9514 11.4426 15.9304 11.5176 15.904C11.6693 15.8558 11.8187 15.7986 11.9666 15.7392C12.1138 15.6774 12.2594 15.6134 12.4012 15.5419C12.6872 15.4011 12.9602 15.2378 13.2226 15.0586C13.4835 14.8779 13.7315 14.6784 13.9651 14.4631ZM11.5912 15.1008C11.5176 15.1505 11.4456 15.2016 11.3781 15.2596C11.1619 15.4433 10.9845 15.6601 10.8388 15.8988C11.0406 15.9153 11.3735 15.8031 11.5541 15.6285C11.7808 15.4087 11.9424 15.088 11.9196 14.8094C11.617 14.7929 11.2461 14.9457 11.0596 15.1264C10.8624 15.3176 10.7433 15.5811 10.7691 15.831C10.9898 15.5306 11.2666 15.2837 11.5912 15.1008ZM12.8654 14.4428C12.81 14.5076 12.7554 14.5738 12.7076 14.6446C12.5529 14.8712 12.4437 15.1173 12.3694 15.377C12.5613 15.3417 12.8434 15.1527 12.967 14.9434C13.1217 14.6815 13.19 14.3412 13.0967 14.0867C12.81 14.1477 12.5036 14.3841 12.3762 14.6001C12.2412 14.829 12.198 15.1045 12.2867 15.3304C12.4156 14.9961 12.6098 14.695 12.8654 14.4428ZM13.8855 13.4423C13.8529 13.5184 13.8218 13.5944 13.7975 13.6734C13.7201 13.9264 13.6898 14.1846 13.6959 14.4451C13.8627 14.3577 14.069 14.1033 14.1221 13.8759C14.1896 13.5906 14.1547 13.2571 13.9962 13.0494C13.7497 13.1871 13.5351 13.4913 13.479 13.7269C13.4198 13.9761 13.4592 14.2426 13.6064 14.4262C13.6291 14.0807 13.7217 13.748 13.8855 13.4423ZM14.6128 13.3979C14.7562 13.2865 14.9071 13.0102 14.9185 12.7851C14.9329 12.5028 14.8419 12.1926 14.6545 12.0225C14.4445 12.1957 14.2935 12.5209 14.2822 12.7535C14.27 12.9997 14.3534 13.2458 14.5249 13.3949C14.4862 13.0637 14.5165 12.7324 14.6181 12.4147C14.6007 12.4923 14.584 12.5698 14.5749 12.6489C14.5453 12.9018 14.562 13.1517 14.6128 13.3979ZM15.1293 11.4308C15.1475 11.6755 15.209 11.9088 15.3015 12.1324C15.4168 12.0014 15.5093 11.7124 15.479 11.4978C15.441 11.2283 15.2985 10.9513 15.0906 10.824C14.9238 11.025 14.8404 11.36 14.8715 11.5829C14.9048 11.8177 15.0292 12.0361 15.2181 12.146C15.121 11.8403 15.0891 11.5211 15.1278 11.2019C15.1248 11.278 15.124 11.3548 15.1293 11.4308ZM15.5958 10.9023C15.6815 10.7578 15.7164 10.4687 15.6496 10.2715C15.5654 10.023 15.3811 9.78666 15.1619 9.70309C15.0398 9.92292 15.0216 10.2542 15.0914 10.4582C15.165 10.6742 15.3212 10.8587 15.5199 10.9287C15.3735 10.6569 15.2863 10.3611 15.2651 10.0532C15.2765 10.1262 15.2894 10.1984 15.3083 10.2692C15.3682 10.4973 15.4676 10.7073 15.5958 10.9023ZM15.733 9.63609C15.7793 9.48252 15.7452 9.20473 15.6367 9.03535C15.501 8.82305 15.2742 8.64464 15.0504 8.61678C14.9875 8.8494 15.0474 9.16257 15.1589 9.33723C15.2772 9.52242 15.4661 9.65792 15.6671 9.67825C15.4676 9.45843 15.3174 9.20247 15.2272 8.92017C15.2545 8.98566 15.2833 9.04965 15.3174 9.11214C15.4266 9.31088 15.5685 9.48402 15.733 9.63609ZM15.5715 8.47149C15.573 8.31716 15.4683 8.07099 15.3235 7.94302C15.1422 7.78342 14.8859 7.67802 14.672 7.7104C14.6758 7.94076 14.8138 8.21403 14.9632 8.34577C15.1217 8.48504 15.3311 8.56108 15.5222 8.5272C15.2803 8.37664 15.074 8.18015 14.9154 7.94377C14.9579 7.99646 15.0012 8.04841 15.0489 8.09659C15.2037 8.25092 15.3796 8.37362 15.5715 8.47149ZM15.1915 7.41529C15.1657 7.27 15.0224 7.05695 14.8631 6.96285C14.6636 6.84466 14.4043 6.79121 14.2093 6.86047C14.2548 7.07653 14.4331 7.30839 14.5977 7.40551C14.7713 7.50864 14.9822 7.54252 15.1551 7.47702C14.9003 7.37841 14.6712 7.2301 14.4801 7.03663C14.5294 7.07879 14.5795 7.12019 14.6333 7.15633C14.8055 7.27452 14.9936 7.35808 15.1915 7.41529ZM14.7539 6.5744C14.7183 6.43814 14.5658 6.24617 14.4073 6.16863C14.2086 6.07152 13.9575 6.0399 13.777 6.1197C13.8362 6.32221 14.0243 6.52923 14.1881 6.60903C14.3618 6.6941 14.5643 6.71066 14.7243 6.63538C14.4748 6.56085 14.245 6.43664 14.0486 6.2665C14.0986 6.30263 14.1494 6.33802 14.2033 6.36888C14.3762 6.46825 14.5613 6.53375 14.7539 6.5744ZM11.708 16.0659C11.4714 15.9785 11.1202 16.0124 10.9412 16.1118C11.1718 16.2729 11.4213 16.4001 11.6944 16.4807C11.7793 16.5063 11.8665 16.5236 11.9545 16.5394C11.5829 16.5048 11.2279 16.3903 10.9056 16.2044C10.9822 16.4468 11.1976 16.6425 11.4562 16.7381C11.7004 16.8285 12.1032 16.8164 12.3747 16.6749C12.2829 16.4054 12.0046 16.175 11.708 16.0659ZM13.3652 15.2739C13.1225 15.2483 12.8017 15.3605 12.6591 15.493C12.9139 15.5878 13.1786 15.6466 13.4539 15.6578C13.5396 15.6616 13.6253 15.6571 13.711 15.6518C13.3546 15.706 12.9951 15.6819 12.6477 15.5863C12.7782 15.7918 13.0269 15.9213 13.2924 15.9492C13.5427 15.9755 13.9166 15.8716 14.1365 15.6797C13.9856 15.4531 13.6693 15.3063 13.3652 15.2739ZM14.669 14.15C14.4354 14.1808 14.16 14.3585 14.0561 14.5151C14.317 14.5467 14.5787 14.5422 14.8396 14.4902C14.9208 14.4744 15.0004 14.4511 15.08 14.4262C14.7577 14.5572 14.4149 14.6167 14.0675 14.6047C14.2366 14.768 14.5006 14.8328 14.7562 14.7996C14.9974 14.768 15.3242 14.5858 15.4858 14.3555C15.2924 14.1778 14.9617 14.1108 14.669 14.15ZM15.3872 12.8995C15.1847 13.0012 14.9913 13.2504 14.9465 13.425C15.1938 13.3716 15.4312 13.285 15.6519 13.1555C15.7209 13.1148 15.7861 13.0689 15.8498 13.0215C15.5988 13.2428 15.3053 13.4047 14.9852 13.5033C15.1915 13.5982 15.4524 13.5748 15.6739 13.4634C15.8832 13.3588 16.1221 13.09 16.1964 12.8288C15.9636 12.7287 15.6413 12.7723 15.3872 12.8995ZM15.9158 11.6303C15.7376 11.756 15.5889 12.0203 15.5715 12.1934C15.799 12.1076 16.0129 11.9916 16.2048 11.8373C16.2647 11.7891 16.3201 11.7364 16.3739 11.6815C16.1661 11.9277 15.9105 12.1234 15.6193 12.2627C15.8294 12.3244 16.0743 12.2649 16.27 12.1272C16.4543 11.9977 16.6432 11.7078 16.6765 11.4489C16.4407 11.3864 16.1396 11.473 15.9158 11.6303ZM16.1578 10.3099C16.022 10.4695 15.9492 10.751 15.975 10.9166C16.1661 10.7819 16.336 10.6223 16.4771 10.4326C16.5211 10.3731 16.5597 10.3106 16.5969 10.2474C16.4642 10.5267 16.2738 10.7698 16.0372 10.9701C16.248 10.9769 16.4611 10.8624 16.609 10.687C16.7493 10.5222 16.854 10.2067 16.8214 9.9583C16.5863 9.95604 16.3277 10.1096 16.1578 10.3099ZM16.154 8.96157C16.0569 9.13698 16.041 9.41627 16.0979 9.56683C16.2518 9.40423 16.3815 9.22205 16.4778 9.01728C16.5082 8.95329 16.5324 8.88704 16.5552 8.82004C16.4831 9.10762 16.3504 9.37261 16.1661 9.60523C16.3656 9.5721 16.5446 9.42455 16.6508 9.23183C16.7509 9.0504 16.7903 8.73422 16.7122 8.50612C16.49 8.54828 16.2761 8.741 16.154 8.96157ZM15.8832 8.28028C16.0084 8.10562 16.1077 7.91667 16.1722 7.70889C16.1927 7.64415 16.2071 7.5779 16.22 7.51165C16.1889 7.79396 16.0979 8.06271 15.953 8.30738C16.138 8.25016 16.289 8.0868 16.3641 7.89032C16.4354 7.70513 16.4308 7.39948 16.3269 7.19321C16.1221 7.26172 15.9439 7.47251 15.8574 7.6976C15.7877 7.87752 15.8096 8.14477 15.8832 8.28028ZM15.6276 6.61129C15.6329 6.54655 15.6314 6.4818 15.6299 6.41782C15.6617 6.68732 15.6344 6.95758 15.5518 7.21655C15.7118 7.12395 15.8172 6.93952 15.846 6.74077C15.8726 6.55257 15.8028 6.26951 15.6617 6.09862C15.4858 6.20627 15.3644 6.4404 15.3318 6.6685C15.306 6.85068 15.3834 7.09459 15.4805 7.20601C15.5601 7.01555 15.6117 6.81831 15.6276 6.61129ZM14.9473 6.34178C14.9822 6.14906 14.9898 5.95483 14.9617 5.75835C14.9526 5.69737 14.939 5.63715 14.9238 5.57692C15.0095 5.82159 15.0391 6.07905 15.0156 6.33726C15.146 6.21832 15.2059 6.0256 15.1915 5.83363C15.1779 5.65296 15.0542 5.40227 14.8874 5.27203C14.7448 5.40829 14.6811 5.6507 14.6978 5.87052C14.7107 6.04593 14.8335 6.25747 14.9473 6.34178ZM14.3701 5.8374C14.1782 5.68457 14.0212 5.49562 13.9098 5.27806C13.9409 5.32774 13.9727 5.37667 14.0091 5.4226C14.1252 5.57015 14.2639 5.6921 14.4187 5.79449C14.4354 5.66274 14.3709 5.44142 14.2594 5.31795C14.1198 5.16287 13.9113 5.04769 13.7255 5.05447C13.7057 5.25246 13.796 5.49938 13.9113 5.62736C14.0319 5.76211 14.2033 5.84718 14.3701 5.8374ZM9.67768 3.63466L8.9693 3.7378L9.482 4.23993L9.36141 4.94908L9.9947 4.61483L10.628 4.94908L10.5066 4.23993L11.0194 3.7378L10.311 3.63466L9.99395 2.9895L9.67768 3.63466ZM7.55405 4.25046L7.10733 4.31596L7.43043 4.63289L7.35382 5.08007L7.75352 4.86928L8.15322 5.08007L8.07661 4.63289L8.39971 4.31596L7.95299 4.25046L7.75352 3.84395L7.55405 4.25046ZM12.0349 4.25046L11.5882 4.31596L11.9113 4.63289L11.8347 5.08007L12.2344 4.86928L12.6341 5.08007L12.5575 4.63289L12.8806 4.31596L12.4338 4.25046L12.2344 3.84395L12.0349 4.25046Z" fill="#656563"/>
<path d="M8.4346 15.6668C8.20782 15.447 8.04628 15.1263 8.06903 14.8477C8.37165 14.8312 8.74252 14.984 8.9291 15.1647C9.12629 15.3559 9.24537 15.6194 9.21958 15.8693C8.99963 15.5704 8.72205 15.3228 8.39819 15.1406C8.47176 15.1903 8.54381 15.2415 8.61131 15.2994C8.82747 15.4831 9.00494 15.6999 9.15056 15.9386C8.94806 15.9544 8.61511 15.8415 8.4346 15.6668ZM7.61928 15.4161C7.54495 15.1564 7.43498 14.9102 7.28101 14.6836C7.23247 14.6129 7.17862 14.5466 7.12326 14.4819C7.37885 14.7341 7.57301 15.0352 7.70195 15.3694C7.79068 15.1436 7.74745 14.8673 7.61245 14.6392C7.48503 14.4232 7.17863 14.1875 6.89194 14.1258C6.79865 14.3802 6.86691 14.7205 7.02163 14.9825C7.14525 15.1918 7.42739 15.3807 7.61928 15.4161ZM5.99243 13.0884C5.83316 13.2969 5.79903 13.6297 5.86653 13.915C5.92038 14.1424 6.12591 14.3968 6.29277 14.4841C6.29884 14.2237 6.2685 13.9654 6.19114 13.7125C6.16687 13.6334 6.13577 13.5574 6.10316 13.4814C6.26622 13.787 6.35951 14.119 6.38151 14.4638C6.52864 14.2801 6.56808 14.0136 6.50892 13.7644C6.45356 13.5303 6.23892 13.2254 5.99243 13.0884ZM5.7065 12.7926C5.69512 12.5599 5.54419 12.234 5.3341 12.0616C5.14677 12.2317 5.05652 12.5419 5.07017 12.8242C5.08154 13.0493 5.23247 13.3255 5.37582 13.437C5.42663 13.1908 5.44332 12.9409 5.41374 12.6879C5.40464 12.6089 5.38871 12.5313 5.37051 12.4538C5.47214 12.7715 5.50248 13.1027 5.4638 13.434C5.6352 13.2849 5.71863 13.0387 5.7065 12.7926ZM4.77059 12.1843C4.95944 12.0744 5.08382 11.8568 5.11719 11.6212C5.14829 11.3991 5.06562 11.0641 4.898 10.8623C4.69019 10.9896 4.5476 11.2666 4.50968 11.5361C4.47935 11.7514 4.57187 12.0397 4.68716 12.1707C4.78045 11.9471 4.84112 11.713 4.85932 11.4691C4.86539 11.3931 4.86387 11.3163 4.8616 11.2403C4.89952 11.5594 4.86767 11.8786 4.77059 12.1843ZM4.898 10.498C4.96778 10.294 4.94882 9.96198 4.82747 9.74216C4.60752 9.82572 4.42398 10.0621 4.33979 10.3105C4.27229 10.5085 4.30794 10.7976 4.39364 10.9414C4.52182 10.7464 4.62117 10.5364 4.68261 10.3083C4.70157 10.2375 4.71446 10.1645 4.72584 10.0922C4.7046 10.4001 4.61738 10.696 4.471 10.9677C4.6682 10.8985 4.82443 10.714 4.898 10.498ZM4.25561 9.67591C4.42019 9.52309 4.56126 9.35069 4.67123 9.15195C4.70536 9.09022 4.73418 9.02548 4.76148 8.95998C4.67047 9.24229 4.52106 9.49824 4.32159 9.71807C4.52258 9.69774 4.71143 9.56223 4.82974 9.37704C4.94199 9.20239 5.00115 8.88922 4.9382 8.6566C4.71446 8.68445 4.48769 8.86287 4.35193 9.07516C4.24347 9.24379 4.20934 9.52158 4.25561 9.67591ZM4.46569 8.56701C4.65682 8.60089 4.86615 8.52486 5.02466 8.38559C5.17407 8.25384 5.31211 7.98132 5.3159 7.75021C5.10202 7.71709 4.84643 7.82248 4.6644 7.98283C4.51954 8.11006 4.41488 8.35698 4.4164 8.51131C4.60828 8.41344 4.78424 8.29148 4.9382 8.13716C4.98598 8.08898 5.02997 8.03703 5.07169 7.98434C4.91393 8.21921 4.70764 8.4157 4.46569 8.56701ZM5.12553 7.00267C4.96626 7.09677 4.82368 7.30981 4.79713 7.45511C4.99508 7.39789 5.18242 7.31358 5.35534 7.19614C5.40919 7.15925 5.45925 7.1186 5.50855 7.07644C5.31666 7.26992 5.08761 7.41822 4.83354 7.51684C5.00646 7.58233 5.21731 7.54846 5.39099 7.44532C5.55557 7.34821 5.7338 7.11634 5.77931 6.90028C5.58439 6.83103 5.325 6.88448 5.12553 7.00267ZM6.21086 6.15876C6.03035 6.07896 5.77931 6.10983 5.5806 6.2077C5.42208 6.28524 5.26964 6.4772 5.23399 6.61346C5.42663 6.57356 5.61169 6.50807 5.78462 6.4087C5.83847 6.37783 5.88928 6.34245 5.93934 6.30631C5.74214 6.47645 5.5131 6.59991 5.26357 6.67519C5.4236 6.75047 5.6261 6.73391 5.79979 6.64884C5.96437 6.56829 6.1517 6.36127 6.21086 6.15876ZM8.03414 16.5785C8.12136 16.5626 8.20858 16.5453 8.29429 16.5197C8.56732 16.4392 8.81685 16.312 9.04741 16.1509C8.86918 16.0515 8.51727 16.0176 8.28063 16.1049C7.98409 16.2148 7.70574 16.4452 7.61473 16.714C7.88625 16.8555 8.28822 16.8675 8.53319 16.7772C8.79182 16.6816 9.00722 16.4866 9.08382 16.2435C8.76073 16.4294 8.40654 16.5438 8.03414 16.5785ZM6.2776 15.6909C6.3633 15.6969 6.44901 15.7007 6.53471 15.6969C6.81002 15.6856 7.07472 15.6269 7.32955 15.532C7.18621 15.3995 6.86539 15.2874 6.62345 15.313C6.31932 15.3453 6.00305 15.4929 5.85212 15.7187C6.07206 15.9115 6.44522 16.0154 6.69626 15.9882C6.96171 15.9604 7.21048 15.8309 7.34093 15.6254C6.99357 15.721 6.63482 15.7451 6.2776 15.6909ZM4.90862 14.4653C4.9875 14.4902 5.06713 14.5135 5.14905 14.5293C5.40995 14.5812 5.67161 14.585 5.93251 14.5541C5.82861 14.3976 5.55329 14.2191 5.31969 14.189C5.02694 14.1506 4.69626 14.2176 4.50286 14.3953C4.66516 14.6257 4.99129 14.8078 5.23247 14.8395C5.48807 14.8733 5.75125 14.8078 5.92114 14.6445C5.57377 14.6558 5.23096 14.5963 4.90862 14.4653ZM5.00343 13.5431C4.68337 13.4437 4.38985 13.2819 4.13881 13.0613C4.20327 13.1087 4.26774 13.1547 4.33676 13.1953C4.55746 13.3248 4.79486 13.4114 5.04211 13.4648C4.99736 13.2894 4.80396 13.041 4.60145 12.9394C4.34738 12.8121 4.02504 12.7685 3.7922 12.8693C3.86653 13.1298 4.10544 13.3986 4.31476 13.504C4.53623 13.6146 4.79713 13.638 5.00343 13.5431ZM4.36937 12.3017C4.07813 12.1625 3.82254 11.9667 3.61473 11.7205C3.66933 11.7748 3.72394 11.8282 3.78386 11.8764C3.97574 12.0307 4.18886 12.1466 4.41715 12.2325C4.39971 12.0593 4.25106 11.7951 4.07282 11.6694C3.84908 11.512 3.54798 11.4254 3.31211 11.4887C3.34548 11.7477 3.53433 12.0375 3.71863 12.167C3.91431 12.304 4.15853 12.3635 4.36937 12.3017ZM3.95147 11.0084C3.71484 10.8081 3.52447 10.565 3.39175 10.2857C3.42891 10.3489 3.46759 10.4122 3.51158 10.4709C3.65265 10.6606 3.82254 10.8202 4.01366 10.9549C4.04021 10.7893 3.96664 10.5078 3.83088 10.3482C3.66099 10.1479 3.40236 9.99435 3.16725 9.99661C3.13464 10.245 3.2393 10.5605 3.37961 10.7253C3.52751 10.9007 3.74063 11.0152 3.95147 11.0084ZM3.82254 9.64429C3.63824 9.41167 3.50551 9.14668 3.43346 8.8591C3.45621 8.92611 3.48048 8.99235 3.51082 9.05634C3.60714 9.26111 3.73684 9.44329 3.8908 9.6059C3.94692 9.45533 3.93175 9.17604 3.83467 9.00063C3.71257 8.78006 3.49869 8.58734 3.27722 8.54518C3.1991 8.77328 3.23778 9.08947 3.33866 9.27089C3.44408 9.46286 3.62307 9.61041 3.82254 9.64429ZM4.03566 8.34719C3.8908 8.10253 3.79979 7.83377 3.76869 7.55147C3.78158 7.61772 3.79599 7.68396 3.81647 7.74871C3.88094 7.95573 3.98029 8.14544 4.10544 8.32009C4.17825 8.18458 4.20024 7.91734 4.13122 7.73817C4.04476 7.51307 3.86653 7.30229 3.66175 7.23378C3.55784 7.44005 3.55329 7.74569 3.62459 7.93089C3.70043 8.12662 3.8506 8.28922 4.03566 8.34719ZM4.43687 7.25486C4.3542 6.99589 4.3269 6.72638 4.35875 6.45612C4.35648 6.52087 4.35572 6.58561 4.36103 6.6496C4.37696 6.85662 4.42929 7.05386 4.50817 7.24357C4.60525 7.13215 4.68337 6.88824 4.65682 6.70606C4.62421 6.47796 4.50362 6.24383 4.3269 6.13618C4.18583 6.30707 4.11605 6.59013 4.1426 6.77833C4.17142 6.97782 4.27684 7.16226 4.43687 7.25486ZM5.06486 5.61598C5.04969 5.67546 5.03528 5.73568 5.02694 5.79741C4.99888 5.99314 5.00646 6.18812 5.04135 6.38084C5.15511 6.29728 5.27798 6.08499 5.29087 5.91033C5.30756 5.69127 5.24309 5.44811 5.10126 5.31185C4.93441 5.44208 4.81078 5.69277 4.79713 5.87345C4.78272 6.06466 4.84264 6.25813 4.97309 6.37708C4.94958 6.11811 4.97916 5.8614 5.06486 5.61598ZM5.97953 5.46091C6.01594 5.41498 6.04779 5.36605 6.07889 5.31636C5.96664 5.53468 5.8104 5.72288 5.61852 5.87571C5.78538 5.88549 5.95678 5.80042 6.07889 5.66492C6.19341 5.53769 6.28443 5.29002 6.26471 5.09203C6.07813 5.08525 5.86956 5.20043 5.73077 5.35551C5.62004 5.47897 5.55481 5.7003 5.5715 5.83204C5.72546 5.73041 5.86349 5.60846 5.97953 5.46091ZM13.9651 14.5022C14.1972 14.2854 14.4126 14.052 14.6098 13.8036C14.8062 13.5544 14.9814 13.2902 15.1354 13.0139C15.4441 12.4606 15.6504 11.8561 15.774 11.2387C15.8354 10.9293 15.8764 10.6162 15.8938 10.3022C15.9105 9.98757 15.9052 9.67214 15.8771 9.35897C15.8491 9.0458 15.7952 8.73414 15.7201 8.42925C15.6443 8.12436 15.5457 7.82399 15.4221 7.53491C15.1763 6.95524 14.8388 6.41547 14.4285 5.93819C14.8343 6.41999 15.1657 6.96202 15.4054 7.54243C15.526 7.83227 15.6208 8.13189 15.6936 8.43678C15.7657 8.74167 15.8165 9.05107 15.8407 9.36349C15.8658 9.67515 15.868 9.98908 15.8483 10.3015C15.8278 10.6139 15.7839 10.9241 15.7201 11.2297C15.5912 11.841 15.3811 12.438 15.0709 12.9808C14.9162 13.2525 14.7402 13.5115 14.5446 13.7554C14.3481 13.9986 14.1327 14.2267 13.9022 14.4382C13.6701 14.6482 13.4244 14.8425 13.165 15.0179C12.9048 15.1918 12.6341 15.3506 12.3519 15.4861C12.2116 15.5554 12.0675 15.6171 11.9227 15.6758C11.777 15.7323 11.6299 15.7872 11.4805 15.8332C11.4062 15.858 11.3303 15.8776 11.2552 15.9002C11.1786 15.9212 11.102 15.9438 11.0262 15.9672C10.8737 16.0138 10.7228 16.0665 10.5741 16.126C10.3747 16.2058 10.1798 16.2992 9.9947 16.4106C9.80964 16.2992 9.61397 16.2051 9.41526 16.126C9.2666 16.0665 9.11567 16.0146 8.96323 15.9672C8.88738 15.9438 8.81078 15.922 8.73418 15.9002C8.6591 15.8776 8.58325 15.858 8.50892 15.8332C8.35951 15.7872 8.21238 15.7323 8.06676 15.6758C7.92189 15.6171 7.77779 15.5546 7.63748 15.4861C7.35534 15.3506 7.08458 15.1918 6.82443 15.0179C6.56505 14.8425 6.31856 14.6482 6.08723 14.4382C5.85667 14.2267 5.64203 13.9986 5.44484 13.7554C5.24916 13.5115 5.0732 13.2525 4.91848 12.9808C4.60828 12.438 4.39819 11.8418 4.26926 11.2297C4.20555 10.9233 4.16156 10.6132 4.14108 10.3015C4.12136 9.98908 4.12364 9.67591 4.14867 9.36349C4.17294 9.05182 4.22375 8.74167 4.2958 8.43678C4.36861 8.13189 4.46342 7.83227 4.58401 7.54243C4.82368 6.96277 5.15511 6.41999 5.56088 5.93819C5.15056 6.41547 4.81306 6.95599 4.56732 7.53491C4.4437 7.82399 4.34586 8.12436 4.26926 8.42925C4.19417 8.73489 4.13957 9.0458 4.11226 9.35897C4.0842 9.67214 4.07889 9.98833 4.09558 10.3022C4.11302 10.6169 4.15398 10.9301 4.21541 11.2387C4.33903 11.8561 4.54533 12.4613 4.85401 13.0139C5.00798 13.2902 5.18393 13.5552 5.37961 13.8036C5.5768 14.052 5.7922 14.2854 6.02428 14.5022C6.25712 14.7175 6.50513 14.917 6.76679 15.0977C7.02921 15.2768 7.30301 15.4402 7.58818 15.581C7.73077 15.6525 7.87639 15.7172 8.02277 15.7782C8.17066 15.8377 8.31931 15.8949 8.47176 15.9431C8.54685 15.9687 8.62421 15.9898 8.70005 16.0138C8.77514 16.0357 8.85022 16.0583 8.92531 16.0816C9.07472 16.129 9.22186 16.1817 9.36596 16.2412C9.53964 16.3127 9.70801 16.394 9.8688 16.4881C9.82178 16.5197 9.77552 16.5514 9.73077 16.5852C9.60183 16.6816 9.48124 16.79 9.36975 16.9059C9.25826 17.0219 9.15587 17.1446 9.05727 17.2688L9.17256 17.3576C9.26812 17.2342 9.36596 17.1137 9.47214 17.0023C9.57756 16.8901 9.69133 16.7862 9.81419 16.6929C9.87259 16.6477 9.93327 16.6056 9.9947 16.5657C10.0561 16.6063 10.1168 16.6485 10.1752 16.6929C10.2973 16.7862 10.4111 16.8901 10.5173 17.0023C10.6234 17.1145 10.7213 17.2342 10.8168 17.3576L10.9321 17.2688C10.8335 17.1446 10.7311 17.0211 10.6197 16.9059C10.5082 16.79 10.3876 16.6816 10.2586 16.5852C10.2139 16.5514 10.1669 16.519 10.1206 16.4881C10.2806 16.394 10.4498 16.312 10.6234 16.2412C10.7676 16.1817 10.9147 16.129 11.0641 16.0816C11.1384 16.0583 11.2135 16.0357 11.2894 16.0138C11.366 15.9905 11.4426 15.9694 11.5176 15.9431C11.6693 15.8949 11.8187 15.8377 11.9666 15.7782C12.1138 15.7165 12.2594 15.6525 12.4012 15.581C12.6872 15.4402 12.9602 15.2768 13.2226 15.0977C13.4835 14.917 13.7315 14.7175 13.9651 14.5022ZM11.5912 15.1398C11.5176 15.1895 11.4456 15.2407 11.3781 15.2987C11.1619 15.4824 10.9845 15.6992 10.8388 15.9378C11.0406 15.9544 11.3735 15.8422 11.5541 15.6676C11.7808 15.4477 11.9424 15.127 11.9196 14.8485C11.617 14.8319 11.2461 14.9847 11.0596 15.1654C10.8624 15.3566 10.7433 15.6201 10.7691 15.8701C10.9898 15.5697 11.2666 15.3228 11.5912 15.1398ZM12.8654 14.4819C12.81 14.5466 12.7554 14.6129 12.7076 14.6836C12.5529 14.9102 12.4437 15.1564 12.3694 15.4161C12.5613 15.3807 12.8434 15.1918 12.967 14.9825C13.1217 14.7205 13.19 14.3802 13.0967 14.1258C12.81 14.1868 12.5036 14.4232 12.3762 14.6392C12.2412 14.8681 12.198 15.1436 12.2867 15.3694C12.4156 15.0352 12.6098 14.7341 12.8654 14.4819ZM13.8855 13.4821C13.8529 13.5582 13.8218 13.6342 13.7975 13.7132C13.7201 13.9662 13.6898 14.2244 13.6959 14.4849C13.8627 14.3976 14.069 14.1431 14.1221 13.9158C14.1896 13.6304 14.1547 13.2969 13.9962 13.0892C13.7497 13.2269 13.5351 13.5311 13.479 13.7667C13.4198 14.0159 13.4592 14.2824 13.6064 14.4661C13.6291 14.1198 13.7217 13.787 13.8855 13.4821ZM14.6128 13.437C14.7562 13.3255 14.9071 13.0493 14.9185 12.8242C14.9329 12.5419 14.8419 12.2317 14.6545 12.0616C14.4445 12.2347 14.2935 12.5599 14.2822 12.7926C14.27 13.0387 14.3534 13.2849 14.5249 13.434C14.4862 13.1027 14.5165 12.7715 14.6181 12.4538C14.6007 12.5313 14.584 12.6089 14.5749 12.6879C14.5453 12.9409 14.562 13.1908 14.6128 13.437ZM15.1293 11.4699C15.1475 11.7145 15.209 11.9479 15.3015 12.1715C15.4168 12.0405 15.5093 11.7514 15.479 11.5369C15.441 11.2674 15.2985 10.9903 15.0906 10.8631C14.9238 11.0641 14.8404 11.3991 14.8715 11.6219C14.9048 11.8568 15.0292 12.0751 15.2181 12.185C15.121 11.8794 15.0891 11.5602 15.1278 11.241C15.1248 11.317 15.124 11.3938 15.1293 11.4699ZM15.5958 10.9414C15.6815 10.7968 15.7164 10.5078 15.6496 10.3105C15.5654 10.0621 15.3811 9.82572 15.1619 9.74216C15.0398 9.96198 15.0216 10.2932 15.0914 10.498C15.165 10.714 15.3212 10.8985 15.5199 10.9685C15.3735 10.6967 15.2863 10.4009 15.2651 10.093C15.2765 10.166 15.2894 10.2383 15.3083 10.309C15.3682 10.5371 15.4676 10.7464 15.5958 10.9414ZM15.733 9.67591C15.7793 9.52158 15.7452 9.24455 15.6367 9.07516C15.501 8.86287 15.2742 8.68445 15.0504 8.6566C14.9875 8.88922 15.0474 9.20239 15.1589 9.37704C15.2772 9.56223 15.4661 9.69774 15.6671 9.71807C15.4676 9.49824 15.3174 9.24229 15.2272 8.95998C15.2545 9.02548 15.2833 9.08947 15.3174 9.15195C15.4266 9.34994 15.5685 9.52309 15.733 9.67591ZM15.5715 8.51055C15.573 8.35698 15.4683 8.11006 15.3235 7.98208C15.1422 7.82248 14.8859 7.71709 14.672 7.74946C14.6758 7.97982 14.8138 8.25309 14.9632 8.38483C15.1217 8.5241 15.3311 8.60014 15.5222 8.56626C15.2803 8.4157 15.074 8.21921 14.9154 7.98283C14.9579 8.03553 15.0012 8.08747 15.0489 8.13565C15.2037 8.28998 15.3796 8.41269 15.5715 8.51055ZM15.1915 7.45511C15.1657 7.30981 15.0224 7.09677 14.8631 7.00267C14.6636 6.88448 14.4043 6.83103 14.2093 6.90028C14.2548 7.11634 14.4331 7.34821 14.5977 7.44532C14.7713 7.54846 14.9822 7.58233 15.1551 7.51684C14.9003 7.41822 14.6712 7.26992 14.4801 7.07644C14.5294 7.1186 14.5795 7.16 14.6333 7.19614C14.8055 7.31358 14.9936 7.39714 15.1915 7.45511ZM14.7539 6.61346C14.7183 6.4772 14.5658 6.28524 14.4073 6.2077C14.2086 6.11058 13.9575 6.07896 13.777 6.15876C13.8362 6.36127 14.0243 6.56829 14.1881 6.64809C14.3618 6.73316 14.5643 6.74972 14.7243 6.67444C14.4748 6.59991 14.245 6.4757 14.0486 6.30556C14.0986 6.3417 14.1494 6.37708 14.2033 6.40794C14.3762 6.50732 14.5613 6.57356 14.7539 6.61346ZM11.708 16.1049C11.4714 16.0176 11.1202 16.0515 10.9412 16.1509C11.1718 16.312 11.4213 16.4392 11.6944 16.5197C11.7793 16.5453 11.8665 16.5626 11.9545 16.5785C11.5829 16.5438 11.2279 16.4294 10.9056 16.2435C10.9822 16.4859 11.1976 16.6816 11.4562 16.7772C11.7004 16.8675 12.1032 16.8555 12.3747 16.714C12.2829 16.4445 12.0046 16.2141 11.708 16.1049ZM13.3652 15.313C13.1225 15.2874 12.8017 15.3995 12.6591 15.532C12.9139 15.6269 13.1786 15.6856 13.4539 15.6969C13.5396 15.7007 13.6253 15.6962 13.711 15.6909C13.3546 15.7451 12.9951 15.721 12.6477 15.6254C12.7782 15.8309 13.0269 15.9604 13.2924 15.9882C13.5427 16.0146 13.9166 15.9107 14.1365 15.7187C13.9856 15.4921 13.6693 15.3453 13.3652 15.313ZM14.669 14.189C14.4354 14.2199 14.16 14.3976 14.0561 14.5541C14.317 14.5858 14.5787 14.5812 14.8396 14.5293C14.9208 14.5135 15.0004 14.4902 15.08 14.4653C14.7577 14.5963 14.4149 14.6558 14.0675 14.6437C14.2366 14.8071 14.5006 14.8718 14.7562 14.8387C14.9974 14.8071 15.3242 14.6249 15.4858 14.3945C15.2924 14.2169 14.9617 14.1499 14.669 14.189ZM15.3872 12.9386C15.1847 13.0402 14.9913 13.2894 14.9465 13.4641C15.1938 13.4106 15.4312 13.324 15.6519 13.1946C15.7209 13.1539 15.7861 13.108 15.8498 13.0606C15.5988 13.2819 15.3053 13.4437 14.9852 13.5424C15.1915 13.6372 15.4524 13.6139 15.6739 13.5025C15.8832 13.3978 16.1221 13.1291 16.1964 12.8678C15.9636 12.7685 15.6413 12.8114 15.3872 12.9386ZM15.9158 11.6694C15.7376 11.7943 15.5889 12.0593 15.5715 12.2325C15.799 12.1466 16.0129 12.0307 16.2048 11.8764C16.2647 11.8282 16.3201 11.7755 16.3739 11.7205C16.1661 11.9667 15.9105 12.1625 15.6193 12.3017C15.8294 12.3635 16.0743 12.304 16.27 12.1662C16.4543 12.0367 16.6432 11.7469 16.6765 11.4879C16.4407 11.4254 16.1396 11.512 15.9158 11.6694ZM16.1578 10.3489C16.022 10.5085 15.9492 10.7901 15.975 10.9557C16.1661 10.8209 16.336 10.6613 16.4771 10.4716C16.5211 10.4122 16.5597 10.3497 16.5969 10.2864C16.4642 10.5657 16.2738 10.8089 16.0372 11.0091C16.248 11.0159 16.4611 10.9015 16.609 10.7261C16.7493 10.5612 16.854 10.2458 16.8214 9.99736C16.5863 9.9951 16.3277 10.1487 16.1578 10.3489ZM16.154 9.00063C16.0569 9.17604 16.041 9.45533 16.0979 9.6059C16.2518 9.44329 16.3815 9.26111 16.4778 9.05634C16.5082 8.99235 16.5324 8.92611 16.5552 8.8591C16.4831 9.14668 16.3504 9.41167 16.1661 9.64429C16.3656 9.61117 16.5446 9.46361 16.6508 9.27089C16.7509 9.08947 16.7903 8.77328 16.7122 8.54518C16.49 8.58734 16.2761 8.78006 16.154 9.00063ZM15.8832 8.31934C16.0084 8.14469 16.1077 7.95573 16.1722 7.74795C16.1927 7.68321 16.2071 7.61696 16.22 7.55072C16.1889 7.83302 16.0979 8.10177 15.953 8.34644C16.138 8.28923 16.289 8.12587 16.3641 7.92938C16.4354 7.74419 16.4308 7.43855 16.3269 7.23228C16.1221 7.30078 15.9439 7.51157 15.8574 7.73666C15.7877 7.91658 15.8096 8.18383 15.8832 8.31934ZM15.6276 6.65035C15.6329 6.58561 15.6314 6.52087 15.6299 6.45688C15.6617 6.72638 15.6344 6.99664 15.5518 7.25561C15.7118 7.16302 15.8172 6.97858 15.846 6.77983C15.8726 6.59163 15.8028 6.30857 15.6617 6.13768C15.4858 6.24534 15.3644 6.47946 15.3318 6.70756C15.306 6.88974 15.3834 7.13366 15.4805 7.24507C15.5601 7.05461 15.6117 6.85737 15.6276 6.65035ZM14.9473 6.38084C14.9822 6.18812 14.9898 5.9939 14.9617 5.79741C14.9526 5.73643 14.939 5.67621 14.9238 5.61598C15.0095 5.86065 15.0391 6.11811 15.0156 6.37633C15.146 6.25738 15.2059 6.06391 15.1915 5.87269C15.1779 5.69202 15.0542 5.44133 14.8874 5.3111C14.7448 5.44735 14.6811 5.68976 14.6978 5.90958C14.7107 6.08499 14.8335 6.29728 14.9473 6.38084ZM14.3701 5.87646C14.1782 5.72364 14.0212 5.53468 13.9098 5.31712C13.9409 5.3668 13.9727 5.41574 14.0091 5.46166C14.1252 5.60921 14.2639 5.73116 14.4187 5.83355C14.4354 5.70181 14.3709 5.48048 14.2594 5.35702C14.1198 5.20194 13.9113 5.08676 13.7255 5.09353C13.7057 5.29152 13.796 5.53844 13.9113 5.66642C14.0319 5.80118 14.2033 5.887 14.3701 5.87646ZM9.67768 3.67373L8.9693 3.77686L9.482 4.27899L9.36141 4.98814L9.9947 4.65389L10.628 4.98814L10.5066 4.27899L11.0194 3.77686L10.311 3.67373L9.99395 3.02856L9.67768 3.67373ZM7.55405 4.28953L7.10733 4.35502L7.43043 4.67196L7.35382 5.11913L7.75352 4.90834L8.15322 5.11913L8.07661 4.67196L8.39971 4.35502L7.95299 4.28953L7.75352 3.88301L7.55405 4.28953ZM12.0349 4.28953L11.5882 4.35502L11.9113 4.67196L11.8347 5.11913L12.2344 4.90834L12.6341 5.11913L12.5575 4.67196L12.8806 4.35502L12.4338 4.28953L12.2344 3.88301L12.0349 4.28953Z" fill="url(#paint4_linear_20_825)"/>
</g>
<defs>
<linearGradient id="paint0_linear_20_825" x1="7.92045" y1="19.6958" x2="12.0207" y2="0.26154" gradientUnits="userSpaceOnUse">
<stop stop-color="#898989"/>
<stop offset="0.0413" stop-color="#8F8F8F"/>
<stop offset="0.1007" stop-color="#A2A2A2"/>
<stop offset="0.1707" stop-color="#C1C1C1"/>
<stop offset="0.2399" stop-color="#E7E7E7"/>
<stop offset="0.2739" stop-color="#D8D8D8"/>
<stop offset="0.346" stop-color="#BEBEBE"/>
<stop offset="0.3888" stop-color="#B4B4B4"/>
<stop offset="0.7334" stop-color="#B7B7B7"/>
<stop offset="0.7866" stop-color="#CCCCCC"/>
<stop offset="0.8707" stop-color="#E8E8E8"/>
<stop offset="0.9447" stop-color="#F9F9F9"/>
<stop offset="1" stop-color="white"/>
</linearGradient>
<linearGradient id="paint1_linear_20_825" x1="15.2952" y1="18.0783" x2="4.8154" y2="1.82026" gradientUnits="userSpaceOnUse">
<stop stop-color="#898989"/>
<stop offset="0.0413" stop-color="#8F8F8F"/>
<stop offset="0.1007" stop-color="#A2A2A2"/>
<stop offset="0.1707" stop-color="#C1C1C1"/>
<stop offset="0.2399" stop-color="#E7E7E7"/>
<stop offset="0.2739" stop-color="#D8D8D8"/>
<stop offset="0.346" stop-color="#BEBEBE"/>
<stop offset="0.3888" stop-color="#B4B4B4"/>
<stop offset="0.5239" stop-color="#B7B7B7"/>
<stop offset="0.5604" stop-color="#CCCCCC"/>
<stop offset="0.6183" stop-color="#E8E8E8"/>
<stop offset="0.6692" stop-color="#F9F9F9"/>
<stop offset="0.7072" stop-color="white"/>
<stop offset="0.7838" stop-color="#D8D8D8"/>
<stop offset="0.8802" stop-color="#ADADAD"/>
<stop offset="0.9555" stop-color="#929292"/>
<stop offset="1" stop-color="#898989"/>
</linearGradient>
<linearGradient id="paint2_linear_20_825" x1="12.7949" y1="-1.34991" x2="8.29801" y2="18.2468" gradientUnits="userSpaceOnUse">
<stop stop-color="#898989"/>
<stop offset="0.0413" stop-color="#8F8F8F"/>
<stop offset="0.1007" stop-color="#A2A2A2"/>
<stop offset="0.1707" stop-color="#C1C1C1"/>
<stop offset="0.2399" stop-color="#E7E7E7"/>
<stop offset="0.2739" stop-color="#D8D8D8"/>
<stop offset="0.346" stop-color="#BEBEBE"/>
<stop offset="0.3888" stop-color="#B4B4B4"/>
<stop offset="0.5239" stop-color="#B7B7B7"/>
<stop offset="0.6188" stop-color="#CCCCCC"/>
<stop offset="0.7692" stop-color="#E8E8E8"/>
<stop offset="0.9013" stop-color="#F9F9F9"/>
<stop offset="1" stop-color="white"/>
</linearGradient>
<linearGradient id="paint3_linear_20_825" x1="9.99066" y1="13.2454" x2="9.99066" y2="6.41219" gradientUnits="userSpaceOnUse">
<stop stop-color="#8A8A88"/>
<stop offset="0.4131" stop-color="#6D6D6B"/>
<stop offset="0.5186" stop-color="#656563"/>
<stop offset="1" stop-color="#C0BEAD"/>
</linearGradient>
<linearGradient id="paint4_linear_20_825" x1="9.99424" y1="17.3582" x2="9.99424" y2="3.02869" gradientUnits="userSpaceOnUse">
<stop stop-color="#8A8A88"/>
<stop offset="0.4131" stop-color="#6D6D6B"/>
<stop offset="0.5186" stop-color="#656563"/>
<stop offset="1" stop-color="#C0BEAD"/>
</linearGradient>
<clipPath id="clip0_20_825">
<rect width="20" height="20" fill="white"/>
</clipPath>
</defs>
</svg>
