<svg width="132" height="133" viewBox="0 0 132 133" fill="none" xmlns="http://www.w3.org/2000/svg">
<g clip-path="url(#clip0_51_2379)">
<path d="M112.325 113.312C137.908 87.7286 137.908 46.2499 112.325 20.6667C86.7418 -4.91651 45.2632 -4.91651 19.68 20.6667C-5.90327 46.2499 -5.90327 87.7286 19.68 113.312C45.2632 138.895 86.7418 138.895 112.325 113.312Z" fill="#7F7F7F"/>
<path d="M112.323 112.333C137.906 86.7501 137.906 45.2714 112.323 19.6882C86.7399 -5.89503 45.2612 -5.89503 19.678 19.6882C-5.90522 45.2714 -5.90522 86.7501 19.678 112.333C45.2612 137.917 86.7399 137.917 112.323 112.333Z" fill="white"/>
<path d="M66.0028 131.914C102.183 131.914 131.513 102.584 131.513 66.4032C131.513 30.2227 102.183 0.892578 66.0028 0.892578C29.8223 0.892578 0.492188 30.2227 0.492188 66.4032C0.492188 102.584 29.8223 131.914 66.0028 131.914Z" fill="url(#paint0_linear_51_2379)"/>
<path d="M66.0014 130.08C101.169 130.08 129.679 101.571 129.679 66.4028C129.679 31.2348 101.169 2.72559 66.0014 2.72559C30.8335 2.72559 2.32422 31.2348 2.32422 66.4028C2.32422 101.571 30.8335 130.08 66.0014 130.08Z" fill="url(#paint1_linear_51_2379)"/>
<path d="M66.0003 122.036C96.7256 122.036 121.633 97.1279 121.633 66.4026C121.633 35.6773 96.7256 10.7695 66.0003 10.7695C35.275 10.7695 10.3672 35.6773 10.3672 66.4026C10.3672 97.1279 35.275 122.036 66.0003 122.036Z" fill="url(#paint2_linear_51_2379)"/>
<path d="M58.7032 57.6684L42.5156 60.0483L54.2265 71.6052L51.464 87.922L65.9424 80.2157L80.4208 87.922L77.6533 71.6052L89.3643 60.0483L73.1816 57.6684L65.9424 42.8223L58.7032 57.6684Z" fill="url(#paint3_linear_51_2379)"/>
<path d="M55.7452 104.158C54.2596 102.708 53.2013 100.591 53.3503 98.7526C55.3328 98.6433 57.7624 99.647 58.9847 100.844C60.2765 102.106 61.0566 103.845 60.8877 105.495C59.4468 103.522 57.6283 101.888 55.5067 100.685C55.9887 101.013 56.4607 101.351 56.9029 101.734C58.3189 102.946 59.4816 104.377 60.4355 105.952C59.1089 106.056 56.9277 105.316 55.7452 104.158ZM50.404 102.504C49.9171 100.79 49.1966 99.165 48.188 97.6695C47.87 97.2025 47.5172 96.7652 47.1545 96.3379C48.8289 98.0024 50.1009 99.9898 50.9456 102.196C51.5269 100.705 51.2437 98.8818 50.3593 97.3763C49.5246 95.9504 47.5172 94.3952 45.6391 93.9878C45.028 95.6672 45.4752 97.9129 46.4888 99.642C47.2986 101.023 49.1469 102.27 50.404 102.504ZM39.7464 87.1411C38.703 88.5174 38.4794 90.7135 38.9216 92.5966C39.2744 94.0971 40.6209 95.7765 41.714 96.3528C41.7537 94.6337 41.555 92.9295 41.0482 91.26C40.8892 90.7383 40.6855 90.2365 40.4718 89.7347C41.5401 91.7519 42.1512 93.9431 42.2953 96.2187C43.2592 95.0063 43.5175 93.2475 43.13 91.6029C42.7673 90.0576 41.3612 88.0454 39.7464 87.1411ZM37.8733 85.1884C37.7987 83.6532 36.81 81.5018 35.4337 80.364C34.2065 81.4869 33.6152 83.5339 33.7046 85.3971C33.7792 86.8827 34.7679 88.7062 35.707 89.4415C36.0399 87.8168 36.1492 86.1673 35.9554 84.4978C35.8958 83.9761 35.7914 83.4643 35.6722 82.9526C36.338 85.0493 36.5367 87.2355 36.2833 89.4217C37.4062 88.4379 37.9528 86.8132 37.8733 85.1884ZM31.742 81.1738C32.9792 80.4484 33.7941 79.0125 34.0127 77.4573C34.2164 75.9916 33.6748 73.7806 32.5768 72.449C31.2154 73.2887 30.2813 75.1172 30.0329 76.8959C29.8341 78.3169 30.4403 80.2199 31.1955 81.0844C31.8066 79.6087 32.2041 78.0635 32.3234 76.4537C32.3631 75.9519 32.3532 75.4451 32.3383 74.9433C32.5867 77.0499 32.378 79.1566 31.742 81.1738ZM32.5768 70.0442C33.0339 68.6978 32.9097 66.5066 32.1147 65.0558C30.6738 65.6073 29.4714 67.1674 28.9199 68.8071C28.4777 70.1138 28.7112 72.0217 29.2727 72.9707C30.1123 71.6839 30.7632 70.2976 31.1657 68.7922C31.2899 68.3251 31.3744 67.8432 31.4489 67.3662C31.3098 69.3983 30.7384 71.351 29.7795 73.1446C31.0713 72.6875 32.0948 71.4702 32.5768 70.0442ZM28.3684 64.6186C29.4466 63.6099 30.3707 62.4721 31.0912 61.1604C31.3147 60.753 31.5035 60.3257 31.6824 59.8935C31.0862 61.7567 30.1074 63.446 28.8006 64.8968C30.1173 64.7627 31.3545 63.8683 32.1296 62.646C32.8649 61.4933 33.2525 59.4264 32.8401 57.8911C31.3744 58.075 29.8888 59.2525 28.9994 60.6536C28.2889 61.7716 28.0653 63.6 28.3684 64.6186ZM29.7447 57.2999C30.9968 57.5234 32.3681 57.0216 33.4065 56.1024C34.3853 55.2329 35.2896 53.4343 35.3144 51.909C33.9133 51.6903 32.2389 52.3859 31.0464 53.4443C30.0974 54.2839 29.4118 55.9136 29.4217 56.9322C30.6788 56.2863 31.8315 55.4814 32.8401 54.4628C33.1531 54.1448 33.4413 53.802 33.7146 53.4542C32.6811 55.0044 31.3296 56.3012 29.7447 57.2999ZM34.0673 46.9752C33.0239 47.5962 32.0898 49.0024 31.9159 49.9613C33.2127 49.5837 34.44 49.0272 35.5728 48.2521C35.9256 48.0086 36.2535 47.7403 36.5765 47.4621C35.3194 48.739 33.8189 49.7178 32.1544 50.3687C33.2873 50.801 34.6685 50.5774 35.8063 49.8967C36.8845 49.2557 38.0521 47.7254 38.3502 46.2994C37.0733 45.8423 35.3741 46.1951 34.0673 46.9752ZM41.1774 41.4054C39.9948 40.8787 38.3502 41.0825 37.0485 41.7284C36.01 42.2401 35.0114 43.5071 34.7778 44.4064C36.0399 44.1431 37.2522 43.7108 38.385 43.055C38.7378 42.8513 39.0707 42.6177 39.3986 42.3792C38.1068 43.5021 36.6063 44.317 34.9716 44.8138C36.02 45.3107 37.3466 45.2014 38.4844 44.6399C39.5626 44.1083 40.7898 42.742 41.1774 41.4054ZM53.1218 110.175C53.6932 110.071 54.2646 109.957 54.826 109.788C56.6147 109.256 58.2494 108.417 59.7598 107.353C58.5922 106.697 56.2868 106.474 54.7366 107.05C52.7939 107.776 50.9704 109.296 50.3742 111.07C52.1529 112.004 54.7863 112.083 56.3911 111.487C58.0854 110.856 59.4965 109.569 59.9983 107.964C57.8817 109.192 55.5614 109.947 53.1218 110.175ZM41.6146 104.317C42.176 104.357 42.7375 104.382 43.2989 104.357C45.1025 104.283 46.8366 103.895 48.506 103.269C47.5669 102.395 45.4652 101.654 43.8803 101.823C41.8879 102.037 39.816 103.011 38.8272 104.501C40.2681 105.773 42.7126 106.459 44.3572 106.28C46.0962 106.096 47.7259 105.242 48.5805 103.885C46.3049 104.516 43.9548 104.675 41.6146 104.317ZM32.6463 96.2286C33.1631 96.3926 33.6848 96.5466 34.2214 96.6509C35.9305 96.9938 37.6447 97.0186 39.3539 96.8149C38.6732 95.7814 36.8696 94.6039 35.3393 94.4051C33.4214 94.1517 31.2551 94.594 29.9881 95.7665C31.0514 97.2869 33.1879 98.4893 34.7679 98.698C36.4423 98.9216 38.1664 98.4893 39.2794 97.4111C37.0038 97.4857 34.758 97.0981 32.6463 96.2286ZM33.2674 90.1421C31.1707 89.4863 29.2478 88.418 27.6032 86.9622C28.0255 87.2752 28.4479 87.5783 28.9 87.8466C30.3459 88.7012 31.901 89.2726 33.5208 89.6254C33.2276 88.4677 31.9607 86.8281 30.634 86.1573C28.9696 85.3176 26.8579 85.0295 25.3326 85.6952C25.8195 87.4144 27.3846 89.1881 28.7559 89.8837C30.2068 90.6141 31.9159 90.7731 33.2674 90.1421ZM29.1137 81.9489C27.2057 81.0297 25.5313 79.7379 24.1699 78.1132C24.5277 78.4709 24.8854 78.8237 25.2779 79.1417C26.535 80.1603 27.9311 80.9254 29.4267 81.4918C29.3124 80.3491 28.3386 78.6051 27.171 77.7753C25.7052 76.7369 23.7327 76.1655 22.1875 76.5829C22.4061 78.2921 23.6433 80.205 24.8506 81.0596C26.1325 81.9638 27.7324 82.3564 29.1137 81.9489ZM26.376 73.4179C24.8258 72.0963 23.5787 70.4914 22.7092 68.6481C22.9526 69.0654 23.206 69.4828 23.4942 69.8703C24.4184 71.1224 25.5313 72.1758 26.7834 73.0651C26.9573 71.9721 26.4754 70.1138 25.586 69.0605C24.473 67.7388 22.7787 66.7252 21.2385 66.7401C21.0248 68.3798 21.7105 70.4616 22.6297 71.5497C23.5986 72.7024 24.9947 73.4576 26.376 73.4179ZM25.5313 64.4099C24.324 62.8746 23.4545 61.1257 22.9825 59.2277C23.1315 59.6699 23.2905 60.1071 23.4892 60.5294C24.1203 61.8809 24.9699 63.0833 25.9785 64.1565C26.3462 63.1628 26.2468 61.3194 25.6108 60.1618C24.8109 58.706 23.4097 57.434 21.9589 57.1558C21.4472 58.6612 21.7006 60.748 22.3614 61.9455C23.052 63.2125 24.2246 64.1863 25.5313 64.4099ZM26.9275 55.849C25.9785 54.2343 25.3823 52.4605 25.1786 50.5973C25.263 51.0345 25.3574 51.4717 25.4916 51.899C25.9139 53.2654 26.5648 54.5175 27.3846 55.6702C27.8616 54.7758 28.0057 53.012 27.5535 51.8295C26.9871 50.3439 25.8195 48.9527 24.478 48.5005C23.7973 49.8619 23.7675 51.8792 24.2345 53.1014C24.7314 54.3933 25.7152 55.4665 26.9275 55.849ZM29.5559 48.6396C29.0143 46.9305 28.8354 45.1517 29.0441 43.368C29.0292 43.7953 29.0242 44.2226 29.059 44.6449C29.1634 46.0113 29.5062 47.313 30.0229 48.5651C30.6589 47.8298 31.1707 46.22 30.9968 45.0176C30.7831 43.5121 29.9931 41.9669 28.8354 41.2563C27.9113 42.3842 27.4542 44.2524 27.6281 45.4945C27.8169 46.8112 28.5075 48.0285 29.5559 48.6396ZM33.6698 37.8231C33.5705 38.2156 33.4761 38.6131 33.4214 39.0205C33.2376 40.3123 33.2873 41.5992 33.5158 42.8711C34.2611 42.3196 35.066 40.9185 35.1505 39.7658C35.2598 38.3199 34.8375 36.7151 33.9083 35.8158C32.8153 36.6753 32.0054 38.3299 31.9159 39.5223C31.8215 40.7843 32.2141 42.0613 33.0686 42.8463C32.9146 41.1421 33.1084 39.4428 33.6698 37.8231ZM39.6619 36.8045C39.9004 36.5014 40.1091 36.1785 40.3128 35.8505C39.5775 37.2914 38.5539 38.5336 37.2969 39.5422C38.39 39.6068 39.5129 39.0453 40.3128 38.151C41.0631 37.3113 41.6593 35.6766 41.5301 34.3699C40.3079 34.3252 38.9415 35.0854 38.0322 36.1089C37.3068 36.9238 36.8795 38.3845 36.9888 39.254C37.9975 38.5783 38.9017 37.7734 39.6619 36.8045ZM91.976 96.4721C93.4964 95.0411 94.9075 93.5009 96.1993 91.8612C97.4862 90.2166 98.6339 88.4727 99.6425 86.6492C101.665 82.9973 103.016 79.0075 103.826 74.9333C104.229 72.8912 104.497 70.8243 104.611 68.7524C104.72 66.6756 104.686 64.5937 104.502 62.5268C104.318 60.4599 103.965 58.4029 103.473 56.3906C102.976 54.3783 102.331 52.3959 101.521 50.488C99.9108 46.6622 97.6998 43.0997 95.0118 39.9496C97.67 43.1295 99.8413 46.7069 101.411 50.5376C102.201 52.4505 102.822 54.428 103.299 56.4403C103.771 58.4526 104.104 60.4947 104.263 62.5566C104.427 64.6136 104.442 66.6855 104.313 68.7474C104.179 70.8094 103.891 72.8565 103.473 74.8737C102.629 78.9082 101.252 82.8482 99.2202 86.4306C98.2066 88.2242 97.0539 89.9334 95.772 91.5432C94.4851 93.1481 93.0741 94.6536 91.5636 96.0497C90.0432 97.436 88.4334 98.7179 86.7342 99.8755C85.03 101.023 83.2562 102.072 81.4079 102.966C80.4887 103.423 79.5446 103.831 78.5956 104.218C77.6417 104.591 76.6778 104.953 75.699 105.256C75.2121 105.42 74.7152 105.55 74.2233 105.699C73.7215 105.838 73.2197 105.987 72.7228 106.141C71.7241 106.449 70.7354 106.797 69.7615 107.189C68.4548 107.716 67.1779 108.332 65.9655 109.067C64.7532 108.332 63.4713 107.711 62.1696 107.189C61.1957 106.797 60.207 106.454 59.2083 106.141C58.7114 105.987 58.2096 105.843 57.7078 105.699C57.2159 105.55 56.719 105.42 56.2321 105.256C55.2533 104.953 54.2894 104.591 53.3354 104.218C52.3864 103.831 51.4424 103.418 50.5232 102.966C48.6749 102.072 46.9011 101.023 45.1969 99.8755C43.4977 98.7179 41.8829 97.436 40.3675 96.0497C38.857 94.6536 37.4509 93.1481 36.1591 91.5432C34.8772 89.9334 33.7245 88.2242 32.7109 86.4306C30.6788 82.8482 29.3025 78.9131 28.4578 74.8737C28.0405 72.8515 27.7523 70.8044 27.6181 68.7474C27.4889 66.6855 27.5038 64.6186 27.6678 62.5566C27.8268 60.4996 28.1597 58.4526 28.6317 56.4403C29.1087 54.428 29.7298 52.4505 30.5198 50.5376C32.0898 46.7118 34.2611 43.1295 36.9193 39.9496C34.2313 43.0997 32.0203 46.6671 30.4105 50.488C29.6006 52.3959 28.9596 54.3783 28.4578 56.3906C27.9659 58.4079 27.6082 60.4599 27.4293 62.5268C27.2455 64.5937 27.2107 66.6805 27.32 68.7524C27.4343 70.8293 27.7026 72.8962 28.105 74.9333C28.9149 79.0075 30.2664 83.0023 32.2886 86.6492C33.2972 88.4727 34.4499 90.2216 35.7318 91.8612C37.0236 93.5009 38.4347 95.0411 39.9551 96.4721C41.4804 97.8931 43.1052 99.2098 44.8193 100.402C46.5384 101.585 48.3321 102.663 50.2003 103.592C51.1344 104.064 52.0883 104.491 53.0473 104.894C54.0161 105.286 54.99 105.664 55.9887 105.982C56.4805 106.151 56.9873 106.29 57.4842 106.449C57.9761 106.593 58.468 106.742 58.9599 106.896C59.9387 107.209 60.9026 107.557 61.8466 107.949C62.9844 108.421 64.0874 108.958 65.1408 109.579C64.8327 109.788 64.5296 109.997 64.2365 110.22C63.3918 110.856 62.6018 111.572 61.8714 112.337C61.1411 113.102 60.4703 113.912 59.8244 114.732L60.5796 115.318C61.2057 114.503 61.8466 113.708 62.5422 112.973C63.2328 112.232 63.9781 111.547 64.783 110.931C65.1656 110.632 65.5631 110.354 65.9655 110.086C66.368 110.354 66.7655 110.632 67.1481 110.931C67.948 111.547 68.6933 112.232 69.3889 112.973C70.0845 113.713 70.7254 114.503 71.3515 115.318L72.1067 114.732C71.4608 113.912 70.79 113.097 70.0596 112.337C69.3293 111.572 68.5393 110.856 67.6946 110.22C67.4015 109.997 67.0934 109.783 66.7903 109.579C67.8387 108.958 68.9467 108.417 70.0845 107.949C71.0285 107.557 71.9924 107.209 72.9712 106.896C73.4582 106.742 73.95 106.593 74.4469 106.449C74.9487 106.295 75.4505 106.156 75.9424 105.982C76.9361 105.664 77.915 105.286 78.8838 104.894C79.8477 104.486 80.8017 104.064 81.7308 103.592C83.604 102.663 85.3927 101.585 87.1118 100.402C88.821 99.2098 90.4457 97.8931 91.976 96.4721ZM76.4244 100.68C75.9424 101.008 75.4704 101.346 75.0282 101.729C73.6122 102.941 72.4495 104.372 71.4956 105.947C72.8172 106.056 74.9984 105.316 76.1809 104.163C77.6665 102.713 78.7248 100.596 78.5758 98.7576C76.5933 98.6483 74.1637 99.652 72.9414 100.849C71.6496 102.111 70.8695 103.85 71.0385 105.5C72.4843 103.522 74.2978 101.888 76.4244 100.68ZM84.7716 96.3379C84.4089 96.7652 84.0511 97.2025 83.7381 97.6695C82.7245 99.165 82.0091 100.79 81.5221 102.504C82.7792 102.27 84.6275 101.023 85.4374 99.642C86.451 97.9129 86.8981 95.6672 86.287 93.9878C84.4089 94.3902 82.4016 95.9504 81.5669 97.3763C80.6824 98.8868 80.3992 100.705 80.9806 102.196C81.8252 99.9898 83.0972 98.0074 84.7716 96.3379ZM91.4543 89.7397C91.2407 90.2415 91.037 90.7433 90.878 91.265C90.3712 92.9344 90.1724 94.6387 90.2122 96.3578C91.3053 95.7814 92.6567 94.1021 93.0045 92.6015C93.4467 90.7185 93.2181 88.5174 92.1797 87.1461C90.5649 88.0553 89.1588 90.0626 88.7912 91.6178C88.4036 93.2624 88.662 95.0212 89.6259 96.2336C89.7749 93.948 90.3811 91.7519 91.4543 89.7397ZM96.2192 89.4415C97.1582 88.7062 98.147 86.8827 98.2215 85.3971C98.3159 83.5339 97.7197 81.4869 96.4924 80.364C95.1161 81.5067 94.1274 83.6532 94.0529 85.1884C93.9734 86.8132 94.5199 88.4379 95.6428 89.4217C95.3894 87.2355 95.5882 85.0493 96.254 82.9526C96.1397 83.4643 96.0304 83.9761 95.9707 84.4978C95.777 86.1673 95.8863 87.8168 96.2192 89.4415ZM99.6028 76.4587C99.722 78.0735 100.124 79.6137 100.731 81.0894C101.486 80.2248 102.092 78.3169 101.893 76.9009C101.645 75.1221 100.711 73.2937 99.3494 72.454C98.2563 73.7806 97.7097 75.9916 97.9135 77.4623C98.1321 79.0125 98.9469 80.4534 100.184 81.1788C99.5481 79.1616 99.3394 77.0549 99.5928 74.9482C99.573 75.45 99.568 75.9568 99.6028 76.4587ZM102.658 72.9757C103.22 72.0217 103.448 70.1138 103.011 68.812C102.46 67.1724 101.252 65.6123 99.8164 65.0608C99.0165 66.5116 98.8972 68.6978 99.3543 70.0492C99.8363 71.4752 100.86 72.6925 102.162 73.1546C101.203 71.3609 100.631 69.4083 100.492 67.3761C100.567 67.8581 100.651 68.3351 100.775 68.8021C101.168 70.3026 101.819 71.6888 102.658 72.9757ZM103.558 64.6186C103.861 63.605 103.637 61.7716 102.927 60.6536C102.037 59.2525 100.552 58.075 99.086 57.8911C98.6736 59.4264 99.0662 61.4933 99.7965 62.646C100.572 63.8683 101.809 64.7627 103.125 64.8968C101.819 63.446 100.835 61.7567 100.244 59.8935C100.423 60.3257 100.611 60.748 100.835 61.1604C101.55 62.4672 102.48 63.6099 103.558 64.6186ZM102.499 56.9272C102.509 55.9136 101.824 54.2839 100.875 53.4393C99.6872 52.3859 98.0079 51.6903 96.6067 51.904C96.6316 53.4244 97.5358 55.228 98.5146 56.0975C99.5531 57.0167 100.924 57.5185 102.176 57.2949C100.592 56.3012 99.2401 55.0044 98.2016 53.4443C98.4799 53.7921 98.7631 54.1349 99.0761 54.4529C100.09 55.4764 101.242 56.2813 102.499 56.9272ZM100.01 49.9613C99.8413 49.0024 98.9022 47.5962 97.8588 46.9752C96.5521 46.1951 94.8528 45.8423 93.5759 46.2994C93.874 47.7254 95.0416 49.2557 96.1198 49.8967C97.2576 50.5774 98.6389 50.801 99.7717 50.3687C98.1023 49.7178 96.6017 48.739 95.3497 47.4621C95.6726 47.7403 96.0006 48.0136 96.3533 48.2521C97.4812 49.0272 98.7134 49.5787 100.01 49.9613ZM97.1433 44.4064C96.9098 43.5071 95.9111 42.2401 94.8727 41.7284C93.5709 41.0874 91.9263 40.8787 90.7438 41.4054C91.1314 42.742 92.3636 44.1083 93.4368 44.635C94.5746 45.1964 95.9012 45.3057 96.9495 44.8089C95.3149 44.317 93.8094 43.4972 92.5226 42.3743C92.8505 42.6128 93.1834 42.8463 93.5361 43.05C94.669 43.7059 95.8813 44.1431 97.1433 44.4064ZM77.1895 107.05C75.6393 106.474 73.3389 106.697 72.1663 107.353C73.6768 108.417 75.3114 109.256 77.1001 109.788C77.6566 109.957 78.228 110.071 78.8043 110.175C76.3697 109.947 74.0444 109.192 71.9328 107.964C72.4346 109.564 73.8457 110.856 75.54 111.487C77.1399 112.083 79.7782 112.004 81.5569 111.07C80.9557 109.291 79.1323 107.776 77.1895 107.05ZM88.0459 101.823C86.4559 101.654 84.3542 102.395 83.4201 103.269C85.0896 103.895 86.8236 104.283 88.6272 104.357C89.1886 104.382 89.7501 104.352 90.3115 104.317C87.9763 104.675 85.6212 104.516 83.3456 103.885C84.2002 105.242 85.8299 106.096 87.5689 106.28C89.2085 106.454 91.658 105.768 93.0989 104.501C92.1102 103.006 90.0383 102.037 88.0459 101.823ZM96.5868 94.4051C95.0565 94.6089 93.2529 95.7814 92.5722 96.8149C94.2814 97.0236 95.9956 96.9938 97.7048 96.6509C98.2364 96.5466 98.7581 96.3926 99.2798 96.2286C97.1682 97.0931 94.9224 97.4857 92.6468 97.4062C93.7548 98.4843 95.4838 98.9116 97.1582 98.693C98.7382 98.4843 100.88 97.2819 101.938 95.7616C100.671 94.589 98.5047 94.1517 96.5868 94.4051ZM101.292 86.1573C99.9655 86.8281 98.6985 88.4727 98.4053 89.6254C100.025 89.2726 101.58 88.7012 103.026 87.8466C103.478 87.5783 103.906 87.2752 104.323 86.9622C102.678 88.423 100.755 89.4912 98.6587 90.1421C100.01 90.7681 101.719 90.6141 103.17 89.8788C104.542 89.1881 106.107 87.4144 106.594 85.6903C105.068 85.0295 102.957 85.3127 101.292 86.1573ZM104.755 77.7753C103.588 78.6051 102.614 80.3491 102.499 81.4918C103.99 80.9254 105.391 80.1603 106.648 79.1417C107.041 78.8237 107.403 78.4759 107.756 78.1132C106.395 79.7379 104.72 81.0297 102.812 81.9489C104.189 82.3564 105.794 81.9638 107.075 81.0546C108.283 80.2 109.52 78.2871 109.739 76.5779C108.193 76.1655 106.221 76.7369 104.755 77.7753ZM106.34 69.0605C105.451 70.1138 104.974 71.9721 105.143 73.0651C106.395 72.1758 107.508 71.1224 108.432 69.8703C108.72 69.4778 108.973 69.0654 109.217 68.6481C108.347 70.4914 107.1 72.0963 105.55 73.4179C106.931 73.4626 108.328 72.7074 109.296 71.5497C110.216 70.4616 110.901 68.3798 110.688 66.7401C109.147 66.7252 107.453 67.7388 106.34 69.0605ZM106.315 60.1618C105.679 61.3194 105.575 63.1628 105.948 64.1565C106.956 63.0833 107.806 61.8809 108.437 60.5294C108.636 60.1071 108.795 59.6699 108.944 59.2277C108.472 61.1257 107.602 62.8746 106.395 64.4099C107.702 64.1913 108.874 63.2174 109.57 61.9455C110.226 60.748 110.484 58.6612 109.972 57.1558C108.516 57.434 107.115 58.706 106.315 60.1618ZM104.542 55.6652C105.361 54.5125 106.012 53.2654 106.435 51.8941C106.569 51.4668 106.663 51.0295 106.748 50.5923C106.544 52.4555 105.948 54.2293 104.999 55.8441C106.211 55.4665 107.2 54.3883 107.692 53.0915C108.159 51.8692 108.129 49.852 107.448 48.4906C106.107 48.9427 104.939 50.3339 104.373 51.8195C103.915 53.007 104.06 54.7709 104.542 55.6652ZM102.867 44.6499C102.902 44.2226 102.892 43.7953 102.882 43.373C103.091 45.1517 102.912 46.9354 102.37 48.6446C103.419 48.0335 104.109 46.8162 104.298 45.5045C104.472 44.2623 104.015 42.3942 103.091 41.2663C101.938 41.9768 101.143 43.522 100.929 45.0275C100.76 46.2299 101.267 47.8397 101.903 48.5751C102.425 47.318 102.763 46.0162 102.867 44.6499ZM98.4103 42.8711C98.6389 41.5992 98.6886 40.3173 98.5047 39.0205C98.4451 38.618 98.3557 38.2206 98.2563 37.8231C98.8177 39.4379 99.0115 41.1371 98.8575 42.8413C99.7121 42.0563 100.105 40.7843 100.01 39.5174C99.9208 38.3249 99.1109 36.6704 98.0178 35.8108C97.0837 36.7101 96.6663 38.31 96.7756 39.7608C96.8601 40.9185 97.665 42.3196 98.4103 42.8711ZM94.6292 39.5422C93.3722 38.5336 92.3437 37.2865 91.6133 35.8505C91.817 36.1785 92.0257 36.5014 92.2642 36.8045C93.0244 37.7784 93.9336 38.5833 94.9472 39.259C95.0565 38.3895 94.6342 36.9287 93.9038 36.1139C92.9896 35.0904 91.6232 34.3302 90.4059 34.3749C90.2768 35.6816 90.868 37.3113 91.6232 38.156C92.4132 39.0453 93.5361 39.6118 94.6292 39.5422ZM63.8887 25.0042L59.248 25.6849L62.6068 28.9989L61.8168 33.6793L65.9655 31.4683L70.1143 33.6793L69.3193 28.9989L72.6781 25.6849L68.0374 25.0042L65.9606 20.7461L63.8887 25.0042ZM49.9767 29.0684L47.0502 29.5007L49.1668 31.5925L48.665 34.5438L51.2834 33.1526L53.9019 34.5438L53.4 31.5925L55.5166 29.5007L52.5902 29.0684L51.2834 26.3854L49.9767 29.0684ZM79.331 29.0684L76.4045 29.5007L78.5211 31.5925L78.0193 34.5438L80.6377 33.1526L83.2562 34.5438L82.7543 31.5925L84.871 29.5007L81.9445 29.0684L80.6377 26.3854L79.331 29.0684Z" fill="#EBEAE7"/>
<path d="M55.7452 103.643C54.2596 102.192 53.2013 100.075 53.3503 98.237C55.3328 98.1277 57.7624 99.1363 58.9847 100.329C60.2765 101.591 61.0566 103.33 60.8877 104.979C59.4468 103.007 57.6283 101.372 55.5067 100.17C55.9887 100.498 56.4607 100.836 56.9029 101.218C58.3189 102.43 59.4816 103.861 60.4355 105.436C59.1089 105.536 56.9277 104.796 55.7452 103.643ZM50.404 101.988C49.9171 100.274 49.1966 98.6494 48.188 97.1539C47.87 96.6868 47.5172 96.2496 47.1545 95.8223C48.8289 97.4868 50.1009 99.4742 50.9456 101.68C51.5269 100.19 51.2437 98.3662 50.3593 96.8607C49.5246 95.4347 47.5172 93.8796 45.6391 93.4722C45.028 95.1515 45.4752 97.3973 46.4888 99.1264C47.2986 100.503 49.1469 101.755 50.404 101.988ZM39.7464 86.6255C38.703 88.0018 38.4794 90.1979 38.9216 92.081C39.2744 93.5815 40.6209 95.2608 41.714 95.8372C41.7537 94.1181 41.555 92.4139 41.0482 90.7444C40.8892 90.2227 40.6855 89.7209 40.4718 89.2191C41.5401 91.2363 42.1512 93.4274 42.2953 95.703C43.2592 94.4907 43.5175 92.7318 43.13 91.0873C42.7673 89.542 41.3612 87.5298 39.7464 86.6255ZM37.8733 84.6728C37.7987 83.1375 36.81 80.9861 35.4337 79.8483C34.2065 80.9712 33.6152 83.0183 33.7046 84.8815C33.7792 86.3671 34.7679 88.1906 35.707 88.9259C36.0399 87.3012 36.1492 85.6516 35.9554 83.9822C35.8958 83.4605 35.7914 82.9487 35.6722 82.437C36.338 84.5337 36.5367 86.7199 36.2833 88.906C37.4062 87.9223 37.9528 86.2975 37.8733 84.6728ZM31.742 80.6582C32.9792 79.9328 33.7941 78.4969 34.0127 76.9417C34.2164 75.476 33.6748 73.265 32.5768 71.9334C31.2154 72.7731 30.2813 74.6015 30.0329 76.3803C29.8341 77.8013 30.4403 79.7042 31.1955 80.5688C31.8066 79.0931 32.2041 77.5479 32.3234 75.9381C32.3631 75.4362 32.3532 74.9295 32.3383 74.4276C32.5867 76.5343 32.378 78.641 31.742 80.6582ZM32.5768 69.5286C33.0339 68.1821 32.9097 65.991 32.1147 64.5451C30.6738 65.0967 29.4714 66.6568 28.9199 68.2964C28.4777 69.6031 28.7112 71.5111 29.2727 72.4601C30.1123 71.1732 30.7632 69.787 31.1657 68.2815C31.2899 67.8145 31.3744 67.3325 31.4489 66.8555C31.3098 68.8877 30.7384 70.8403 29.7795 72.634C31.0713 72.1669 32.0948 70.9546 32.5768 69.5286ZM28.3684 64.098C29.4466 63.0894 30.3707 61.9516 31.0912 60.6398C31.3147 60.2324 31.5035 59.8051 31.6824 59.3729C31.0862 61.2361 30.1074 62.9254 28.8006 64.3762C30.1173 64.2421 31.3545 63.3477 32.1296 62.1254C32.8649 60.9727 33.2525 58.9058 32.8401 57.3705C31.3744 57.5544 29.8888 58.7319 28.9994 60.1331C28.2889 61.251 28.0653 63.0844 28.3684 64.098ZM29.7447 56.7793C30.9968 57.0029 32.3681 56.501 33.4065 55.5818C34.3853 54.7123 35.2896 52.9137 35.3144 51.3884C33.9133 51.1698 32.2389 51.8654 31.0464 52.9237C30.0974 53.7633 29.4118 55.393 29.4217 56.4116C30.6788 55.7657 31.8315 54.9608 32.8401 53.9422C33.1531 53.6242 33.4413 53.2814 33.7146 52.9336C32.6811 54.4888 31.3296 55.7856 29.7447 56.7793ZM34.0673 46.4595C33.0239 47.0806 32.0898 48.4867 31.9159 49.4457C33.2127 49.068 34.44 48.5116 35.5728 47.7365C35.9256 47.493 36.2535 47.2247 36.5765 46.9465C35.3194 48.2234 33.8189 49.2022 32.1544 49.8531C33.2873 50.2853 34.6685 50.0618 35.8063 49.3811C36.8845 48.7401 38.0521 47.2098 38.3502 45.7838C37.0733 45.3267 35.3741 45.6795 34.0673 46.4595ZM41.1774 40.8898C39.9948 40.3631 38.3502 40.5668 37.0485 41.2127C36.01 41.7245 35.0114 42.9915 34.7778 43.8908C36.0399 43.6275 37.2522 43.1952 38.385 42.5393C38.7378 42.3356 39.0707 42.1021 39.3986 41.8636C38.1068 42.9865 36.6063 43.8014 34.9716 44.2982C36.02 44.7951 37.3466 44.6858 38.4844 44.1243C39.5626 43.5927 40.7898 42.2263 41.1774 40.8898ZM53.1218 109.66C53.6932 109.555 54.2646 109.441 54.826 109.272C56.6147 108.741 58.2494 107.901 59.7598 106.838C58.5922 106.182 56.2868 105.958 54.7366 106.535C52.7939 107.26 50.9704 108.78 50.3742 110.554C52.1529 111.488 54.7863 111.568 56.3911 110.971C58.0854 110.34 59.4965 109.054 59.9983 107.449C57.8817 108.671 55.5614 109.431 53.1218 109.66ZM41.6146 103.802C42.176 103.842 42.7375 103.866 43.2989 103.842C45.1025 103.767 46.8366 103.379 48.506 102.753C47.5669 101.879 45.4652 101.139 43.8803 101.308C41.8879 101.521 39.816 102.495 38.8272 103.986C40.2681 105.258 42.7126 105.943 44.3572 105.764C46.0962 105.581 47.7259 104.726 48.5805 103.37C46.3049 104.001 43.9548 104.16 41.6146 103.802ZM32.6463 95.713C33.1631 95.877 33.6848 96.031 34.2214 96.1353C35.9305 96.4781 37.6447 96.503 39.3539 96.2993C38.6732 95.2658 36.8696 94.0883 35.3393 93.8895C33.4214 93.6361 31.2551 94.0783 29.9881 95.2509C31.0514 96.7713 33.1879 97.9737 34.7679 98.1824C36.4423 98.406 38.1664 97.9737 39.2794 96.8955C37.0038 96.97 34.758 96.5775 32.6463 95.713ZM33.2674 89.6265C31.1707 88.9706 29.2478 87.9024 27.6032 86.4466C28.0255 86.7596 28.4479 87.0627 28.9 87.331C30.3459 88.1856 31.901 88.757 33.5208 89.1098C33.2276 87.9521 31.9607 86.3124 30.634 85.6417C28.9696 84.802 26.8579 84.5138 25.3326 85.1796C25.8195 86.8987 27.3846 88.6725 28.7559 89.3681C30.2068 90.0985 31.9159 90.2525 33.2674 89.6265ZM29.1137 81.4333C27.2057 80.5141 25.5313 79.2223 24.1699 77.5976C24.5277 77.9553 24.8854 78.3081 25.2779 78.6261C26.535 79.6446 27.9311 80.4098 29.4267 80.9762C29.3124 79.8334 28.3386 78.0895 27.171 77.2597C25.7052 76.2213 23.7327 75.6499 22.1875 76.0673C22.4061 77.7764 23.6433 79.6893 24.8506 80.5439C26.1325 81.4482 27.7324 81.8407 29.1137 81.4333ZM26.376 72.8973C24.8258 71.5757 23.5787 69.9708 22.7092 68.1275C22.9526 68.5448 23.206 68.9622 23.4942 69.3498C24.4184 70.6018 25.5313 71.6552 26.7834 72.5445C26.9573 71.4515 26.4754 69.5932 25.586 68.5399C24.473 67.2182 22.7787 66.2046 21.2385 66.2196C21.0248 67.8592 21.7105 69.941 22.6297 71.0291C23.5986 72.1868 24.9947 72.942 26.376 72.8973ZM25.5313 63.8943C24.324 62.359 23.4545 60.61 22.9825 58.712C23.1315 59.1542 23.2905 59.5915 23.4892 60.0138C24.1203 61.3653 24.9699 62.5677 25.9785 63.6409C26.3462 62.6472 26.2468 60.8038 25.6108 59.6461C24.8109 58.1903 23.4097 56.9184 21.9589 56.6401C21.4472 58.1456 21.7006 60.2324 22.3614 61.4298C23.052 62.6968 24.2246 63.6707 25.5313 63.8943ZM26.9275 55.3334C25.9785 53.7186 25.3823 51.9449 25.1786 50.0816C25.263 50.5189 25.3574 50.9561 25.4916 51.3834C25.9139 52.7498 26.5648 54.0018 27.3846 55.1545C27.8616 54.2602 28.0057 52.4964 27.5535 51.3138C26.9871 49.8282 25.8195 48.437 24.478 47.9849C23.7973 49.3463 23.7675 51.3635 24.2345 52.5858C24.7314 53.8727 25.7152 54.9508 26.9275 55.3334ZM29.5559 48.124C29.0143 46.4148 28.8354 44.6361 29.0441 42.8524C29.0292 43.2797 29.0242 43.707 29.059 44.1293C29.1634 45.4956 29.5062 46.7974 30.0229 48.0495C30.6589 47.3141 31.1707 45.7043 30.9968 44.5019C30.7831 42.9965 29.9931 41.4512 28.8354 40.7407C27.9113 41.8686 27.4542 43.7368 27.6281 44.9789C27.8169 46.2956 28.5075 47.5129 29.5559 48.124ZM33.6698 37.3074C33.5705 37.7 33.4761 38.0974 33.4214 38.5049C33.2376 39.7967 33.2873 41.0836 33.5158 42.3555C34.2611 41.804 35.066 40.4029 35.1505 39.2502C35.2598 37.8043 34.8375 36.1995 33.9083 35.3001C32.8153 36.1597 32.0054 37.8142 31.9159 39.0067C31.8215 40.2687 32.2141 41.5456 33.0686 42.3307C32.9146 40.6215 33.1084 38.9272 33.6698 37.3074ZM39.6619 36.2839C39.9004 35.9808 40.1091 35.6579 40.3128 35.33C39.5775 36.7708 38.5539 38.013 37.2969 39.0216C38.39 39.0862 39.5129 38.5247 40.3128 37.6304C41.0631 36.7907 41.6593 35.1561 41.5301 33.8493C40.3079 33.8046 38.9415 34.5648 38.0322 35.5883C37.3068 36.4032 36.8795 37.8639 36.9888 38.7334C37.9975 38.0627 38.9017 37.2578 39.6619 36.2839ZM91.976 95.9564C93.4964 94.5255 94.9075 92.9852 96.1993 91.3456C97.4862 89.701 98.6339 87.9571 99.6425 86.1336C101.665 82.4817 103.016 78.4919 103.826 74.4177C104.229 72.3756 104.497 70.3087 104.611 68.2368C104.72 66.1599 104.686 64.0781 104.502 62.0112C104.318 59.9442 103.965 57.8873 103.473 55.875C102.976 53.8627 102.331 51.8803 101.521 49.9723C99.9108 46.1465 97.6998 42.5841 95.0118 39.434C97.67 42.6139 99.8413 46.1912 101.411 50.022C102.201 51.9349 102.822 53.9124 103.299 55.9247C103.771 57.9369 104.104 59.979 104.263 62.041C104.427 64.098 104.442 66.1699 104.313 68.2318C104.179 70.2938 103.891 72.3408 103.473 74.3581C102.629 78.3925 101.252 82.3326 99.2202 85.915C98.2066 87.7086 97.0539 89.4178 95.772 91.0276C94.4851 92.6325 93.0741 94.1379 91.5636 95.5341C90.0432 96.9203 88.4334 98.2022 86.7342 99.3599C85.03 100.508 83.2562 101.556 81.4079 102.45C80.4887 102.907 79.5446 103.315 78.5956 103.702C77.6417 104.075 76.6778 104.438 75.699 104.741C75.2121 104.905 74.7152 105.034 74.2233 105.183C73.7215 105.322 73.2197 105.471 72.7228 105.625C71.7241 105.933 70.7354 106.281 69.7615 106.674C68.4548 107.2 67.1779 107.816 65.9655 108.552C64.7532 107.816 63.4713 107.195 62.1696 106.674C61.1957 106.281 60.207 105.938 59.2083 105.625C58.7114 105.471 58.2096 105.327 57.7078 105.183C57.2159 105.034 56.719 104.905 56.2321 104.741C55.2533 104.438 54.2894 104.075 53.3354 103.702C52.3864 103.315 51.4424 102.903 50.5232 102.45C48.6749 101.556 46.9011 100.508 45.1969 99.3599C43.4977 98.2022 41.8829 96.9203 40.3675 95.5341C38.857 94.1379 37.4509 92.6325 36.1591 91.0276C34.8772 89.4178 33.7245 87.7086 32.7109 85.915C30.6788 82.3326 29.3025 78.3975 28.4578 74.3581C28.0405 72.3359 27.7523 70.2888 27.6181 68.2318C27.4889 66.1699 27.5038 64.1029 27.6678 62.041C27.8268 59.984 28.1597 57.9369 28.6317 55.9247C29.1087 53.9124 29.7298 51.9349 30.5198 50.022C32.0898 46.1962 34.2611 42.6139 36.9193 39.434C34.2313 42.5841 32.0203 46.1515 30.4105 49.9723C29.6006 51.8803 28.9596 53.8627 28.4578 55.875C27.9659 57.8922 27.6082 59.9442 27.4293 62.0112C27.2455 64.0781 27.2107 66.1649 27.32 68.2368C27.4343 70.3137 27.7026 72.3806 28.105 74.4177C28.9149 78.4919 30.2664 82.4867 32.2886 86.1336C33.2972 87.9571 34.4499 89.706 35.7318 91.3456C37.0236 92.9852 38.4347 94.5255 39.9551 95.9564C41.4804 97.3775 43.1052 98.6941 44.8193 99.8866C46.5384 101.069 48.3321 102.147 50.2003 103.076C51.1344 103.548 52.0883 103.976 53.0473 104.378C54.0161 104.771 54.99 105.148 55.9887 105.466C56.4805 105.635 56.9873 105.774 57.4842 105.933C57.9761 106.077 58.468 106.226 58.9599 106.381C59.9387 106.694 60.9026 107.041 61.8466 107.434C62.9844 107.906 64.0874 108.442 65.1408 109.064C64.8327 109.272 64.5296 109.481 64.2365 109.704C63.3918 110.34 62.6018 111.056 61.8714 111.821C61.1411 112.586 60.4703 113.396 59.8244 114.216L60.5796 114.802C61.2057 113.987 61.8466 113.192 62.5422 112.457C63.2328 111.717 63.9781 111.031 64.783 110.415C65.1656 110.117 65.5631 109.839 65.9655 109.57C66.368 109.839 66.7655 110.117 67.1481 110.415C67.948 111.031 68.6933 111.717 69.3889 112.457C70.0845 113.197 70.7254 113.987 71.3515 114.802L72.1067 114.216C71.4608 113.396 70.79 112.581 70.0596 111.821C69.3293 111.056 68.5393 110.34 67.6946 109.704C67.4015 109.481 67.0934 109.267 66.7903 109.064C67.8387 108.442 68.9467 107.901 70.0845 107.434C71.0285 107.041 71.9924 106.694 72.9712 106.381C73.4582 106.226 73.95 106.077 74.4469 105.933C74.9487 105.779 75.4505 105.64 75.9424 105.466C76.9361 105.148 77.915 104.771 78.8838 104.378C79.8477 103.971 80.8017 103.548 81.7308 103.076C83.604 102.147 85.3927 101.069 87.1118 99.8866C88.821 98.6941 90.4457 97.3775 91.976 95.9564ZM76.4244 100.165C75.9424 100.493 75.4704 100.831 75.0282 101.213C73.6122 102.426 72.4495 103.856 71.4956 105.432C72.8172 105.541 74.9984 104.801 76.1809 103.648C77.6665 102.197 78.7248 100.08 78.5758 98.242C76.5933 98.1327 74.1637 99.1413 72.9414 100.334C71.6496 101.596 70.8695 103.335 71.0385 104.984C72.4843 103.002 74.2978 101.372 76.4244 100.165ZM84.7716 95.8223C84.4089 96.2496 84.0511 96.6868 83.7381 97.1539C82.7245 98.6494 82.0091 100.274 81.5221 101.988C82.7792 101.755 84.6275 100.508 85.4374 99.1264C86.451 97.3973 86.8981 95.1515 86.287 93.4722C84.4089 93.8746 82.4016 95.4347 81.5669 96.8607C80.6824 98.3712 80.3992 100.19 80.9806 101.68C81.8252 99.4742 83.0972 97.4868 84.7716 95.8223ZM91.4543 89.2191C91.2407 89.7209 91.037 90.2227 90.878 90.7444C90.3712 92.4139 90.1724 94.1181 90.2122 95.8372C91.3053 95.2608 92.6567 93.5815 93.0045 92.081C93.4467 90.1979 93.2181 87.9968 92.1797 86.6255C90.5649 87.5347 89.1588 89.542 88.7912 91.0972C88.4036 92.7418 88.662 94.5007 89.6259 95.713C89.7749 93.4324 90.3811 91.2363 91.4543 89.2191ZM96.2192 88.9259C97.1582 88.1906 98.147 86.3671 98.2215 84.8815C98.3159 83.0183 97.7197 80.9712 96.4924 79.8483C95.1161 80.9911 94.1274 83.1375 94.0529 84.6728C93.9734 86.2975 94.5199 87.9223 95.6428 88.906C95.3894 86.7199 95.5882 84.5337 96.254 82.437C96.1397 82.9487 96.0304 83.4605 95.9707 83.9822C95.777 85.6516 95.8863 87.3012 96.2192 88.9259ZM99.6028 75.943C99.722 77.5578 100.124 79.0981 100.731 80.5738C101.486 79.7092 102.092 77.8013 101.893 76.3852C101.645 74.6065 100.711 72.7781 99.3494 71.9384C98.2563 73.265 97.7097 75.476 97.9135 76.9467C98.1321 78.4969 98.9469 79.9378 100.184 80.6632C99.5481 78.6459 99.3394 76.5393 99.5928 74.4326C99.573 74.9344 99.568 75.4412 99.6028 75.943ZM102.658 72.4551C103.22 71.5011 103.448 69.5932 103.011 68.2914C102.46 66.6518 101.252 65.0917 99.8164 64.5402C99.0165 65.991 98.8972 68.1772 99.3543 69.5237C99.8363 70.9496 100.86 72.1669 102.162 72.629C101.203 70.8354 100.631 68.8827 100.492 66.8506C100.567 67.3325 100.651 67.8095 100.775 68.2765C101.168 69.782 101.819 71.1683 102.658 72.4551ZM103.558 64.098C103.861 63.0844 103.637 61.251 102.927 60.1331C102.037 58.7319 100.552 57.5544 99.086 57.3705C98.6736 58.9058 99.0662 60.9727 99.7965 62.1254C100.572 63.3477 101.809 64.2421 103.125 64.3762C101.819 62.9254 100.835 61.2361 100.244 59.3729C100.423 59.8051 100.611 60.2275 100.835 60.6398C101.55 61.9516 102.48 63.0943 103.558 64.098ZM102.499 56.4116C102.509 55.393 101.824 53.7683 100.875 52.9237C99.6872 51.8703 98.0079 51.1747 96.6067 51.3884C96.6316 52.9088 97.5358 54.7123 98.5146 55.5818C99.5531 56.501 100.924 57.0029 102.176 56.7793C100.592 55.7856 99.2401 54.4888 98.2016 52.9286C98.4799 53.2764 98.7631 53.6193 99.0761 53.9372C100.09 54.9558 101.242 55.7657 102.499 56.4116ZM100.01 49.4407C99.8413 48.4818 98.9022 47.0757 97.8588 46.4546C96.5521 45.6745 94.8528 45.3217 93.5759 45.7789C93.874 47.2048 95.0416 48.7352 96.1198 49.3761C97.2576 50.0568 98.6389 50.2804 99.7717 49.8481C98.1023 49.1972 96.6017 48.2184 95.3497 46.9415C95.6726 47.2197 96.0006 47.493 96.3533 47.7315C97.4812 48.5116 98.7134 49.0631 100.01 49.4407ZM97.1433 43.8908C96.9098 42.9915 95.9111 41.7245 94.8727 41.2127C93.5709 40.5718 91.9263 40.3631 90.7438 40.8898C91.1314 42.2263 92.3636 43.5927 93.4368 44.1194C94.5746 44.6808 95.9012 44.7901 96.9495 44.2933C95.3149 43.8014 93.8094 42.9815 92.5226 41.8587C92.8505 42.0971 93.1834 42.3307 93.5361 42.5344C94.669 43.1902 95.8813 43.6225 97.1433 43.8908ZM77.1895 106.535C75.6393 105.958 73.3389 106.182 72.1663 106.838C73.6768 107.901 75.3114 108.741 77.1001 109.272C77.6566 109.441 78.228 109.555 78.8043 109.66C76.3697 109.431 74.0444 108.676 71.9328 107.449C72.4346 109.049 73.8457 110.34 75.54 110.971C77.1399 111.568 79.7782 111.488 81.5569 110.554C80.9557 108.775 79.1323 107.255 77.1895 106.535ZM88.0459 101.308C86.4559 101.139 84.3542 101.879 83.4201 102.753C85.0896 103.379 86.8236 103.767 88.6272 103.842C89.1886 103.866 89.7501 103.837 90.3115 103.802C87.9763 104.16 85.6212 104.001 83.3456 103.37C84.2002 104.726 85.8299 105.581 87.5689 105.764C89.2085 105.938 91.658 105.253 93.0989 103.986C92.1102 102.49 90.0383 101.521 88.0459 101.308ZM96.5868 93.8895C95.0565 94.0932 93.2529 95.2658 92.5722 96.2993C94.2814 96.508 95.9956 96.4781 97.7048 96.1353C98.2364 96.031 98.7581 95.877 99.2798 95.713C97.1682 96.5775 94.9224 96.97 92.6468 96.8905C93.7548 97.9687 95.4838 98.396 97.1582 98.1774C98.7382 97.9687 100.88 96.7663 101.938 95.2459C100.671 94.0734 98.5047 93.6312 96.5868 93.8895ZM101.292 85.6367C99.9655 86.3075 98.6985 87.9521 98.4053 89.1048C100.025 88.752 101.58 88.1806 103.026 87.326C103.478 87.0577 103.906 86.7547 104.323 86.4416C102.678 87.9024 100.755 88.9706 98.6587 89.6215C100.01 90.2476 101.719 90.0935 103.17 89.3582C104.542 88.6676 106.107 86.8938 106.594 85.1697C105.068 84.5089 102.957 84.797 101.292 85.6367ZM104.755 77.2597C103.588 78.0895 102.614 79.8334 102.499 80.9762C103.99 80.4098 105.391 79.6446 106.648 78.6261C107.041 78.3081 107.403 77.9603 107.756 77.5976C106.395 79.2223 104.72 80.5141 102.812 81.4333C104.189 81.8407 105.794 81.4482 107.075 80.539C108.283 79.6844 109.52 77.7715 109.739 76.0623C108.193 75.6499 106.221 76.2213 104.755 77.2597ZM106.34 68.5448C105.451 69.5982 104.974 71.4564 105.143 72.5495C106.395 71.6601 107.508 70.6068 108.432 69.3547C108.72 68.9622 108.973 68.5498 109.217 68.1324C108.347 69.9758 107.1 71.5806 105.55 72.9023C106.931 72.947 108.328 72.1918 109.296 71.0341C110.216 69.946 110.901 67.8641 110.688 66.2245C109.147 66.2096 107.453 67.2232 106.34 68.5448ZM106.315 59.6461C105.679 60.8038 105.575 62.6472 105.948 63.6409C106.956 62.5677 107.806 61.3653 108.437 60.0138C108.636 59.5915 108.795 59.1542 108.944 58.712C108.472 60.61 107.602 62.359 106.395 63.8943C107.702 63.6756 108.874 62.7018 109.57 61.4298C110.226 60.2324 110.484 58.1456 109.972 56.6401C108.516 56.9184 107.115 58.1903 106.315 59.6461ZM104.542 55.1496C105.361 53.9969 106.012 52.7498 106.435 51.3784C106.569 50.9511 106.663 50.5139 106.748 50.0767C106.544 51.9399 105.948 53.7137 104.999 55.3284C106.211 54.9508 107.2 53.8727 107.692 52.5759C108.159 51.3536 108.129 49.3364 107.448 47.975C106.107 48.4271 104.939 49.8183 104.373 51.3039C103.915 52.4914 104.06 54.2552 104.542 55.1496ZM102.867 44.1343C102.902 43.707 102.892 43.2797 102.882 42.8573C103.091 44.6361 102.912 46.4198 102.37 48.129C103.419 47.5179 104.109 46.3006 104.298 44.9889C104.472 43.7467 104.015 41.8785 103.091 40.7507C101.938 41.4612 101.143 43.0064 100.929 44.5119C100.76 45.7143 101.267 47.3241 101.903 48.0594C102.425 46.8024 102.763 45.5006 102.867 44.1343ZM98.4103 42.3555C98.6389 41.0836 98.6886 39.8017 98.5047 38.5049C98.4451 38.1024 98.3557 37.7049 98.2563 37.3074C98.8177 38.9222 99.0115 40.6215 98.8575 42.3257C99.7121 41.5407 100.105 40.2687 100.01 39.0017C99.9208 37.8093 99.1109 36.1547 98.0178 35.2952C97.0837 36.1945 96.6663 37.7944 96.7756 39.2452C96.8601 40.4029 97.665 41.799 98.4103 42.3555ZM94.6292 39.0266C93.3722 38.0179 92.3437 36.7708 91.6133 35.3349C91.817 35.6628 92.0257 35.9858 92.2642 36.2889C93.0244 37.2627 93.9336 38.0676 94.9472 38.7434C95.0565 37.8739 94.6342 36.4131 93.9038 35.5983C92.9896 34.5747 91.6232 33.8145 90.4059 33.8593C90.2768 35.166 90.868 36.7957 91.6232 37.6403C92.4132 38.5297 93.5361 39.0912 94.6292 39.0266ZM63.8887 24.4885L59.248 25.1692L62.6068 28.4833L61.8168 33.1637L65.9655 30.9576L70.1143 33.1637L69.3193 28.4833L72.6781 25.1692L68.0374 24.4885L65.9606 20.2305L63.8887 24.4885ZM49.9767 28.5528L47.0502 28.9851L49.1668 31.0769L48.665 34.0282L51.2834 32.637L53.9019 34.0282L53.4 31.0769L55.5166 28.9851L52.5902 28.5528L51.2834 25.8698L49.9767 28.5528ZM79.331 28.5528L76.4045 28.9851L78.5211 31.0769L78.0193 34.0282L80.6377 32.637L83.2562 34.0282L82.7543 31.0769L84.871 28.9851L81.9445 28.5528L80.6377 25.8698L79.331 28.5528Z" fill="#656563"/>
<path d="M55.7452 103.901C54.2596 102.45 53.2013 100.333 53.3503 98.4948C55.3328 98.3855 57.7624 99.3941 58.9847 100.587C60.2765 101.849 61.0566 103.588 60.8877 105.237C59.4468 103.265 57.6283 101.63 55.5067 100.428C55.9887 100.756 56.4607 101.093 56.9029 101.476C58.3189 102.688 59.4816 104.119 60.4355 105.694C59.1089 105.799 56.9277 105.053 55.7452 103.901ZM50.404 102.246C49.9171 100.532 49.1966 98.9072 48.188 97.4117C47.87 96.9446 47.5172 96.5074 47.1545 96.0801C48.8289 97.7446 50.1009 99.732 50.9456 101.938C51.5269 100.447 51.2437 98.624 50.3593 97.1185C49.5246 95.6926 47.5172 94.1374 45.6391 93.73C45.028 95.4093 45.4752 97.6551 46.4888 99.3842C47.2986 100.765 49.1469 102.013 50.404 102.246ZM39.7464 86.8833C38.703 88.2596 38.4794 90.4557 38.9216 92.3388C39.2744 93.8393 40.6209 95.5186 41.714 96.095C41.7537 94.3759 41.555 92.6717 41.0482 91.0022C40.8892 90.4805 40.6855 89.9787 40.4718 89.4769C41.5401 91.4941 42.1512 93.6852 42.2953 95.9609C43.2592 94.7485 43.5175 92.9896 43.13 91.345C42.7673 89.7998 41.3612 87.7876 39.7464 86.8833ZM37.8733 84.9306C37.7987 83.3953 36.81 81.2439 35.4337 80.1061C34.2065 81.229 33.6152 83.2761 33.7046 85.1393C33.7792 86.6249 34.7679 88.4484 35.707 89.1837C36.0399 87.559 36.1492 85.9094 35.9554 84.24C35.8958 83.7183 35.7914 83.2065 35.6722 82.6948C36.338 84.7915 36.5367 86.9777 36.2833 89.1638C37.4062 88.1801 37.9528 86.5553 37.8733 84.9306ZM31.742 80.916C32.9792 80.1906 33.7941 78.7547 34.0127 77.1995C34.2164 75.7338 33.6748 73.5228 32.5768 72.1912C31.2154 73.0309 30.2813 74.8593 30.0329 76.6381C29.8341 78.0591 30.4403 79.9621 31.1955 80.8266C31.8066 79.3509 32.2041 77.8057 32.3234 76.1959C32.3631 75.6941 32.3532 75.1873 32.3383 74.6854C32.5867 76.7921 32.378 78.8988 31.742 80.916ZM32.5768 69.7864C33.0339 68.4399 32.9097 66.2488 32.1147 64.798C30.6738 65.3495 29.4714 66.9096 28.9199 68.5493C28.4777 69.856 28.7112 71.7639 29.2727 72.7129C30.1123 71.4261 30.7632 70.0398 31.1657 68.5343C31.2899 68.0673 31.3744 67.5854 31.4489 67.1084C31.3098 69.1405 30.7384 71.0932 29.7795 72.8868C31.0713 72.4297 32.0948 71.2124 32.5768 69.7864ZM28.3684 64.3607C29.4466 63.3521 30.3707 62.2143 31.0912 60.9026C31.3147 60.4952 31.5035 60.0679 31.6824 59.6356C31.0862 61.4988 30.1074 63.1882 28.8006 64.639C30.1173 64.5048 31.3545 63.6105 32.1296 62.3882C32.8649 61.2355 33.2525 59.1686 32.8401 57.6333C31.3744 57.8171 29.8888 58.9947 28.9994 60.3958C28.2889 61.5088 28.0653 63.3422 28.3684 64.3607ZM29.7447 57.042C30.9968 57.2656 32.3681 56.7638 33.4065 55.8446C34.3853 54.9751 35.2896 53.1765 35.3144 51.6511C33.9133 51.4325 32.2389 52.1281 31.0464 53.1864C30.0974 54.0261 29.4118 55.6558 29.4217 56.6744C30.6788 56.0285 31.8315 55.2235 32.8401 54.205C33.1531 53.887 33.4413 53.5442 33.7146 53.1964C32.6811 54.7466 31.3296 56.0434 29.7447 57.042ZM34.0673 46.7174C33.0239 47.3384 32.0898 48.7445 31.9159 49.7035C33.2127 49.3259 34.44 48.7694 35.5728 47.9943C35.9256 47.7508 36.2535 47.4825 36.5765 47.2043C35.3194 48.4812 33.8189 49.46 32.1544 50.1109C33.2873 50.5432 34.6685 50.3196 35.8063 49.6389C36.8845 48.9979 38.0521 47.4676 38.3502 46.0416C37.0733 45.5845 35.3741 45.9373 34.0673 46.7174ZM41.1774 41.1476C39.9948 40.6209 38.3502 40.8246 37.0485 41.4705C36.01 41.9823 35.0114 43.2493 34.7778 44.1486C36.0399 43.8853 37.2522 43.453 38.385 42.7972C38.7378 42.5934 39.0707 42.3599 39.3986 42.1214C38.1068 43.2443 36.6063 44.0592 34.9716 44.556C36.02 45.0529 37.3466 44.9436 38.4844 44.3821C39.5626 43.8505 40.7898 42.4841 41.1774 41.1476ZM53.1218 109.918C53.6932 109.813 54.2646 109.699 54.826 109.53C56.6147 108.998 58.2494 108.159 59.7598 107.095C58.5922 106.44 56.2868 106.216 54.7366 106.792C52.7939 107.518 50.9704 109.038 50.3742 110.812C52.1529 111.746 54.7863 111.825 56.3911 111.229C58.0854 110.598 59.4965 109.311 59.9983 107.707C57.8817 108.934 55.5614 109.689 53.1218 109.918ZM41.6146 104.06C42.176 104.099 42.7375 104.124 43.2989 104.099C45.1025 104.025 46.8366 103.637 48.506 103.011C47.5669 102.137 45.4652 101.396 43.8803 101.565C41.8879 101.779 39.816 102.753 38.8272 104.243C40.2681 105.515 42.7126 106.201 44.3572 106.022C46.0962 105.838 47.7259 104.984 48.5805 103.627C46.3049 104.258 43.9548 104.417 41.6146 104.06ZM32.6463 95.9708C33.1631 96.1347 33.6848 96.2888 34.2214 96.3931C35.9305 96.7359 37.6447 96.7608 39.3539 96.5571C38.6732 95.5236 36.8696 94.3461 35.3393 94.1473C33.4214 93.8939 31.2551 94.3361 29.9881 95.5087C31.0514 97.0291 33.1879 98.2315 34.7679 98.4402C36.4423 98.6637 38.1664 98.2315 39.2794 97.1533C37.0038 97.2278 34.758 96.8353 32.6463 95.9708ZM33.2674 89.8843C31.1707 89.2284 29.2478 88.1602 27.6032 86.7044C28.0255 87.0174 28.4479 87.3205 28.9 87.5888C30.3459 88.4434 31.901 89.0148 33.5208 89.3676C33.2276 88.2099 31.9607 86.5703 30.634 85.8995C28.9696 85.0598 26.8579 84.7716 25.3326 85.4374C25.8195 87.1565 27.3846 88.9303 28.7559 89.6259C30.2068 90.3563 31.9159 90.5103 33.2674 89.8843ZM29.1137 81.6911C27.2057 80.7719 25.5313 79.4801 24.1699 77.8554C24.5277 78.2131 24.8854 78.5659 25.2779 78.8839C26.535 79.9024 27.9311 80.6676 29.4267 81.234C29.3124 80.0912 28.3386 78.3473 27.171 77.5175C25.7052 76.4791 23.7327 75.9077 22.1875 76.3251C22.4061 78.0343 23.6433 79.9471 24.8506 80.8017C26.1325 81.706 27.7324 82.0985 29.1137 81.6911ZM26.376 73.1551C24.8258 71.8335 23.5787 70.2286 22.7092 68.3853C22.9526 68.8027 23.206 69.22 23.4942 69.6076C24.4184 70.8596 25.5313 71.913 26.7834 72.8024C26.9573 71.7093 26.4754 69.851 25.586 68.7977C24.473 67.476 22.7787 66.4625 21.2385 66.4774C21.0248 68.117 21.7105 70.1988 22.6297 71.2869C23.5986 72.4446 24.9947 73.1998 26.376 73.1551ZM25.5313 64.1521C24.324 62.6168 23.4545 60.8678 22.9825 58.9698C23.1315 59.4121 23.2905 59.8493 23.4892 60.2716C24.1203 61.6231 24.9699 62.8255 25.9785 63.8987C26.3462 62.905 26.2468 61.0616 25.6108 59.9039C24.8109 58.4482 23.4097 57.1762 21.9589 56.898C21.4472 58.4034 21.7006 60.4902 22.3614 61.6877C23.052 62.9546 24.2246 63.9285 25.5313 64.1521ZM26.9275 55.5912C25.9785 53.9764 25.3823 52.2027 25.1786 50.3394C25.263 50.7767 25.3574 51.2139 25.4916 51.6412C25.9139 53.0076 26.5648 54.2596 27.3846 55.4124C27.8616 54.518 28.0057 52.7542 27.5535 51.5717C26.9871 50.086 25.8195 48.6948 24.478 48.2427C23.7973 49.6041 23.7675 51.6213 24.2345 52.8436C24.7314 54.1354 25.7152 55.2086 26.9275 55.5912ZM29.5559 48.3818C29.0143 46.6726 28.8354 44.8939 29.0441 43.1102C29.0292 43.5375 29.0242 43.9648 29.059 44.3871C29.1634 45.7535 29.5062 47.0552 30.0229 48.3073C30.6589 47.572 31.1707 45.9621 30.9968 44.7597C30.7831 43.2543 29.9931 41.709 28.8354 40.9985C27.9113 42.1264 27.4542 43.9946 27.6281 45.2367C27.8169 46.5534 28.5075 47.7707 29.5559 48.3818ZM33.6698 37.5653C33.5705 37.9578 33.4761 38.3553 33.4214 38.7627C33.2376 40.0545 33.2873 41.3414 33.5158 42.6133C34.2611 42.0618 35.066 40.6607 35.1505 39.508C35.2598 38.0621 34.8375 36.4573 33.9083 35.558C32.8153 36.4175 32.0054 38.072 31.9159 39.2645C31.8215 40.5265 32.2141 41.8034 33.0686 42.5885C32.9146 40.8793 33.1084 39.185 33.6698 37.5653ZM39.6619 36.5417C39.9004 36.2386 40.1091 35.9157 40.3128 35.5878C39.5775 37.0287 38.5539 38.2708 37.2969 39.2794C38.39 39.344 39.5129 38.7826 40.3128 37.8882C41.0631 37.0485 41.6593 35.4139 41.5301 34.1071C40.3079 34.0624 38.9415 34.8226 38.0322 35.8461C37.3068 36.661 36.8795 38.1217 36.9888 38.9912C37.9975 38.3205 38.9017 37.5156 39.6619 36.5417ZM91.976 96.2142C93.4964 94.7833 94.9075 93.243 96.1993 91.6034C97.4862 89.9588 98.6339 88.2148 99.6425 86.3914C101.665 82.7395 103.016 78.7497 103.826 74.6755C104.229 72.6334 104.497 70.5665 104.611 68.4946C104.72 66.4177 104.686 64.3359 104.502 62.269C104.318 60.2021 103.965 58.1451 103.473 56.1328C102.976 54.1205 102.331 52.1381 101.521 50.2301C99.9108 46.4043 97.6998 42.8419 95.0118 39.6918C97.67 42.8717 99.8413 46.4491 101.411 50.2798C102.201 52.1927 102.822 54.1702 103.299 56.1825C103.771 58.1948 104.104 60.2368 104.263 62.2988C104.427 64.3558 104.442 66.4277 104.313 68.4896C104.179 70.5516 103.891 72.5986 103.473 74.6159C102.629 78.6504 101.252 82.5904 99.2202 86.1728C98.2066 87.9664 97.0539 89.6756 95.772 91.2854C94.4851 92.8903 93.0741 94.3957 91.5636 95.7919C90.0432 97.1781 88.4334 98.46 86.7342 99.6177C85.03 100.765 83.2562 101.814 81.4079 102.708C80.4887 103.165 79.5446 103.573 78.5956 103.96C77.6417 104.333 76.6778 104.696 75.699 104.999C75.2121 105.163 74.7152 105.292 74.2233 105.441C73.7215 105.58 73.2197 105.729 72.7228 105.883C71.7241 106.191 70.7354 106.539 69.7615 106.931C68.4548 107.458 67.1779 108.074 65.9655 108.81C64.7532 108.074 63.4713 107.453 62.1696 106.931C61.1957 106.539 60.207 106.196 59.2083 105.883C58.7114 105.729 58.2096 105.585 57.7078 105.441C57.2159 105.292 56.719 105.163 56.2321 104.999C55.2533 104.696 54.2894 104.333 53.3354 103.96C52.3864 103.573 51.4424 103.16 50.5232 102.708C48.6749 101.814 46.9011 100.765 45.1969 99.6177C43.4977 98.46 41.8829 97.1781 40.3675 95.7919C38.857 94.3957 37.4509 92.8903 36.1591 91.2854C34.8772 89.6756 33.7245 87.9664 32.7109 86.1728C30.6788 82.5904 29.3025 78.6553 28.4578 74.6159C28.0405 72.5937 27.7523 70.5466 27.6181 68.4896C27.4889 66.4277 27.5038 64.3607 27.6678 62.2988C27.8268 60.2418 28.1597 58.1948 28.6317 56.1825C29.1087 54.1702 29.7298 52.1927 30.5198 50.2798C32.0898 46.454 34.2611 42.8717 36.9193 39.6918C34.2313 42.8419 32.0203 46.4093 30.4105 50.2301C29.6006 52.1381 28.9596 54.1205 28.4578 56.1328C27.9659 58.15 27.6082 60.2021 27.4293 62.269C27.2455 64.3359 27.2107 66.4227 27.32 68.4946C27.4343 70.5715 27.7026 72.6384 28.105 74.6755C28.9149 78.7497 30.2664 82.7445 32.2886 86.3914C33.2972 88.2148 34.4499 89.9638 35.7318 91.6034C37.0236 93.243 38.4347 94.7833 39.9551 96.2142C41.4804 97.6353 43.1052 98.9519 44.8193 100.144C46.5384 101.327 48.3321 102.405 50.2003 103.334C51.1344 103.806 52.0883 104.234 53.0473 104.636C54.0161 105.028 54.99 105.406 55.9887 105.724C56.4805 105.893 56.9873 106.032 57.4842 106.191C57.9761 106.335 58.468 106.484 58.9599 106.638C59.9387 106.951 60.9026 107.299 61.8466 107.692C62.9844 108.164 64.0874 108.7 65.1408 109.321C64.8327 109.53 64.5296 109.739 64.2365 109.962C63.3918 110.598 62.6018 111.314 61.8714 112.079C61.1411 112.844 60.4703 113.654 59.8244 114.474L60.5796 115.06C61.2057 114.245 61.8466 113.45 62.5422 112.715C63.2328 111.975 63.9781 111.289 64.783 110.673C65.1656 110.375 65.5631 110.096 65.9655 109.833C66.368 110.101 66.7655 110.38 67.1481 110.673C67.948 111.289 68.6933 111.975 69.3889 112.715C70.0845 113.455 70.7254 114.245 71.3515 115.06L72.1067 114.474C71.4608 113.654 70.79 112.839 70.0596 112.079C69.3293 111.314 68.5393 110.598 67.6946 109.962C67.4015 109.739 67.0934 109.525 66.7903 109.321C67.8387 108.7 68.9467 108.159 70.0845 107.692C71.0285 107.299 71.9924 106.951 72.9712 106.638C73.4582 106.484 73.95 106.335 74.4469 106.191C74.9487 106.037 75.4505 105.898 75.9424 105.724C76.9361 105.406 77.915 105.028 78.8838 104.636C79.8477 104.229 80.8017 103.806 81.7308 103.334C83.604 102.405 85.3927 101.327 87.1118 100.144C88.821 98.9519 90.4457 97.6353 91.976 96.2142ZM76.4244 100.423C75.9424 100.751 75.4704 101.088 75.0282 101.471C73.6122 102.683 72.4495 104.114 71.4956 105.689C72.8172 105.799 74.9984 105.058 76.1809 103.906C77.6665 102.455 78.7248 100.338 78.5758 98.4998C76.5933 98.3905 74.1637 99.3991 72.9414 100.592C71.6496 101.854 70.8695 103.593 71.0385 105.242C72.4843 103.26 74.2978 101.63 76.4244 100.423ZM84.7716 96.0801C84.4089 96.5074 84.0511 96.9446 83.7381 97.4117C82.7245 98.9072 82.0091 100.532 81.5221 102.246C82.7792 102.013 84.6275 100.765 85.4374 99.3842C86.451 97.6551 86.8981 95.4093 86.287 93.73C84.4089 94.1324 82.4016 95.6926 81.5669 97.1185C80.6824 98.629 80.3992 100.447 80.9806 101.938C81.8252 99.732 83.0972 97.7446 84.7716 96.0801ZM91.4543 89.4818C91.2407 89.9837 91.037 90.4855 90.878 91.0072C90.3712 92.6766 90.1724 94.3808 90.2122 96.1C91.3053 95.5236 92.6567 93.8442 93.0045 92.3437C93.4467 90.4606 93.2181 88.2596 92.1797 86.8882C90.5649 87.7975 89.1588 89.8048 88.7912 91.36C88.4036 93.0045 88.662 94.7634 89.6259 95.9758C89.7749 93.6902 90.3811 91.4941 91.4543 89.4818ZM96.2192 89.1837C97.1582 88.4484 98.147 86.6249 98.2215 85.1393C98.3159 83.2761 97.7197 81.229 96.4924 80.1061C95.1161 81.2489 94.1274 83.3953 94.0529 84.9306C93.9734 86.5553 94.5199 88.1801 95.6428 89.1638C95.3894 86.9777 95.5882 84.7915 96.254 82.6948C96.1397 83.2065 96.0304 83.7183 95.9707 84.24C95.777 85.9094 95.8863 87.559 96.2192 89.1837ZM99.6028 76.2009C99.722 77.8156 100.124 79.3559 100.731 80.8316C101.486 79.967 102.092 78.0591 101.893 76.6431C101.645 74.8643 100.711 73.0359 99.3494 72.1962C98.2563 73.5228 97.7097 75.7338 97.9135 77.2045C98.1321 78.7547 98.9469 80.1956 100.184 80.921C99.5481 78.9038 99.3394 76.7971 99.5928 74.6904C99.573 75.1922 99.568 75.699 99.6028 76.2009ZM102.658 72.7129C103.22 71.7589 103.448 69.851 103.011 68.5493C102.46 66.9096 101.252 65.3495 99.8164 64.798C99.0165 66.2488 98.8972 68.435 99.3543 69.7864C99.8363 71.2124 100.86 72.4297 102.162 72.8918C101.203 71.0981 100.631 69.1455 100.492 67.1133C100.567 67.5953 100.651 68.0723 100.775 68.5393C101.168 70.0448 101.819 71.4261 102.658 72.7129ZM103.558 64.3607C103.861 63.3422 103.637 61.5138 102.927 60.3958C102.037 58.9947 100.552 57.8171 99.086 57.6333C98.6736 59.1686 99.0662 61.2355 99.7965 62.3882C100.572 63.6105 101.809 64.5048 103.125 64.639C101.819 63.1882 100.835 61.4988 100.244 59.6356C100.423 60.0679 100.611 60.4902 100.835 60.9026C101.55 62.2094 102.48 63.3521 103.558 64.3607ZM102.499 56.6694C102.509 55.6558 101.824 54.0261 100.875 53.1815C99.6872 52.1281 98.0079 51.4325 96.6067 51.6462C96.6316 53.1666 97.5358 54.9701 98.5146 55.8396C99.5531 56.7588 100.924 57.2607 102.176 57.0371C100.592 56.0434 99.2401 54.7466 98.2016 53.1864C98.4799 53.5342 98.7631 53.8771 99.0761 54.1951C100.09 55.2136 101.242 56.0235 102.499 56.6694ZM100.01 49.7035C99.8413 48.7445 98.9022 47.3384 97.8588 46.7174C96.5521 45.9373 94.8528 45.5845 93.5759 46.0416C93.874 47.4676 95.0416 48.9979 96.1198 49.6389C97.2576 50.3196 98.6389 50.5432 99.7717 50.1109C98.1023 49.46 96.6017 48.4812 95.3497 47.2043C95.6726 47.4825 96.0006 47.7558 96.3533 47.9943C97.4812 48.7694 98.7134 49.3209 100.01 49.7035ZM97.1433 44.1486C96.9098 43.2493 95.9111 41.9823 94.8727 41.4705C93.5709 40.8296 91.9263 40.6209 90.7438 41.1476C91.1314 42.4841 92.3636 43.8505 93.4368 44.3772C94.5746 44.9386 95.9012 45.0479 96.9495 44.5511C95.3149 44.0592 93.8094 43.2394 92.5226 42.1165C92.8505 42.355 93.1834 42.5885 93.5361 42.7922C94.669 43.448 95.8813 43.8853 97.1433 44.1486ZM77.1895 106.792C75.6393 106.216 73.3389 106.44 72.1663 107.095C73.6768 108.159 75.3114 108.998 77.1001 109.53C77.6566 109.699 78.228 109.813 78.8043 109.918C76.3697 109.689 74.0444 108.934 71.9328 107.707C72.4346 109.306 73.8457 110.598 75.54 111.229C77.1399 111.825 79.7782 111.746 81.5569 110.812C80.9557 109.033 79.1323 107.513 77.1895 106.792ZM88.0459 101.565C86.4559 101.396 84.3542 102.137 83.4201 103.011C85.0896 103.637 86.8236 104.025 88.6272 104.099C89.1886 104.124 89.7501 104.094 90.3115 104.06C87.9763 104.417 85.6212 104.258 83.3456 103.627C84.2002 104.984 85.8299 105.838 87.5689 106.022C89.2085 106.196 91.658 105.51 93.0989 104.243C92.1102 102.748 90.0383 101.779 88.0459 101.565ZM96.5868 94.1473C95.0565 94.351 93.2529 95.5236 92.5722 96.5571C94.2814 96.7658 95.9956 96.7359 97.7048 96.3931C98.2364 96.2888 98.7581 96.1347 99.2798 95.9708C97.1682 96.8353 94.9224 97.2278 92.6468 97.1483C93.7548 98.2265 95.4838 98.6538 97.1582 98.4352C98.7382 98.2265 100.88 97.0241 101.938 95.5037C100.671 94.3312 98.5047 93.889 96.5868 94.1473ZM101.292 85.8945C99.9655 86.5653 98.6985 88.2099 98.4053 89.3626C100.025 89.0098 101.58 88.4384 103.026 87.5838C103.478 87.3155 103.906 87.0125 104.323 86.6994C102.678 88.1602 100.755 89.2284 98.6587 89.8793C100.01 90.5054 101.719 90.3513 103.17 89.616C104.542 88.9254 106.107 87.1516 106.594 85.4275C105.068 84.7716 102.957 85.0548 101.292 85.8945ZM104.755 77.5175C103.588 78.3423 102.614 80.0912 102.499 81.234C103.99 80.6676 105.391 79.9024 106.648 78.8839C107.041 78.5659 107.403 78.2181 107.756 77.8554C106.395 79.4801 104.72 80.7719 102.812 81.6911C104.189 82.0985 105.794 81.706 107.075 80.7968C108.283 79.9422 109.52 78.0293 109.739 76.3201C108.193 75.9077 106.221 76.4791 104.755 77.5175ZM106.34 68.8027C105.451 69.856 104.974 71.7142 105.143 72.8073C106.395 71.9179 107.508 70.8646 108.432 69.6125C108.72 69.22 108.973 68.8076 109.217 68.3903C108.347 70.2336 107.1 71.8384 105.55 73.1601C106.931 73.2048 108.328 72.4496 109.296 71.2919C110.216 70.2038 110.901 68.122 110.688 66.4823C109.147 66.4674 107.453 67.481 106.34 68.8027ZM106.315 59.9039C105.679 61.0616 105.575 62.905 105.948 63.8987C106.956 62.8255 107.806 61.6231 108.437 60.2716C108.636 59.8493 108.795 59.4121 108.944 58.9698C108.472 60.8678 107.602 62.6168 106.395 64.1521C107.702 63.9335 108.874 62.9596 109.57 61.6877C110.226 60.4902 110.484 58.4034 109.972 56.898C108.516 57.1762 107.115 58.4482 106.315 59.9039ZM104.542 55.4074C105.361 54.2547 106.012 53.0076 106.435 51.6362C106.569 51.2089 106.663 50.7717 106.748 50.3345C106.544 52.1977 105.948 53.9715 104.999 55.5863C106.211 55.2086 107.2 54.1305 107.692 52.8337C108.159 51.6114 108.129 49.5942 107.448 48.2328C106.107 48.6849 104.939 50.0761 104.373 51.5617C103.915 52.7492 104.06 54.513 104.542 55.4074ZM102.867 44.3921C102.902 43.9648 102.892 43.5375 102.882 43.1151C103.091 44.8939 102.912 46.6776 102.37 48.3868C103.419 47.7757 104.109 46.5584 104.298 45.2467C104.472 44.0045 104.015 42.1363 103.091 41.0085C101.938 41.719 101.143 43.2642 100.929 44.7697C100.76 45.9721 101.267 47.5819 101.903 48.3172C102.425 47.0602 102.763 45.7584 102.867 44.3921ZM98.4103 42.6133C98.6389 41.3414 98.6886 40.0595 98.5047 38.7627C98.4451 38.3602 98.3557 37.9627 98.2563 37.5653C98.8177 39.18 99.0115 40.8793 98.8575 42.5835C99.7121 41.7985 100.105 40.5216 100.01 39.2595C99.9208 38.0671 99.1109 36.4125 98.0178 35.553C97.0837 36.4523 96.6663 38.0522 96.7756 39.503C96.8601 40.6607 97.665 42.0618 98.4103 42.6133ZM94.6292 39.2844C93.3722 38.2758 92.3437 37.0286 91.6133 35.5927C91.817 35.9207 92.0257 36.2436 92.2642 36.5467C93.0244 37.5205 93.9336 38.3254 94.9472 39.0012C95.0565 38.1317 94.6342 36.6709 93.9038 35.8561C92.9896 34.8325 91.6232 34.0724 90.4059 34.1171C90.2768 35.4238 90.868 37.0535 91.6232 37.8981C92.4132 38.7875 93.5361 39.3539 94.6292 39.2844ZM63.8887 24.7463L59.248 25.427L62.6068 28.7411L61.8168 33.4215L65.9655 31.2154L70.1143 33.4215L69.3193 28.7411L72.6781 25.427L68.0374 24.7463L65.9606 20.4883L63.8887 24.7463ZM49.9767 28.8106L47.0502 29.2429L49.1668 31.3347L48.665 34.286L51.2834 32.8948L53.9019 34.286L53.4 31.3347L55.5166 29.2429L52.5902 28.8106L51.2834 26.1276L49.9767 28.8106ZM79.331 28.8106L76.4045 29.2429L78.5211 31.3347L78.0193 34.286L80.6377 32.8948L83.2562 34.286L82.7543 31.3347L84.871 29.2429L81.9445 28.8106L80.6377 26.1276L79.331 28.8106Z" fill="url(#paint4_linear_51_2379)"/>
</g>
<defs>
<linearGradient id="paint0_linear_51_2379" x1="52.3795" y1="130.493" x2="79.6259" y2="2.30912" gradientUnits="userSpaceOnUse">
<stop stop-color="#898989"/>
<stop offset="0.0413" stop-color="#8F8F8F"/>
<stop offset="0.1007" stop-color="#A2A2A2"/>
<stop offset="0.1707" stop-color="#C1C1C1"/>
<stop offset="0.2399" stop-color="#E7E7E7"/>
<stop offset="0.2739" stop-color="#D8D8D8"/>
<stop offset="0.346" stop-color="#BEBEBE"/>
<stop offset="0.3888" stop-color="#B4B4B4"/>
<stop offset="0.7334" stop-color="#B7B7B7"/>
<stop offset="0.7866" stop-color="#CCCCCC"/>
<stop offset="0.8707" stop-color="#E8E8E8"/>
<stop offset="0.9447" stop-color="#F9F9F9"/>
<stop offset="1" stop-color="white"/>
</linearGradient>
<linearGradient id="paint1_linear_51_2379" x1="100.69" y1="119.817" x2="31.3123" y2="12.9843" gradientUnits="userSpaceOnUse">
<stop stop-color="#898989"/>
<stop offset="0.0413" stop-color="#8F8F8F"/>
<stop offset="0.1007" stop-color="#A2A2A2"/>
<stop offset="0.1707" stop-color="#C1C1C1"/>
<stop offset="0.2399" stop-color="#E7E7E7"/>
<stop offset="0.2739" stop-color="#D8D8D8"/>
<stop offset="0.346" stop-color="#BEBEBE"/>
<stop offset="0.3888" stop-color="#B4B4B4"/>
<stop offset="0.5239" stop-color="#B7B7B7"/>
<stop offset="0.5604" stop-color="#CCCCCC"/>
<stop offset="0.6183" stop-color="#E8E8E8"/>
<stop offset="0.6692" stop-color="#F9F9F9"/>
<stop offset="0.7072" stop-color="white"/>
<stop offset="0.7838" stop-color="#D8D8D8"/>
<stop offset="0.8802" stop-color="#ADADAD"/>
<stop offset="0.9555" stop-color="#929292"/>
<stop offset="1" stop-color="#898989"/>
</linearGradient>
<linearGradient id="paint2_linear_51_2379" x1="84.3098" y1="-8.41051" x2="54.4308" y2="120.831" gradientUnits="userSpaceOnUse">
<stop stop-color="#898989"/>
<stop offset="0.0413" stop-color="#8F8F8F"/>
<stop offset="0.1007" stop-color="#A2A2A2"/>
<stop offset="0.1707" stop-color="#C1C1C1"/>
<stop offset="0.2399" stop-color="#E7E7E7"/>
<stop offset="0.2739" stop-color="#D8D8D8"/>
<stop offset="0.346" stop-color="#BEBEBE"/>
<stop offset="0.3888" stop-color="#B4B4B4"/>
<stop offset="0.5239" stop-color="#B7B7B7"/>
<stop offset="0.6188" stop-color="#CCCCCC"/>
<stop offset="0.7692" stop-color="#E8E8E8"/>
<stop offset="0.9013" stop-color="#F9F9F9"/>
<stop offset="1" stop-color="white"/>
</linearGradient>
<linearGradient id="paint3_linear_51_2379" x1="65.9405" y1="87.9203" x2="65.9405" y2="42.8212" gradientUnits="userSpaceOnUse">
<stop stop-color="#8A8A88"/>
<stop offset="0.4131" stop-color="#6D6D6B"/>
<stop offset="0.5186" stop-color="#656563"/>
<stop offset="1" stop-color="#C0BEAD"/>
</linearGradient>
<linearGradient id="paint4_linear_51_2379" x1="65.9625" y1="115.064" x2="65.9625" y2="20.4891" gradientUnits="userSpaceOnUse">
<stop stop-color="#8A8A88"/>
<stop offset="0.4131" stop-color="#6D6D6B"/>
<stop offset="0.5186" stop-color="#656563"/>
<stop offset="1" stop-color="#C0BEAD"/>
</linearGradient>
<clipPath id="clip0_51_2379">
<rect width="131.021" height="132" fill="white" transform="translate(0.490234 0.5)"/>
</clipPath>
</defs>
</svg>
