<svg width="17" height="14" viewBox="0 0 17 14" fill="none" xmlns="http://www.w3.org/2000/svg">
<path d="M16.5931 2.0462C15.9716 2.3211 15.3156 2.49291 14.625 2.596C15.3156 2.18365 15.868 1.53076 16.1097 0.740416C15.4537 1.11841 14.7286 1.39331 13.9345 1.56512C13.313 0.912229 12.4153 0.499878 11.4485 0.499878C9.58402 0.499878 8.06481 2.01183 8.06481 3.86742C8.06481 4.14232 8.09934 4.38286 8.16839 4.62339C5.37166 4.48594 2.85115 3.1458 1.15931 1.08404C0.883086 1.59948 0.710448 2.14928 0.710448 2.76781C0.710448 3.93614 1.29742 4.96702 2.22966 5.58555C1.67722 5.55118 1.15931 5.41373 0.67592 5.1732V5.20756C0.67592 6.85696 1.84986 8.23147 3.4036 8.54073C3.12738 8.60946 2.81663 8.64382 2.50588 8.64382C2.29871 8.64382 2.05702 8.60946 1.84986 8.5751C2.29871 9.91524 3.54171 10.9118 5.02639 10.9118C3.85245 11.8052 2.4023 12.355 0.814031 12.355C0.53781 12.355 0.26159 12.355 0.0198975 12.3206C1.53911 13.2828 3.30001 13.8326 5.23355 13.8326C11.483 13.8326 14.9013 8.67818 14.9013 4.21104C14.9013 4.07359 14.9013 3.90178 14.9013 3.76433C15.5573 3.31761 16.1443 2.73345 16.5931 2.0462Z" fill="#F0F0F0"/>
</svg>
