<svg width="20" height="20" viewBox="0 0 20 20" fill="none" xmlns="http://www.w3.org/2000/svg">
<path d="M10.0007 3.33301C10.8847 3.33301 11.7326 3.6842 12.3577 4.30932C12.9828 4.93444 13.334 5.78229 13.334 6.66634C13.334 7.5504 12.9828 8.39824 12.3577 9.02336C11.7326 9.64849 10.8847 9.99967 10.0007 9.99967C9.1166 9.99967 8.26875 9.64849 7.64363 9.02336C7.01851 8.39824 6.66732 7.5504 6.66732 6.66634C6.66732 5.78229 7.01851 4.93444 7.64363 4.30932C8.26875 3.6842 9.1166 3.33301 10.0007 3.33301ZM10.0007 11.6663C13.684 11.6663 16.6673 13.158 16.6673 14.9997V16.6663H3.33398V14.9997C3.33398 13.158 6.31732 11.6663 10.0007 11.6663Z" fill="#1F1F26"/>
</svg>
